%TF.GenerationSoftware,KiCad,Pcbnew,10.0.6-10.0.6~ubuntu24.04.1*%
%TF.CreationDate,2026-09-03T15:05:52+02:00*%
%TF.ProjectId,maratui,6d617261-7475-4692-9e6b-696361645f70,rev?*%
%TF.SameCoordinates,Original*%
%TF.FileFunction,Copper,L2,Bot*%
%TF.FilePolarity,Positive*%
%FSLAX46Y46*%
G04 Gerber Fmt 4.6, Leading zero omitted, Abs format (unit mm)*
G04 Created by KiCad (PCBNEW 10.0.6-10.0.6~ubuntu24.04.1) date 2026-09-03 15:05:52*
%MOMM*%
%LPD*%
G01*
G04 APERTURE LIST*
G04 Aperture macros list*
%AMRoundRect*
0 Rectangle with rounded corners*
0 $1 Rounding radius*
0 $2 $3 $4 $5 $6 $7 $8 $9 X,Y pos of 4 corners*
0 Add a 4 corners polygon primitive as box body*
4,1,4,$2,$3,$4,$5,$6,$7,$8,$9,$2,$3,0*
0 Add four circle primitives for the rounded corners*
1,1,$1+$1,$2,$3*
1,1,$1+$1,$4,$5*
1,1,$1+$1,$6,$7*
1,1,$1+$1,$8,$9*
0 Add four rect primitives between the rounded corners*
20,1,$1+$1,$2,$3,$4,$5,0*
20,1,$1+$1,$4,$5,$6,$7,0*
20,1,$1+$1,$6,$7,$8,$9,0*
20,1,$1+$1,$8,$9,$2,$3,0*%
G04 Aperture macros list end*
%TA.AperFunction,ComponentPad*%
%ADD10R,1.700000X1.700000*%
%TD*%
%TA.AperFunction,ComponentPad*%
%ADD11C,1.700000*%
%TD*%
%TA.AperFunction,ComponentPad*%
%ADD12RoundRect,0.250000X-0.750000X0.600000X-0.750000X-0.600000X0.750000X-0.600000X0.750000X0.600000X0*%
%TD*%
%TA.AperFunction,ComponentPad*%
%ADD13O,2.000000X1.700000*%
%TD*%
%TA.AperFunction,ComponentPad*%
%ADD14O,1.524000X1.900000*%
%TD*%
G04 APERTURE END LIST*
D10*
%TO.P,J5,1,Pin_1_1*%
%TO.N,+3.3V*%
X89500000Y-92500000D03*
D11*
%TO.P,J5,2,Pin_2_2*%
%TO.N,GND*%
X89500000Y-89960000D03*
%TO.P,J5,3,Pin_3_3*%
%TO.N,cs_19*%
X89500000Y-87420000D03*
%TO.P,J5,4,Pin_4_4*%
%TO.N,/RESET*%
X89500000Y-84880000D03*
%TO.P,J5,5,Pin_5_5*%
%TO.N,DC_23*%
X89500000Y-82340000D03*
%TO.P,J5,6,Pin_6_6*%
%TO.N,Mosi_21*%
X89500000Y-79800000D03*
%TO.P,J5,7,Pin_7_7*%
%TO.N,sck_18*%
X89500000Y-77260000D03*
%TO.P,J5,8,Pin_8_8*%
%TO.N,/LED*%
X89500000Y-74720000D03*
%TD*%
D10*
%TO.P,J1,1,Pin_1_1*%
%TO.N,+3.3V*%
X135500000Y-87000000D03*
D11*
%TO.P,J1,2,Pin_2_2*%
%TO.N,SCK_26*%
X135500000Y-89540000D03*
%TO.P,J1,3,Pin_3_3*%
%TO.N,Dat_25*%
X135500000Y-92080000D03*
%TO.P,J1,4,Pin_4_4*%
%TO.N,GND*%
X135500000Y-94620000D03*
%TO.P,J1,5*%
%TO.N,N/C*%
X135500000Y-97160000D03*
%TD*%
D12*
%TO.P,J4,1,Pin_1_1*%
%TO.N,Net-(J4-Pin_1)*%
X156467500Y-56250000D03*
D13*
%TO.P,J4,2,Pin_2_2*%
%TO.N,Net-(J4-Pin_2)*%
X156467500Y-58750000D03*
%TD*%
D10*
%TO.P,J3,1,Pin_1_1*%
%TO.N,+3.3V*%
X99500000Y-87340000D03*
D11*
%TO.P,J3,2,Pin_2_2*%
%TO.N,SCK_27*%
X99500000Y-89880000D03*
%TO.P,J3,3,Pin_3_3*%
%TO.N,Dat_32*%
X99500000Y-92420000D03*
%TO.P,J3,4,Pin_4_4*%
%TO.N,GND*%
X99500000Y-94960000D03*
%TO.P,J3,5*%
%TO.N,N/C*%
X99500000Y-97500000D03*
%TD*%
D12*
%TO.P,J2,1,Pin_1_1*%
%TO.N,/BUTTON*%
X156500000Y-76000000D03*
D13*
%TO.P,J2,2,Pin_2_2*%
%TO.N,GND*%
X156500000Y-78500000D03*
%TD*%
D14*
%TO.P,U2,1,VIN_1*%
%TO.N,+5V*%
X139120000Y-78500000D03*
%TO.P,U2,2,GND_2*%
%TO.N,unconnected-(U2-GND-Pad2)*%
X136580000Y-78500000D03*
%TO.P,U2,3,GPIO13_3*%
%TO.N,unconnected-(U2-GPIO13-Pad3)*%
X134040000Y-78500000D03*
%TO.P,U2,4,GPIO12_4*%
%TO.N,/BUTTON*%
X131500000Y-78500000D03*
%TO.P,U2,5,GPIO14_5*%
%TO.N,/LED*%
X128960000Y-78500000D03*
%TO.P,U2,6,GPIO27_6*%
%TO.N,SCK_27*%
X126420000Y-78500000D03*
%TO.P,U2,7,GPIO26_7*%
%TO.N,SCK_26*%
X123880000Y-78500000D03*
%TO.P,U2,8,GPIO25_8*%
%TO.N,Dat_25*%
X121340000Y-78500000D03*
%TO.P,U2,9,GPIO33_9*%
%TO.N,unconnected-(U2-GPIO33-Pad9)*%
X118800000Y-78500000D03*
%TO.P,U2,10,GPIO32_10*%
%TO.N,Dat_32*%
X116260000Y-78500000D03*
%TO.P,U2,11,GPIO35_11*%
%TO.N,unconnected-(U2-GPIO35-Pad11)*%
X113720000Y-78500000D03*
%TO.P,U2,12,GPIO34_12*%
%TO.N,unconnected-(U2-GPIO34-Pad12)*%
X111180000Y-78500000D03*
%TO.P,U2,13,GPIO39_13*%
%TO.N,unconnected-(U2-GPIO39-Pad13)*%
X108640000Y-78500000D03*
%TO.P,U2,14,GPIO36_14*%
%TO.N,unconnected-(U2-GPIO36-Pad14)*%
X106100000Y-78500000D03*
%TO.P,U2,15,EN_15*%
%TO.N,unconnected-(U2-EN-Pad15)*%
X103560000Y-78500000D03*
%TO.P,U2,16,3.3v_16*%
%TO.N,+3.3V*%
X139120000Y-53100000D03*
%TO.P,U2,17,GND_17*%
%TO.N,GND*%
X136580000Y-53100000D03*
%TO.P,U2,18,GPIO15_18*%
%TO.N,unconnected-(U2-GPIO15-Pad18)*%
X134040000Y-53100000D03*
%TO.P,U2,19,GPIO2_19*%
%TO.N,unconnected-(U2-GPIO2-Pad19)*%
X131500000Y-53100000D03*
%TO.P,U2,20,GPIO4_20*%
%TO.N,unconnected-(U2-GPIO4-Pad20)*%
X128960000Y-53100000D03*
%TO.P,U2,21,GPIO16_21*%
%TO.N,Net-(J4-Pin_2)*%
X126420000Y-53100000D03*
%TO.P,U2,22,GPIO17_22*%
%TO.N,Net-(J4-Pin_1)*%
X123880000Y-53100000D03*
%TO.P,U2,23,GPIO5_23*%
%TO.N,unconnected-(U2-GPIO5-Pad23)*%
X121340000Y-53100000D03*
%TO.P,U2,24,GPIO18_24*%
%TO.N,sck_18*%
X118800000Y-53100000D03*
%TO.P,U2,25,GPIO19_25*%
%TO.N,cs_19*%
X116260000Y-53100000D03*
%TO.P,U2,26,GPIO21_26*%
%TO.N,Mosi_21*%
X113720000Y-53100000D03*
%TO.P,U2,27,GPIO3_27*%
%TO.N,unconnected-(U2-GPIO3-Pad27)*%
X111180000Y-53100000D03*
%TO.P,U2,28,GPIO1_28*%
%TO.N,unconnected-(U2-GPIO1-Pad28)*%
X108640000Y-53100000D03*
%TO.P,U2,29,GPIO22_29*%
%TO.N,/RESET*%
X106100000Y-53100000D03*
%TO.P,U2,30,GPIO23_30*%
%TO.N,DC_23*%
X103560000Y-53100000D03*
%TD*%
M02*
