%TF.GenerationSoftware,KiCad,Pcbnew,10.0.6-10.0.6~ubuntu24.04.1*%
%TF.CreationDate,2026-10-02T16:29:13+02:00*%
%TF.ProjectId,maratui,6d617261-7475-4692-9e6b-696361645f70,rev?*%
%TF.SameCoordinates,Original*%
%TF.FileFunction,Soldermask,Bot*%
%TF.FilePolarity,Negative*%
%FSLAX46Y46*%
G04 Gerber Fmt 4.6, Leading zero omitted, Abs format (unit mm)*
G04 Created by KiCad (PCBNEW 10.0.6-10.0.6~ubuntu24.04.1) date 2026-10-02 16:29:13*
%MOMM*%
%LPD*%
G01*
G04 APERTURE LIST*
G04 Aperture macros list*
%AMRoundRect*
0 Rectangle with rounded corners*
0 $1 Rounding radius*
0 $2 $3 $4 $5 $6 $7 $8 $9 X,Y pos of 4 corners*
0 Add a 4 corners polygon primitive as box body*
4,1,4,$2,$3,$4,$5,$6,$7,$8,$9,$2,$3,0*
0 Add four circle primitives for the rounded corners*
1,1,$1+$1,$2,$3*
1,1,$1+$1,$4,$5*
1,1,$1+$1,$6,$7*
1,1,$1+$1,$8,$9*
0 Add four rect primitives between the rounded corners*
20,1,$1+$1,$2,$3,$4,$5,0*
20,1,$1+$1,$4,$5,$6,$7,0*
20,1,$1+$1,$6,$7,$8,$9,0*
20,1,$1+$1,$8,$9,$2,$3,0*%
G04 Aperture macros list end*
%ADD10RoundRect,0.250000X0.600000X0.750000X-0.600000X0.750000X-0.600000X-0.750000X0.600000X-0.750000X0*%
%ADD11O,1.700000X2.000000*%
%ADD12C,1.879600*%
%ADD13O,1.524000X1.900000*%
%ADD14O,3.000000X1.500000*%
G04 APERTURE END LIST*
D10*
%TO.C,J4*%
X117500000Y-144000000D03*
D11*
X115000000Y-144000000D03*
%TD*%
D12*
%TO.C,U2*%
X94500000Y-153380000D03*
X94500000Y-155920000D03*
X94500000Y-158460000D03*
X94500000Y-161000000D03*
%TD*%
D13*
%TO.C,U1*%
X101620000Y-144500000D03*
X99080000Y-144500000D03*
X96540000Y-144500000D03*
X94000000Y-144500000D03*
X91460000Y-144500000D03*
X88920000Y-144500000D03*
X86380000Y-144500000D03*
X83840000Y-144500000D03*
X81300000Y-144500000D03*
X78760000Y-144500000D03*
X76220000Y-144500000D03*
X73680000Y-144500000D03*
X71140000Y-144500000D03*
X68600000Y-144500000D03*
X66060000Y-144500000D03*
X101620000Y-119100000D03*
X99080000Y-119100000D03*
X96540000Y-119100000D03*
X94000000Y-119100000D03*
X91460000Y-119100000D03*
X88920000Y-119100000D03*
X86380000Y-119100000D03*
X83840000Y-119100000D03*
X81300000Y-119100000D03*
X78760000Y-119100000D03*
X76220000Y-119100000D03*
X73680000Y-119100000D03*
X71140000Y-119100000D03*
X68600000Y-119100000D03*
X66060000Y-119100000D03*
%TD*%
D12*
%TO.C,U3*%
X59000000Y-153380000D03*
X59000000Y-155920000D03*
X59000000Y-158460000D03*
X59000000Y-161000000D03*
%TD*%
D10*
%TO.C,J2*%
X117000000Y-120000000D03*
D11*
X114500000Y-120000000D03*
%TD*%
D14*
%TO.C,U4*%
X45960000Y-157160000D03*
X45960000Y-154620000D03*
X45960000Y-152080000D03*
X45960000Y-149540000D03*
X45960000Y-147000000D03*
X45960000Y-144460000D03*
X45960000Y-141920000D03*
X45960000Y-139380000D03*
X45960000Y-136840000D03*
X45960000Y-134300000D03*
X45960000Y-131760000D03*
X45960000Y-129220000D03*
X45960000Y-126680000D03*
X45960000Y-124140000D03*
%TD*%
M02*
