%TF.GenerationSoftware,KiCad,Pcbnew,10.0.6-10.0.6~ubuntu24.04.1*%
%TF.CreationDate,2026-09-03T15:05:53+02:00*%
%TF.ProjectId,maratui,6d617261-7475-4692-9e6b-696361645f70,rev?*%
%TF.SameCoordinates,Original*%
%TF.FileFunction,Soldermask,Bot*%
%TF.FilePolarity,Negative*%
%FSLAX46Y46*%
G04 Gerber Fmt 4.6, Leading zero omitted, Abs format (unit mm)*
G04 Created by KiCad (PCBNEW 10.0.6-10.0.6~ubuntu24.04.1) date 2026-09-03 15:05:53*
%MOMM*%
%LPD*%
G01*
G04 APERTURE LIST*
G04 Aperture macros list*
%AMRoundRect*
0 Rectangle with rounded corners*
0 $1 Rounding radius*
0 $2 $3 $4 $5 $6 $7 $8 $9 X,Y pos of 4 corners*
0 Add a 4 corners polygon primitive as box body*
4,1,4,$2,$3,$4,$5,$6,$7,$8,$9,$2,$3,0*
0 Add four circle primitives for the rounded corners*
1,1,$1+$1,$2,$3*
1,1,$1+$1,$4,$5*
1,1,$1+$1,$6,$7*
1,1,$1+$1,$8,$9*
0 Add four rect primitives between the rounded corners*
20,1,$1+$1,$2,$3,$4,$5,0*
20,1,$1+$1,$4,$5,$6,$7,0*
20,1,$1+$1,$6,$7,$8,$9,0*
20,1,$1+$1,$8,$9,$2,$3,0*%
G04 Aperture macros list end*
%ADD10R,1.700000X1.700000*%
%ADD11C,1.700000*%
%ADD12RoundRect,0.250000X-0.750000X0.600000X-0.750000X-0.600000X0.750000X-0.600000X0.750000X0.600000X0*%
%ADD13O,2.000000X1.700000*%
%ADD14O,1.524000X1.900000*%
G04 APERTURE END LIST*
D10*
%TO.C,J5*%
X89500000Y-92500000D03*
D11*
X89500000Y-89960000D03*
X89500000Y-87420000D03*
X89500000Y-84880000D03*
X89500000Y-82340000D03*
X89500000Y-79800000D03*
X89500000Y-77260000D03*
X89500000Y-74720000D03*
%TD*%
D10*
%TO.C,J1*%
X135500000Y-87000000D03*
D11*
X135500000Y-89540000D03*
X135500000Y-92080000D03*
X135500000Y-94620000D03*
X135500000Y-97160000D03*
%TD*%
D12*
%TO.C,J4*%
X156467500Y-56250000D03*
D13*
X156467500Y-58750000D03*
%TD*%
D10*
%TO.C,J3*%
X99500000Y-87340000D03*
D11*
X99500000Y-89880000D03*
X99500000Y-92420000D03*
X99500000Y-94960000D03*
X99500000Y-97500000D03*
%TD*%
D12*
%TO.C,J2*%
X156500000Y-76000000D03*
D13*
X156500000Y-78500000D03*
%TD*%
D14*
%TO.C,U2*%
X139120000Y-78500000D03*
X136580000Y-78500000D03*
X134040000Y-78500000D03*
X131500000Y-78500000D03*
X128960000Y-78500000D03*
X126420000Y-78500000D03*
X123880000Y-78500000D03*
X121340000Y-78500000D03*
X118800000Y-78500000D03*
X116260000Y-78500000D03*
X113720000Y-78500000D03*
X111180000Y-78500000D03*
X108640000Y-78500000D03*
X106100000Y-78500000D03*
X103560000Y-78500000D03*
X139120000Y-53100000D03*
X136580000Y-53100000D03*
X134040000Y-53100000D03*
X131500000Y-53100000D03*
X128960000Y-53100000D03*
X126420000Y-53100000D03*
X123880000Y-53100000D03*
X121340000Y-53100000D03*
X118800000Y-53100000D03*
X116260000Y-53100000D03*
X113720000Y-53100000D03*
X111180000Y-53100000D03*
X108640000Y-53100000D03*
X106100000Y-53100000D03*
X103560000Y-53100000D03*
%TD*%
M02*
