%TF.GenerationSoftware,KiCad,Pcbnew,10.0.6-10.0.6~ubuntu24.04.1*%
%TF.CreationDate,2026-09-13T13:11:32+02:00*%
%TF.ProjectId,maratui,6d617261-7475-4692-9e6b-696361645f70,rev?*%
%TF.SameCoordinates,Original*%
%TF.FileFunction,Legend,Top*%
%TF.FilePolarity,Positive*%
%FSLAX46Y46*%
G04 Gerber Fmt 4.6, Leading zero omitted, Abs format (unit mm)*
G04 Created by KiCad (PCBNEW 10.0.6-10.0.6~ubuntu24.04.1) date 2026-09-13 13:11:32*
%MOMM*%
%LPD*%
G01*
G04 APERTURE LIST*
%ADD10C,0.100000*%
%ADD11C,0.500000*%
%ADD12C,0.125000*%
%ADD13C,0.150000*%
%ADD14C,0.120000*%
%ADD15C,0.200000*%
G04 APERTURE END LIST*
D10*
X129708646Y-86432559D02*
X130327693Y-86432559D01*
X130327693Y-86432559D02*
X129994360Y-86813511D01*
X129994360Y-86813511D02*
X130137217Y-86813511D01*
X130137217Y-86813511D02*
X130232455Y-86861130D01*
X130232455Y-86861130D02*
X130280074Y-86908749D01*
X130280074Y-86908749D02*
X130327693Y-87003987D01*
X130327693Y-87003987D02*
X130327693Y-87242082D01*
X130327693Y-87242082D02*
X130280074Y-87337320D01*
X130280074Y-87337320D02*
X130232455Y-87384940D01*
X130232455Y-87384940D02*
X130137217Y-87432559D01*
X130137217Y-87432559D02*
X129851503Y-87432559D01*
X129851503Y-87432559D02*
X129756265Y-87384940D01*
X129756265Y-87384940D02*
X129708646Y-87337320D01*
X130756265Y-87337320D02*
X130803884Y-87384940D01*
X130803884Y-87384940D02*
X130756265Y-87432559D01*
X130756265Y-87432559D02*
X130708646Y-87384940D01*
X130708646Y-87384940D02*
X130756265Y-87337320D01*
X130756265Y-87337320D02*
X130756265Y-87432559D01*
X131137217Y-86432559D02*
X131756264Y-86432559D01*
X131756264Y-86432559D02*
X131422931Y-86813511D01*
X131422931Y-86813511D02*
X131565788Y-86813511D01*
X131565788Y-86813511D02*
X131661026Y-86861130D01*
X131661026Y-86861130D02*
X131708645Y-86908749D01*
X131708645Y-86908749D02*
X131756264Y-87003987D01*
X131756264Y-87003987D02*
X131756264Y-87242082D01*
X131756264Y-87242082D02*
X131708645Y-87337320D01*
X131708645Y-87337320D02*
X131661026Y-87384940D01*
X131661026Y-87384940D02*
X131565788Y-87432559D01*
X131565788Y-87432559D02*
X131280074Y-87432559D01*
X131280074Y-87432559D02*
X131184836Y-87384940D01*
X131184836Y-87384940D02*
X131137217Y-87337320D01*
X132041979Y-86432559D02*
X132375312Y-87432559D01*
X132375312Y-87432559D02*
X132708645Y-86432559D01*
X129756265Y-90604828D02*
X129899122Y-90652447D01*
X129899122Y-90652447D02*
X130137217Y-90652447D01*
X130137217Y-90652447D02*
X130232455Y-90604828D01*
X130232455Y-90604828D02*
X130280074Y-90557208D01*
X130280074Y-90557208D02*
X130327693Y-90461970D01*
X130327693Y-90461970D02*
X130327693Y-90366732D01*
X130327693Y-90366732D02*
X130280074Y-90271494D01*
X130280074Y-90271494D02*
X130232455Y-90223875D01*
X130232455Y-90223875D02*
X130137217Y-90176256D01*
X130137217Y-90176256D02*
X129946741Y-90128637D01*
X129946741Y-90128637D02*
X129851503Y-90081018D01*
X129851503Y-90081018D02*
X129803884Y-90033399D01*
X129803884Y-90033399D02*
X129756265Y-89938161D01*
X129756265Y-89938161D02*
X129756265Y-89842923D01*
X129756265Y-89842923D02*
X129803884Y-89747685D01*
X129803884Y-89747685D02*
X129851503Y-89700066D01*
X129851503Y-89700066D02*
X129946741Y-89652447D01*
X129946741Y-89652447D02*
X130184836Y-89652447D01*
X130184836Y-89652447D02*
X130327693Y-89700066D01*
X131327693Y-90557208D02*
X131280074Y-90604828D01*
X131280074Y-90604828D02*
X131137217Y-90652447D01*
X131137217Y-90652447D02*
X131041979Y-90652447D01*
X131041979Y-90652447D02*
X130899122Y-90604828D01*
X130899122Y-90604828D02*
X130803884Y-90509589D01*
X130803884Y-90509589D02*
X130756265Y-90414351D01*
X130756265Y-90414351D02*
X130708646Y-90223875D01*
X130708646Y-90223875D02*
X130708646Y-90081018D01*
X130708646Y-90081018D02*
X130756265Y-89890542D01*
X130756265Y-89890542D02*
X130803884Y-89795304D01*
X130803884Y-89795304D02*
X130899122Y-89700066D01*
X130899122Y-89700066D02*
X131041979Y-89652447D01*
X131041979Y-89652447D02*
X131137217Y-89652447D01*
X131137217Y-89652447D02*
X131280074Y-89700066D01*
X131280074Y-89700066D02*
X131327693Y-89747685D01*
X131756265Y-90652447D02*
X131756265Y-89652447D01*
X132327693Y-90652447D02*
X131899122Y-90081018D01*
X132327693Y-89652447D02*
X131756265Y-90223875D01*
X129803884Y-92262391D02*
X129803884Y-91262391D01*
X129803884Y-91262391D02*
X130041979Y-91262391D01*
X130041979Y-91262391D02*
X130184836Y-91310010D01*
X130184836Y-91310010D02*
X130280074Y-91405248D01*
X130280074Y-91405248D02*
X130327693Y-91500486D01*
X130327693Y-91500486D02*
X130375312Y-91690962D01*
X130375312Y-91690962D02*
X130375312Y-91833819D01*
X130375312Y-91833819D02*
X130327693Y-92024295D01*
X130327693Y-92024295D02*
X130280074Y-92119533D01*
X130280074Y-92119533D02*
X130184836Y-92214772D01*
X130184836Y-92214772D02*
X130041979Y-92262391D01*
X130041979Y-92262391D02*
X129803884Y-92262391D01*
X130946741Y-92262391D02*
X130851503Y-92214772D01*
X130851503Y-92214772D02*
X130803884Y-92167152D01*
X130803884Y-92167152D02*
X130756265Y-92071914D01*
X130756265Y-92071914D02*
X130756265Y-91786200D01*
X130756265Y-91786200D02*
X130803884Y-91690962D01*
X130803884Y-91690962D02*
X130851503Y-91643343D01*
X130851503Y-91643343D02*
X130946741Y-91595724D01*
X130946741Y-91595724D02*
X131089598Y-91595724D01*
X131089598Y-91595724D02*
X131184836Y-91643343D01*
X131184836Y-91643343D02*
X131232455Y-91690962D01*
X131232455Y-91690962D02*
X131280074Y-91786200D01*
X131280074Y-91786200D02*
X131280074Y-92071914D01*
X131280074Y-92071914D02*
X131232455Y-92167152D01*
X131232455Y-92167152D02*
X131184836Y-92214772D01*
X131184836Y-92214772D02*
X131089598Y-92262391D01*
X131089598Y-92262391D02*
X130946741Y-92262391D01*
X132137217Y-91595724D02*
X132137217Y-92262391D01*
X131708646Y-91595724D02*
X131708646Y-92119533D01*
X131708646Y-92119533D02*
X131756265Y-92214772D01*
X131756265Y-92214772D02*
X131851503Y-92262391D01*
X131851503Y-92262391D02*
X131994360Y-92262391D01*
X131994360Y-92262391D02*
X132089598Y-92214772D01*
X132089598Y-92214772D02*
X132137217Y-92167152D01*
X132470551Y-91595724D02*
X132851503Y-91595724D01*
X132613408Y-91262391D02*
X132613408Y-92119533D01*
X132613408Y-92119533D02*
X132661027Y-92214772D01*
X132661027Y-92214772D02*
X132756265Y-92262391D01*
X132756265Y-92262391D02*
X132851503Y-92262391D01*
X130327693Y-94529898D02*
X130232455Y-94482279D01*
X130232455Y-94482279D02*
X130089598Y-94482279D01*
X130089598Y-94482279D02*
X129946741Y-94529898D01*
X129946741Y-94529898D02*
X129851503Y-94625136D01*
X129851503Y-94625136D02*
X129803884Y-94720374D01*
X129803884Y-94720374D02*
X129756265Y-94910850D01*
X129756265Y-94910850D02*
X129756265Y-95053707D01*
X129756265Y-95053707D02*
X129803884Y-95244183D01*
X129803884Y-95244183D02*
X129851503Y-95339421D01*
X129851503Y-95339421D02*
X129946741Y-95434660D01*
X129946741Y-95434660D02*
X130089598Y-95482279D01*
X130089598Y-95482279D02*
X130184836Y-95482279D01*
X130184836Y-95482279D02*
X130327693Y-95434660D01*
X130327693Y-95434660D02*
X130375312Y-95387040D01*
X130375312Y-95387040D02*
X130375312Y-95053707D01*
X130375312Y-95053707D02*
X130184836Y-95053707D01*
X130803884Y-95482279D02*
X130803884Y-94482279D01*
X130803884Y-94482279D02*
X131375312Y-95482279D01*
X131375312Y-95482279D02*
X131375312Y-94482279D01*
X131851503Y-95482279D02*
X131851503Y-94482279D01*
X131851503Y-94482279D02*
X132089598Y-94482279D01*
X132089598Y-94482279D02*
X132232455Y-94529898D01*
X132232455Y-94529898D02*
X132327693Y-94625136D01*
X132327693Y-94625136D02*
X132375312Y-94720374D01*
X132375312Y-94720374D02*
X132422931Y-94910850D01*
X132422931Y-94910850D02*
X132422931Y-95053707D01*
X132422931Y-95053707D02*
X132375312Y-95244183D01*
X132375312Y-95244183D02*
X132327693Y-95339421D01*
X132327693Y-95339421D02*
X132232455Y-95434660D01*
X132232455Y-95434660D02*
X132089598Y-95482279D01*
X132089598Y-95482279D02*
X131851503Y-95482279D01*
X102208646Y-86932559D02*
X102827693Y-86932559D01*
X102827693Y-86932559D02*
X102494360Y-87313511D01*
X102494360Y-87313511D02*
X102637217Y-87313511D01*
X102637217Y-87313511D02*
X102732455Y-87361130D01*
X102732455Y-87361130D02*
X102780074Y-87408749D01*
X102780074Y-87408749D02*
X102827693Y-87503987D01*
X102827693Y-87503987D02*
X102827693Y-87742082D01*
X102827693Y-87742082D02*
X102780074Y-87837320D01*
X102780074Y-87837320D02*
X102732455Y-87884940D01*
X102732455Y-87884940D02*
X102637217Y-87932559D01*
X102637217Y-87932559D02*
X102351503Y-87932559D01*
X102351503Y-87932559D02*
X102256265Y-87884940D01*
X102256265Y-87884940D02*
X102208646Y-87837320D01*
X103256265Y-87837320D02*
X103303884Y-87884940D01*
X103303884Y-87884940D02*
X103256265Y-87932559D01*
X103256265Y-87932559D02*
X103208646Y-87884940D01*
X103208646Y-87884940D02*
X103256265Y-87837320D01*
X103256265Y-87837320D02*
X103256265Y-87932559D01*
X103637217Y-86932559D02*
X104256264Y-86932559D01*
X104256264Y-86932559D02*
X103922931Y-87313511D01*
X103922931Y-87313511D02*
X104065788Y-87313511D01*
X104065788Y-87313511D02*
X104161026Y-87361130D01*
X104161026Y-87361130D02*
X104208645Y-87408749D01*
X104208645Y-87408749D02*
X104256264Y-87503987D01*
X104256264Y-87503987D02*
X104256264Y-87742082D01*
X104256264Y-87742082D02*
X104208645Y-87837320D01*
X104208645Y-87837320D02*
X104161026Y-87884940D01*
X104161026Y-87884940D02*
X104065788Y-87932559D01*
X104065788Y-87932559D02*
X103780074Y-87932559D01*
X103780074Y-87932559D02*
X103684836Y-87884940D01*
X103684836Y-87884940D02*
X103637217Y-87837320D01*
X104541979Y-86932559D02*
X104875312Y-87932559D01*
X104875312Y-87932559D02*
X105208645Y-86932559D01*
X102256265Y-91104828D02*
X102399122Y-91152447D01*
X102399122Y-91152447D02*
X102637217Y-91152447D01*
X102637217Y-91152447D02*
X102732455Y-91104828D01*
X102732455Y-91104828D02*
X102780074Y-91057208D01*
X102780074Y-91057208D02*
X102827693Y-90961970D01*
X102827693Y-90961970D02*
X102827693Y-90866732D01*
X102827693Y-90866732D02*
X102780074Y-90771494D01*
X102780074Y-90771494D02*
X102732455Y-90723875D01*
X102732455Y-90723875D02*
X102637217Y-90676256D01*
X102637217Y-90676256D02*
X102446741Y-90628637D01*
X102446741Y-90628637D02*
X102351503Y-90581018D01*
X102351503Y-90581018D02*
X102303884Y-90533399D01*
X102303884Y-90533399D02*
X102256265Y-90438161D01*
X102256265Y-90438161D02*
X102256265Y-90342923D01*
X102256265Y-90342923D02*
X102303884Y-90247685D01*
X102303884Y-90247685D02*
X102351503Y-90200066D01*
X102351503Y-90200066D02*
X102446741Y-90152447D01*
X102446741Y-90152447D02*
X102684836Y-90152447D01*
X102684836Y-90152447D02*
X102827693Y-90200066D01*
X103827693Y-91057208D02*
X103780074Y-91104828D01*
X103780074Y-91104828D02*
X103637217Y-91152447D01*
X103637217Y-91152447D02*
X103541979Y-91152447D01*
X103541979Y-91152447D02*
X103399122Y-91104828D01*
X103399122Y-91104828D02*
X103303884Y-91009589D01*
X103303884Y-91009589D02*
X103256265Y-90914351D01*
X103256265Y-90914351D02*
X103208646Y-90723875D01*
X103208646Y-90723875D02*
X103208646Y-90581018D01*
X103208646Y-90581018D02*
X103256265Y-90390542D01*
X103256265Y-90390542D02*
X103303884Y-90295304D01*
X103303884Y-90295304D02*
X103399122Y-90200066D01*
X103399122Y-90200066D02*
X103541979Y-90152447D01*
X103541979Y-90152447D02*
X103637217Y-90152447D01*
X103637217Y-90152447D02*
X103780074Y-90200066D01*
X103780074Y-90200066D02*
X103827693Y-90247685D01*
X104256265Y-91152447D02*
X104256265Y-90152447D01*
X104827693Y-91152447D02*
X104399122Y-90581018D01*
X104827693Y-90152447D02*
X104256265Y-90723875D01*
X102303884Y-92762391D02*
X102303884Y-91762391D01*
X102303884Y-91762391D02*
X102541979Y-91762391D01*
X102541979Y-91762391D02*
X102684836Y-91810010D01*
X102684836Y-91810010D02*
X102780074Y-91905248D01*
X102780074Y-91905248D02*
X102827693Y-92000486D01*
X102827693Y-92000486D02*
X102875312Y-92190962D01*
X102875312Y-92190962D02*
X102875312Y-92333819D01*
X102875312Y-92333819D02*
X102827693Y-92524295D01*
X102827693Y-92524295D02*
X102780074Y-92619533D01*
X102780074Y-92619533D02*
X102684836Y-92714772D01*
X102684836Y-92714772D02*
X102541979Y-92762391D01*
X102541979Y-92762391D02*
X102303884Y-92762391D01*
X103446741Y-92762391D02*
X103351503Y-92714772D01*
X103351503Y-92714772D02*
X103303884Y-92667152D01*
X103303884Y-92667152D02*
X103256265Y-92571914D01*
X103256265Y-92571914D02*
X103256265Y-92286200D01*
X103256265Y-92286200D02*
X103303884Y-92190962D01*
X103303884Y-92190962D02*
X103351503Y-92143343D01*
X103351503Y-92143343D02*
X103446741Y-92095724D01*
X103446741Y-92095724D02*
X103589598Y-92095724D01*
X103589598Y-92095724D02*
X103684836Y-92143343D01*
X103684836Y-92143343D02*
X103732455Y-92190962D01*
X103732455Y-92190962D02*
X103780074Y-92286200D01*
X103780074Y-92286200D02*
X103780074Y-92571914D01*
X103780074Y-92571914D02*
X103732455Y-92667152D01*
X103732455Y-92667152D02*
X103684836Y-92714772D01*
X103684836Y-92714772D02*
X103589598Y-92762391D01*
X103589598Y-92762391D02*
X103446741Y-92762391D01*
X104637217Y-92095724D02*
X104637217Y-92762391D01*
X104208646Y-92095724D02*
X104208646Y-92619533D01*
X104208646Y-92619533D02*
X104256265Y-92714772D01*
X104256265Y-92714772D02*
X104351503Y-92762391D01*
X104351503Y-92762391D02*
X104494360Y-92762391D01*
X104494360Y-92762391D02*
X104589598Y-92714772D01*
X104589598Y-92714772D02*
X104637217Y-92667152D01*
X104970551Y-92095724D02*
X105351503Y-92095724D01*
X105113408Y-91762391D02*
X105113408Y-92619533D01*
X105113408Y-92619533D02*
X105161027Y-92714772D01*
X105161027Y-92714772D02*
X105256265Y-92762391D01*
X105256265Y-92762391D02*
X105351503Y-92762391D01*
X102827693Y-95029898D02*
X102732455Y-94982279D01*
X102732455Y-94982279D02*
X102589598Y-94982279D01*
X102589598Y-94982279D02*
X102446741Y-95029898D01*
X102446741Y-95029898D02*
X102351503Y-95125136D01*
X102351503Y-95125136D02*
X102303884Y-95220374D01*
X102303884Y-95220374D02*
X102256265Y-95410850D01*
X102256265Y-95410850D02*
X102256265Y-95553707D01*
X102256265Y-95553707D02*
X102303884Y-95744183D01*
X102303884Y-95744183D02*
X102351503Y-95839421D01*
X102351503Y-95839421D02*
X102446741Y-95934660D01*
X102446741Y-95934660D02*
X102589598Y-95982279D01*
X102589598Y-95982279D02*
X102684836Y-95982279D01*
X102684836Y-95982279D02*
X102827693Y-95934660D01*
X102827693Y-95934660D02*
X102875312Y-95887040D01*
X102875312Y-95887040D02*
X102875312Y-95553707D01*
X102875312Y-95553707D02*
X102684836Y-95553707D01*
X103303884Y-95982279D02*
X103303884Y-94982279D01*
X103303884Y-94982279D02*
X103875312Y-95982279D01*
X103875312Y-95982279D02*
X103875312Y-94982279D01*
X104351503Y-95982279D02*
X104351503Y-94982279D01*
X104351503Y-94982279D02*
X104589598Y-94982279D01*
X104589598Y-94982279D02*
X104732455Y-95029898D01*
X104732455Y-95029898D02*
X104827693Y-95125136D01*
X104827693Y-95125136D02*
X104875312Y-95220374D01*
X104875312Y-95220374D02*
X104922931Y-95410850D01*
X104922931Y-95410850D02*
X104922931Y-95553707D01*
X104922931Y-95553707D02*
X104875312Y-95744183D01*
X104875312Y-95744183D02*
X104827693Y-95839421D01*
X104827693Y-95839421D02*
X104732455Y-95934660D01*
X104732455Y-95934660D02*
X104589598Y-95982279D01*
X104589598Y-95982279D02*
X104351503Y-95982279D01*
D11*
X96247724Y-59847540D02*
X100247724Y-59847540D01*
X96247724Y-61347540D02*
X96247724Y-62847540D01*
X96247724Y-61347540D02*
X100247724Y-61347540D01*
X96247724Y-62847540D02*
X100247724Y-62847540D01*
X96247724Y-64347540D02*
X96247724Y-65847540D01*
X96247724Y-65847540D02*
X100247724Y-65847540D01*
X96247724Y-67347540D02*
X96247724Y-68847540D01*
X96247724Y-68847540D02*
X100247724Y-68847540D01*
X100247724Y-59847540D02*
X100247724Y-61347540D01*
X100247724Y-62847540D02*
X100247724Y-64347540D01*
X100247724Y-64347540D02*
X96247724Y-64347540D01*
X100247724Y-65847540D02*
X100247724Y-67347540D01*
X100247724Y-67347540D02*
X96247724Y-67347540D01*
X100247724Y-68847540D02*
X100247724Y-72347540D01*
D10*
X105500000Y-84000000D02*
X105500000Y-82500000D01*
X94219925Y-74357580D02*
X94696115Y-74357580D01*
X94696115Y-74357580D02*
X94696115Y-75357580D01*
X93886591Y-74881390D02*
X93553258Y-74881390D01*
X93410401Y-74357580D02*
X93886591Y-74357580D01*
X93886591Y-74357580D02*
X93886591Y-75357580D01*
X93886591Y-75357580D02*
X93410401Y-75357580D01*
X92981829Y-74357580D02*
X92981829Y-75357580D01*
X92981829Y-75357580D02*
X92743734Y-75357580D01*
X92743734Y-75357580D02*
X92600877Y-75309961D01*
X92600877Y-75309961D02*
X92505639Y-75214723D01*
X92505639Y-75214723D02*
X92458020Y-75119485D01*
X92458020Y-75119485D02*
X92410401Y-74929009D01*
X92410401Y-74929009D02*
X92410401Y-74786152D01*
X92410401Y-74786152D02*
X92458020Y-74595676D01*
X92458020Y-74595676D02*
X92505639Y-74500438D01*
X92505639Y-74500438D02*
X92600877Y-74405200D01*
X92600877Y-74405200D02*
X92743734Y-74357580D01*
X92743734Y-74357580D02*
X92981829Y-74357580D01*
X94743734Y-76945200D02*
X94600877Y-76897580D01*
X94600877Y-76897580D02*
X94362782Y-76897580D01*
X94362782Y-76897580D02*
X94267544Y-76945200D01*
X94267544Y-76945200D02*
X94219925Y-76992819D01*
X94219925Y-76992819D02*
X94172306Y-77088057D01*
X94172306Y-77088057D02*
X94172306Y-77183295D01*
X94172306Y-77183295D02*
X94219925Y-77278533D01*
X94219925Y-77278533D02*
X94267544Y-77326152D01*
X94267544Y-77326152D02*
X94362782Y-77373771D01*
X94362782Y-77373771D02*
X94553258Y-77421390D01*
X94553258Y-77421390D02*
X94648496Y-77469009D01*
X94648496Y-77469009D02*
X94696115Y-77516628D01*
X94696115Y-77516628D02*
X94743734Y-77611866D01*
X94743734Y-77611866D02*
X94743734Y-77707104D01*
X94743734Y-77707104D02*
X94696115Y-77802342D01*
X94696115Y-77802342D02*
X94648496Y-77849961D01*
X94648496Y-77849961D02*
X94553258Y-77897580D01*
X94553258Y-77897580D02*
X94315163Y-77897580D01*
X94315163Y-77897580D02*
X94172306Y-77849961D01*
X93172306Y-76992819D02*
X93219925Y-76945200D01*
X93219925Y-76945200D02*
X93362782Y-76897580D01*
X93362782Y-76897580D02*
X93458020Y-76897580D01*
X93458020Y-76897580D02*
X93600877Y-76945200D01*
X93600877Y-76945200D02*
X93696115Y-77040438D01*
X93696115Y-77040438D02*
X93743734Y-77135676D01*
X93743734Y-77135676D02*
X93791353Y-77326152D01*
X93791353Y-77326152D02*
X93791353Y-77469009D01*
X93791353Y-77469009D02*
X93743734Y-77659485D01*
X93743734Y-77659485D02*
X93696115Y-77754723D01*
X93696115Y-77754723D02*
X93600877Y-77849961D01*
X93600877Y-77849961D02*
X93458020Y-77897580D01*
X93458020Y-77897580D02*
X93362782Y-77897580D01*
X93362782Y-77897580D02*
X93219925Y-77849961D01*
X93219925Y-77849961D02*
X93172306Y-77802342D01*
X92743734Y-76897580D02*
X92743734Y-77897580D01*
X92172306Y-76897580D02*
X92600877Y-77469009D01*
X92172306Y-77897580D02*
X92743734Y-77326152D01*
X94696115Y-79427580D02*
X94696115Y-80427580D01*
X94696115Y-80427580D02*
X94362782Y-79713295D01*
X94362782Y-79713295D02*
X94029449Y-80427580D01*
X94029449Y-80427580D02*
X94029449Y-79427580D01*
X93362782Y-80427580D02*
X93172306Y-80427580D01*
X93172306Y-80427580D02*
X93077068Y-80379961D01*
X93077068Y-80379961D02*
X92981830Y-80284723D01*
X92981830Y-80284723D02*
X92934211Y-80094247D01*
X92934211Y-80094247D02*
X92934211Y-79760914D01*
X92934211Y-79760914D02*
X92981830Y-79570438D01*
X92981830Y-79570438D02*
X93077068Y-79475200D01*
X93077068Y-79475200D02*
X93172306Y-79427580D01*
X93172306Y-79427580D02*
X93362782Y-79427580D01*
X93362782Y-79427580D02*
X93458020Y-79475200D01*
X93458020Y-79475200D02*
X93553258Y-79570438D01*
X93553258Y-79570438D02*
X93600877Y-79760914D01*
X93600877Y-79760914D02*
X93600877Y-80094247D01*
X93600877Y-80094247D02*
X93553258Y-80284723D01*
X93553258Y-80284723D02*
X93458020Y-80379961D01*
X93458020Y-80379961D02*
X93362782Y-80427580D01*
X92553258Y-79475200D02*
X92410401Y-79427580D01*
X92410401Y-79427580D02*
X92172306Y-79427580D01*
X92172306Y-79427580D02*
X92077068Y-79475200D01*
X92077068Y-79475200D02*
X92029449Y-79522819D01*
X92029449Y-79522819D02*
X91981830Y-79618057D01*
X91981830Y-79618057D02*
X91981830Y-79713295D01*
X91981830Y-79713295D02*
X92029449Y-79808533D01*
X92029449Y-79808533D02*
X92077068Y-79856152D01*
X92077068Y-79856152D02*
X92172306Y-79903771D01*
X92172306Y-79903771D02*
X92362782Y-79951390D01*
X92362782Y-79951390D02*
X92458020Y-79999009D01*
X92458020Y-79999009D02*
X92505639Y-80046628D01*
X92505639Y-80046628D02*
X92553258Y-80141866D01*
X92553258Y-80141866D02*
X92553258Y-80237104D01*
X92553258Y-80237104D02*
X92505639Y-80332342D01*
X92505639Y-80332342D02*
X92458020Y-80379961D01*
X92458020Y-80379961D02*
X92362782Y-80427580D01*
X92362782Y-80427580D02*
X92124687Y-80427580D01*
X92124687Y-80427580D02*
X91981830Y-80379961D01*
X91553258Y-79427580D02*
X91553258Y-80427580D01*
X94696115Y-82077580D02*
X94696115Y-83077580D01*
X94696115Y-83077580D02*
X94458020Y-83077580D01*
X94458020Y-83077580D02*
X94315163Y-83029961D01*
X94315163Y-83029961D02*
X94219925Y-82934723D01*
X94219925Y-82934723D02*
X94172306Y-82839485D01*
X94172306Y-82839485D02*
X94124687Y-82649009D01*
X94124687Y-82649009D02*
X94124687Y-82506152D01*
X94124687Y-82506152D02*
X94172306Y-82315676D01*
X94172306Y-82315676D02*
X94219925Y-82220438D01*
X94219925Y-82220438D02*
X94315163Y-82125200D01*
X94315163Y-82125200D02*
X94458020Y-82077580D01*
X94458020Y-82077580D02*
X94696115Y-82077580D01*
X93124687Y-82172819D02*
X93172306Y-82125200D01*
X93172306Y-82125200D02*
X93315163Y-82077580D01*
X93315163Y-82077580D02*
X93410401Y-82077580D01*
X93410401Y-82077580D02*
X93553258Y-82125200D01*
X93553258Y-82125200D02*
X93648496Y-82220438D01*
X93648496Y-82220438D02*
X93696115Y-82315676D01*
X93696115Y-82315676D02*
X93743734Y-82506152D01*
X93743734Y-82506152D02*
X93743734Y-82649009D01*
X93743734Y-82649009D02*
X93696115Y-82839485D01*
X93696115Y-82839485D02*
X93648496Y-82934723D01*
X93648496Y-82934723D02*
X93553258Y-83029961D01*
X93553258Y-83029961D02*
X93410401Y-83077580D01*
X93410401Y-83077580D02*
X93315163Y-83077580D01*
X93315163Y-83077580D02*
X93172306Y-83029961D01*
X93172306Y-83029961D02*
X93124687Y-82982342D01*
X94124687Y-84517580D02*
X94458020Y-84993771D01*
X94696115Y-84517580D02*
X94696115Y-85517580D01*
X94696115Y-85517580D02*
X94315163Y-85517580D01*
X94315163Y-85517580D02*
X94219925Y-85469961D01*
X94219925Y-85469961D02*
X94172306Y-85422342D01*
X94172306Y-85422342D02*
X94124687Y-85327104D01*
X94124687Y-85327104D02*
X94124687Y-85184247D01*
X94124687Y-85184247D02*
X94172306Y-85089009D01*
X94172306Y-85089009D02*
X94219925Y-85041390D01*
X94219925Y-85041390D02*
X94315163Y-84993771D01*
X94315163Y-84993771D02*
X94696115Y-84993771D01*
X93743734Y-84565200D02*
X93600877Y-84517580D01*
X93600877Y-84517580D02*
X93362782Y-84517580D01*
X93362782Y-84517580D02*
X93267544Y-84565200D01*
X93267544Y-84565200D02*
X93219925Y-84612819D01*
X93219925Y-84612819D02*
X93172306Y-84708057D01*
X93172306Y-84708057D02*
X93172306Y-84803295D01*
X93172306Y-84803295D02*
X93219925Y-84898533D01*
X93219925Y-84898533D02*
X93267544Y-84946152D01*
X93267544Y-84946152D02*
X93362782Y-84993771D01*
X93362782Y-84993771D02*
X93553258Y-85041390D01*
X93553258Y-85041390D02*
X93648496Y-85089009D01*
X93648496Y-85089009D02*
X93696115Y-85136628D01*
X93696115Y-85136628D02*
X93743734Y-85231866D01*
X93743734Y-85231866D02*
X93743734Y-85327104D01*
X93743734Y-85327104D02*
X93696115Y-85422342D01*
X93696115Y-85422342D02*
X93648496Y-85469961D01*
X93648496Y-85469961D02*
X93553258Y-85517580D01*
X93553258Y-85517580D02*
X93315163Y-85517580D01*
X93315163Y-85517580D02*
X93172306Y-85469961D01*
X92886591Y-85517580D02*
X92315163Y-85517580D01*
X92600877Y-84517580D02*
X92600877Y-85517580D01*
X94124687Y-87152819D02*
X94172306Y-87105200D01*
X94172306Y-87105200D02*
X94315163Y-87057580D01*
X94315163Y-87057580D02*
X94410401Y-87057580D01*
X94410401Y-87057580D02*
X94553258Y-87105200D01*
X94553258Y-87105200D02*
X94648496Y-87200438D01*
X94648496Y-87200438D02*
X94696115Y-87295676D01*
X94696115Y-87295676D02*
X94743734Y-87486152D01*
X94743734Y-87486152D02*
X94743734Y-87629009D01*
X94743734Y-87629009D02*
X94696115Y-87819485D01*
X94696115Y-87819485D02*
X94648496Y-87914723D01*
X94648496Y-87914723D02*
X94553258Y-88009961D01*
X94553258Y-88009961D02*
X94410401Y-88057580D01*
X94410401Y-88057580D02*
X94315163Y-88057580D01*
X94315163Y-88057580D02*
X94172306Y-88009961D01*
X94172306Y-88009961D02*
X94124687Y-87962342D01*
X93743734Y-87105200D02*
X93600877Y-87057580D01*
X93600877Y-87057580D02*
X93362782Y-87057580D01*
X93362782Y-87057580D02*
X93267544Y-87105200D01*
X93267544Y-87105200D02*
X93219925Y-87152819D01*
X93219925Y-87152819D02*
X93172306Y-87248057D01*
X93172306Y-87248057D02*
X93172306Y-87343295D01*
X93172306Y-87343295D02*
X93219925Y-87438533D01*
X93219925Y-87438533D02*
X93267544Y-87486152D01*
X93267544Y-87486152D02*
X93362782Y-87533771D01*
X93362782Y-87533771D02*
X93553258Y-87581390D01*
X93553258Y-87581390D02*
X93648496Y-87629009D01*
X93648496Y-87629009D02*
X93696115Y-87676628D01*
X93696115Y-87676628D02*
X93743734Y-87771866D01*
X93743734Y-87771866D02*
X93743734Y-87867104D01*
X93743734Y-87867104D02*
X93696115Y-87962342D01*
X93696115Y-87962342D02*
X93648496Y-88009961D01*
X93648496Y-88009961D02*
X93553258Y-88057580D01*
X93553258Y-88057580D02*
X93315163Y-88057580D01*
X93315163Y-88057580D02*
X93172306Y-88009961D01*
X94172306Y-90579961D02*
X94267544Y-90627580D01*
X94267544Y-90627580D02*
X94410401Y-90627580D01*
X94410401Y-90627580D02*
X94553258Y-90579961D01*
X94553258Y-90579961D02*
X94648496Y-90484723D01*
X94648496Y-90484723D02*
X94696115Y-90389485D01*
X94696115Y-90389485D02*
X94743734Y-90199009D01*
X94743734Y-90199009D02*
X94743734Y-90056152D01*
X94743734Y-90056152D02*
X94696115Y-89865676D01*
X94696115Y-89865676D02*
X94648496Y-89770438D01*
X94648496Y-89770438D02*
X94553258Y-89675200D01*
X94553258Y-89675200D02*
X94410401Y-89627580D01*
X94410401Y-89627580D02*
X94315163Y-89627580D01*
X94315163Y-89627580D02*
X94172306Y-89675200D01*
X94172306Y-89675200D02*
X94124687Y-89722819D01*
X94124687Y-89722819D02*
X94124687Y-90056152D01*
X94124687Y-90056152D02*
X94315163Y-90056152D01*
X93696115Y-89627580D02*
X93696115Y-90627580D01*
X93696115Y-90627580D02*
X93124687Y-89627580D01*
X93124687Y-89627580D02*
X93124687Y-90627580D01*
X92648496Y-89627580D02*
X92648496Y-90627580D01*
X92648496Y-90627580D02*
X92410401Y-90627580D01*
X92410401Y-90627580D02*
X92267544Y-90579961D01*
X92267544Y-90579961D02*
X92172306Y-90484723D01*
X92172306Y-90484723D02*
X92124687Y-90389485D01*
X92124687Y-90389485D02*
X92077068Y-90199009D01*
X92077068Y-90199009D02*
X92077068Y-90056152D01*
X92077068Y-90056152D02*
X92124687Y-89865676D01*
X92124687Y-89865676D02*
X92172306Y-89770438D01*
X92172306Y-89770438D02*
X92267544Y-89675200D01*
X92267544Y-89675200D02*
X92410401Y-89627580D01*
X92410401Y-89627580D02*
X92648496Y-89627580D01*
X103899114Y-60151424D02*
X103899114Y-60484757D01*
X103375304Y-60627614D02*
X103375304Y-60151424D01*
X103375304Y-60151424D02*
X104375304Y-60151424D01*
X104375304Y-60151424D02*
X104375304Y-60627614D01*
X103422924Y-61008567D02*
X103375304Y-61151424D01*
X103375304Y-61151424D02*
X103375304Y-61389519D01*
X103375304Y-61389519D02*
X103422924Y-61484757D01*
X103422924Y-61484757D02*
X103470543Y-61532376D01*
X103470543Y-61532376D02*
X103565781Y-61579995D01*
X103565781Y-61579995D02*
X103661019Y-61579995D01*
X103661019Y-61579995D02*
X103756257Y-61532376D01*
X103756257Y-61532376D02*
X103803876Y-61484757D01*
X103803876Y-61484757D02*
X103851495Y-61389519D01*
X103851495Y-61389519D02*
X103899114Y-61199043D01*
X103899114Y-61199043D02*
X103946733Y-61103805D01*
X103946733Y-61103805D02*
X103994352Y-61056186D01*
X103994352Y-61056186D02*
X104089590Y-61008567D01*
X104089590Y-61008567D02*
X104184828Y-61008567D01*
X104184828Y-61008567D02*
X104280066Y-61056186D01*
X104280066Y-61056186D02*
X104327685Y-61103805D01*
X104327685Y-61103805D02*
X104375304Y-61199043D01*
X104375304Y-61199043D02*
X104375304Y-61437138D01*
X104375304Y-61437138D02*
X104327685Y-61579995D01*
X103375304Y-62008567D02*
X104375304Y-62008567D01*
X104375304Y-62008567D02*
X104375304Y-62389519D01*
X104375304Y-62389519D02*
X104327685Y-62484757D01*
X104327685Y-62484757D02*
X104280066Y-62532376D01*
X104280066Y-62532376D02*
X104184828Y-62579995D01*
X104184828Y-62579995D02*
X104041971Y-62579995D01*
X104041971Y-62579995D02*
X103946733Y-62532376D01*
X103946733Y-62532376D02*
X103899114Y-62484757D01*
X103899114Y-62484757D02*
X103851495Y-62389519D01*
X103851495Y-62389519D02*
X103851495Y-62008567D01*
X104375304Y-62913329D02*
X104375304Y-63532376D01*
X104375304Y-63532376D02*
X103994352Y-63199043D01*
X103994352Y-63199043D02*
X103994352Y-63341900D01*
X103994352Y-63341900D02*
X103946733Y-63437138D01*
X103946733Y-63437138D02*
X103899114Y-63484757D01*
X103899114Y-63484757D02*
X103803876Y-63532376D01*
X103803876Y-63532376D02*
X103565781Y-63532376D01*
X103565781Y-63532376D02*
X103470543Y-63484757D01*
X103470543Y-63484757D02*
X103422924Y-63437138D01*
X103422924Y-63437138D02*
X103375304Y-63341900D01*
X103375304Y-63341900D02*
X103375304Y-63056186D01*
X103375304Y-63056186D02*
X103422924Y-62960948D01*
X103422924Y-62960948D02*
X103470543Y-62913329D01*
X104280066Y-63913329D02*
X104327685Y-63960948D01*
X104327685Y-63960948D02*
X104375304Y-64056186D01*
X104375304Y-64056186D02*
X104375304Y-64294281D01*
X104375304Y-64294281D02*
X104327685Y-64389519D01*
X104327685Y-64389519D02*
X104280066Y-64437138D01*
X104280066Y-64437138D02*
X104184828Y-64484757D01*
X104184828Y-64484757D02*
X104089590Y-64484757D01*
X104089590Y-64484757D02*
X103946733Y-64437138D01*
X103946733Y-64437138D02*
X103375304Y-63865710D01*
X103375304Y-63865710D02*
X103375304Y-64484757D01*
X103756257Y-64913329D02*
X103756257Y-65675234D01*
X104375304Y-66056186D02*
X103375304Y-66294281D01*
X103375304Y-66294281D02*
X104089590Y-66484757D01*
X104089590Y-66484757D02*
X103375304Y-66675233D01*
X103375304Y-66675233D02*
X104375304Y-66913329D01*
X103375304Y-67294281D02*
X104041971Y-67294281D01*
X103851495Y-67294281D02*
X103946733Y-67341900D01*
X103946733Y-67341900D02*
X103994352Y-67389519D01*
X103994352Y-67389519D02*
X104041971Y-67484757D01*
X104041971Y-67484757D02*
X104041971Y-67579995D01*
X103375304Y-68056186D02*
X103422924Y-67960948D01*
X103422924Y-67960948D02*
X103470543Y-67913329D01*
X103470543Y-67913329D02*
X103565781Y-67865710D01*
X103565781Y-67865710D02*
X103851495Y-67865710D01*
X103851495Y-67865710D02*
X103946733Y-67913329D01*
X103946733Y-67913329D02*
X103994352Y-67960948D01*
X103994352Y-67960948D02*
X104041971Y-68056186D01*
X104041971Y-68056186D02*
X104041971Y-68199043D01*
X104041971Y-68199043D02*
X103994352Y-68294281D01*
X103994352Y-68294281D02*
X103946733Y-68341900D01*
X103946733Y-68341900D02*
X103851495Y-68389519D01*
X103851495Y-68389519D02*
X103565781Y-68389519D01*
X103565781Y-68389519D02*
X103470543Y-68341900D01*
X103470543Y-68341900D02*
X103422924Y-68294281D01*
X103422924Y-68294281D02*
X103375304Y-68199043D01*
X103375304Y-68199043D02*
X103375304Y-68056186D01*
X103375304Y-68960948D02*
X103422924Y-68865710D01*
X103422924Y-68865710D02*
X103470543Y-68818091D01*
X103470543Y-68818091D02*
X103565781Y-68770472D01*
X103565781Y-68770472D02*
X103851495Y-68770472D01*
X103851495Y-68770472D02*
X103946733Y-68818091D01*
X103946733Y-68818091D02*
X103994352Y-68865710D01*
X103994352Y-68865710D02*
X104041971Y-68960948D01*
X104041971Y-68960948D02*
X104041971Y-69103805D01*
X104041971Y-69103805D02*
X103994352Y-69199043D01*
X103994352Y-69199043D02*
X103946733Y-69246662D01*
X103946733Y-69246662D02*
X103851495Y-69294281D01*
X103851495Y-69294281D02*
X103565781Y-69294281D01*
X103565781Y-69294281D02*
X103470543Y-69246662D01*
X103470543Y-69246662D02*
X103422924Y-69199043D01*
X103422924Y-69199043D02*
X103375304Y-69103805D01*
X103375304Y-69103805D02*
X103375304Y-68960948D01*
X103375304Y-69722853D02*
X104041971Y-69722853D01*
X103946733Y-69722853D02*
X103994352Y-69770472D01*
X103994352Y-69770472D02*
X104041971Y-69865710D01*
X104041971Y-69865710D02*
X104041971Y-70008567D01*
X104041971Y-70008567D02*
X103994352Y-70103805D01*
X103994352Y-70103805D02*
X103899114Y-70151424D01*
X103899114Y-70151424D02*
X103375304Y-70151424D01*
X103899114Y-70151424D02*
X103994352Y-70199043D01*
X103994352Y-70199043D02*
X104041971Y-70294281D01*
X104041971Y-70294281D02*
X104041971Y-70437138D01*
X104041971Y-70437138D02*
X103994352Y-70532377D01*
X103994352Y-70532377D02*
X103899114Y-70579996D01*
X103899114Y-70579996D02*
X103375304Y-70579996D01*
X103756257Y-71056186D02*
X103756257Y-71818091D01*
X104375304Y-72199043D02*
X104375304Y-72818090D01*
X104375304Y-72818090D02*
X103994352Y-72484757D01*
X103994352Y-72484757D02*
X103994352Y-72627614D01*
X103994352Y-72627614D02*
X103946733Y-72722852D01*
X103946733Y-72722852D02*
X103899114Y-72770471D01*
X103899114Y-72770471D02*
X103803876Y-72818090D01*
X103803876Y-72818090D02*
X103565781Y-72818090D01*
X103565781Y-72818090D02*
X103470543Y-72770471D01*
X103470543Y-72770471D02*
X103422924Y-72722852D01*
X103422924Y-72722852D02*
X103375304Y-72627614D01*
X103375304Y-72627614D02*
X103375304Y-72341900D01*
X103375304Y-72341900D02*
X103422924Y-72246662D01*
X103422924Y-72246662D02*
X103470543Y-72199043D01*
X104280066Y-73199043D02*
X104327685Y-73246662D01*
X104327685Y-73246662D02*
X104375304Y-73341900D01*
X104375304Y-73341900D02*
X104375304Y-73579995D01*
X104375304Y-73579995D02*
X104327685Y-73675233D01*
X104327685Y-73675233D02*
X104280066Y-73722852D01*
X104280066Y-73722852D02*
X104184828Y-73770471D01*
X104184828Y-73770471D02*
X104089590Y-73770471D01*
X104089590Y-73770471D02*
X103946733Y-73722852D01*
X103946733Y-73722852D02*
X103375304Y-73151424D01*
X103375304Y-73151424D02*
X103375304Y-73770471D01*
D12*
X94822525Y-93128880D02*
X94489192Y-92128880D01*
X94489192Y-92128880D02*
X94155859Y-93128880D01*
X93251097Y-92224119D02*
X93298716Y-92176500D01*
X93298716Y-92176500D02*
X93441573Y-92128880D01*
X93441573Y-92128880D02*
X93536811Y-92128880D01*
X93536811Y-92128880D02*
X93679668Y-92176500D01*
X93679668Y-92176500D02*
X93774906Y-92271738D01*
X93774906Y-92271738D02*
X93822525Y-92366976D01*
X93822525Y-92366976D02*
X93870144Y-92557452D01*
X93870144Y-92557452D02*
X93870144Y-92700309D01*
X93870144Y-92700309D02*
X93822525Y-92890785D01*
X93822525Y-92890785D02*
X93774906Y-92986023D01*
X93774906Y-92986023D02*
X93679668Y-93081261D01*
X93679668Y-93081261D02*
X93536811Y-93128880D01*
X93536811Y-93128880D02*
X93441573Y-93128880D01*
X93441573Y-93128880D02*
X93298716Y-93081261D01*
X93298716Y-93081261D02*
X93251097Y-93033642D01*
X92251097Y-92224119D02*
X92298716Y-92176500D01*
X92298716Y-92176500D02*
X92441573Y-92128880D01*
X92441573Y-92128880D02*
X92536811Y-92128880D01*
X92536811Y-92128880D02*
X92679668Y-92176500D01*
X92679668Y-92176500D02*
X92774906Y-92271738D01*
X92774906Y-92271738D02*
X92822525Y-92366976D01*
X92822525Y-92366976D02*
X92870144Y-92557452D01*
X92870144Y-92557452D02*
X92870144Y-92700309D01*
X92870144Y-92700309D02*
X92822525Y-92890785D01*
X92822525Y-92890785D02*
X92774906Y-92986023D01*
X92774906Y-92986023D02*
X92679668Y-93081261D01*
X92679668Y-93081261D02*
X92536811Y-93128880D01*
X92536811Y-93128880D02*
X92441573Y-93128880D01*
X92441573Y-93128880D02*
X92298716Y-93081261D01*
X92298716Y-93081261D02*
X92251097Y-93033642D01*
D13*
X89166666Y-94724819D02*
X89166666Y-95439104D01*
X89166666Y-95439104D02*
X89119047Y-95581961D01*
X89119047Y-95581961D02*
X89023809Y-95677200D01*
X89023809Y-95677200D02*
X88880952Y-95724819D01*
X88880952Y-95724819D02*
X88785714Y-95724819D01*
X90119047Y-94724819D02*
X89642857Y-94724819D01*
X89642857Y-94724819D02*
X89595238Y-95201009D01*
X89595238Y-95201009D02*
X89642857Y-95153390D01*
X89642857Y-95153390D02*
X89738095Y-95105771D01*
X89738095Y-95105771D02*
X89976190Y-95105771D01*
X89976190Y-95105771D02*
X90071428Y-95153390D01*
X90071428Y-95153390D02*
X90119047Y-95201009D01*
X90119047Y-95201009D02*
X90166666Y-95296247D01*
X90166666Y-95296247D02*
X90166666Y-95534342D01*
X90166666Y-95534342D02*
X90119047Y-95629580D01*
X90119047Y-95629580D02*
X90071428Y-95677200D01*
X90071428Y-95677200D02*
X89976190Y-95724819D01*
X89976190Y-95724819D02*
X89738095Y-95724819D01*
X89738095Y-95724819D02*
X89642857Y-95677200D01*
X89642857Y-95677200D02*
X89595238Y-95629580D01*
X135166666Y-83684819D02*
X135166666Y-84399104D01*
X135166666Y-84399104D02*
X135119047Y-84541961D01*
X135119047Y-84541961D02*
X135023809Y-84637200D01*
X135023809Y-84637200D02*
X134880952Y-84684819D01*
X134880952Y-84684819D02*
X134785714Y-84684819D01*
X136166666Y-84684819D02*
X135595238Y-84684819D01*
X135880952Y-84684819D02*
X135880952Y-83684819D01*
X135880952Y-83684819D02*
X135785714Y-83827676D01*
X135785714Y-83827676D02*
X135690476Y-83922914D01*
X135690476Y-83922914D02*
X135595238Y-83970533D01*
X99366721Y-65969444D02*
X100176244Y-65969444D01*
X100176244Y-65969444D02*
X100271482Y-65921825D01*
X100271482Y-65921825D02*
X100319102Y-65874206D01*
X100319102Y-65874206D02*
X100366721Y-65778968D01*
X100366721Y-65778968D02*
X100366721Y-65588492D01*
X100366721Y-65588492D02*
X100319102Y-65493254D01*
X100319102Y-65493254D02*
X100271482Y-65445635D01*
X100271482Y-65445635D02*
X100176244Y-65398016D01*
X100176244Y-65398016D02*
X99366721Y-65398016D01*
X99461959Y-64969444D02*
X99414340Y-64921825D01*
X99414340Y-64921825D02*
X99366721Y-64826587D01*
X99366721Y-64826587D02*
X99366721Y-64588492D01*
X99366721Y-64588492D02*
X99414340Y-64493254D01*
X99414340Y-64493254D02*
X99461959Y-64445635D01*
X99461959Y-64445635D02*
X99557197Y-64398016D01*
X99557197Y-64398016D02*
X99652435Y-64398016D01*
X99652435Y-64398016D02*
X99795292Y-64445635D01*
X99795292Y-64445635D02*
X100366721Y-65017063D01*
X100366721Y-65017063D02*
X100366721Y-64398016D01*
D10*
X104242279Y-55786642D02*
X103561326Y-55786642D01*
X103561326Y-55786642D02*
X103927993Y-55405690D01*
X103927993Y-55405690D02*
X103770850Y-55405690D01*
X103770850Y-55405690D02*
X103666088Y-55358071D01*
X103666088Y-55358071D02*
X103613707Y-55310452D01*
X103613707Y-55310452D02*
X103561326Y-55215214D01*
X103561326Y-55215214D02*
X103561326Y-54977119D01*
X103561326Y-54977119D02*
X103613707Y-54881881D01*
X103613707Y-54881881D02*
X103666088Y-54834262D01*
X103666088Y-54834262D02*
X103770850Y-54786642D01*
X103770850Y-54786642D02*
X104085136Y-54786642D01*
X104085136Y-54786642D02*
X104189898Y-54834262D01*
X104189898Y-54834262D02*
X104242279Y-54881881D01*
X102880374Y-55786642D02*
X102775612Y-55786642D01*
X102775612Y-55786642D02*
X102670850Y-55739023D01*
X102670850Y-55739023D02*
X102618469Y-55691404D01*
X102618469Y-55691404D02*
X102566088Y-55596166D01*
X102566088Y-55596166D02*
X102513707Y-55405690D01*
X102513707Y-55405690D02*
X102513707Y-55167595D01*
X102513707Y-55167595D02*
X102566088Y-54977119D01*
X102566088Y-54977119D02*
X102618469Y-54881881D01*
X102618469Y-54881881D02*
X102670850Y-54834262D01*
X102670850Y-54834262D02*
X102775612Y-54786642D01*
X102775612Y-54786642D02*
X102880374Y-54786642D01*
X102880374Y-54786642D02*
X102985136Y-54834262D01*
X102985136Y-54834262D02*
X103037517Y-54881881D01*
X103037517Y-54881881D02*
X103089898Y-54977119D01*
X103089898Y-54977119D02*
X103142279Y-55167595D01*
X103142279Y-55167595D02*
X103142279Y-55405690D01*
X103142279Y-55405690D02*
X103089898Y-55596166D01*
X103089898Y-55596166D02*
X103037517Y-55691404D01*
X103037517Y-55691404D02*
X102985136Y-55739023D01*
X102985136Y-55739023D02*
X102880374Y-55786642D01*
X103960403Y-75989703D02*
X104588975Y-75989703D01*
X104274689Y-75989703D02*
X104274689Y-76989703D01*
X104274689Y-76989703D02*
X104379451Y-76846846D01*
X104379451Y-76846846D02*
X104484213Y-76751608D01*
X104484213Y-76751608D02*
X104588975Y-76703989D01*
X102965165Y-76989703D02*
X103488975Y-76989703D01*
X103488975Y-76989703D02*
X103541356Y-76513513D01*
X103541356Y-76513513D02*
X103488975Y-76561132D01*
X103488975Y-76561132D02*
X103384213Y-76608751D01*
X103384213Y-76608751D02*
X103122308Y-76608751D01*
X103122308Y-76608751D02*
X103017546Y-76561132D01*
X103017546Y-76561132D02*
X102965165Y-76513513D01*
X102965165Y-76513513D02*
X102912784Y-76418275D01*
X102912784Y-76418275D02*
X102912784Y-76180180D01*
X102912784Y-76180180D02*
X102965165Y-76084942D01*
X102965165Y-76084942D02*
X103017546Y-76037323D01*
X103017546Y-76037323D02*
X103122308Y-75989703D01*
X103122308Y-75989703D02*
X103384213Y-75989703D01*
X103384213Y-75989703D02*
X103488975Y-76037323D01*
X103488975Y-76037323D02*
X103541356Y-76084942D01*
X106729898Y-55691404D02*
X106677517Y-55739023D01*
X106677517Y-55739023D02*
X106572755Y-55786642D01*
X106572755Y-55786642D02*
X106310850Y-55786642D01*
X106310850Y-55786642D02*
X106206088Y-55739023D01*
X106206088Y-55739023D02*
X106153707Y-55691404D01*
X106153707Y-55691404D02*
X106101326Y-55596166D01*
X106101326Y-55596166D02*
X106101326Y-55500928D01*
X106101326Y-55500928D02*
X106153707Y-55358071D01*
X106153707Y-55358071D02*
X106782279Y-54786642D01*
X106782279Y-54786642D02*
X106101326Y-54786642D01*
X105577517Y-54786642D02*
X105367993Y-54786642D01*
X105367993Y-54786642D02*
X105263231Y-54834262D01*
X105263231Y-54834262D02*
X105210850Y-54881881D01*
X105210850Y-54881881D02*
X105106088Y-55024738D01*
X105106088Y-55024738D02*
X105053707Y-55215214D01*
X105053707Y-55215214D02*
X105053707Y-55596166D01*
X105053707Y-55596166D02*
X105106088Y-55691404D01*
X105106088Y-55691404D02*
X105158469Y-55739023D01*
X105158469Y-55739023D02*
X105263231Y-55786642D01*
X105263231Y-55786642D02*
X105472755Y-55786642D01*
X105472755Y-55786642D02*
X105577517Y-55739023D01*
X105577517Y-55739023D02*
X105629898Y-55691404D01*
X105629898Y-55691404D02*
X105682279Y-55596166D01*
X105682279Y-55596166D02*
X105682279Y-55358071D01*
X105682279Y-55358071D02*
X105629898Y-55262833D01*
X105629898Y-55262833D02*
X105577517Y-55215214D01*
X105577517Y-55215214D02*
X105472755Y-55167595D01*
X105472755Y-55167595D02*
X105263231Y-55167595D01*
X105263231Y-55167595D02*
X105158469Y-55215214D01*
X105158469Y-55215214D02*
X105106088Y-55262833D01*
X105106088Y-55262833D02*
X105053707Y-55358071D01*
X106500403Y-75989703D02*
X107128975Y-75989703D01*
X106814689Y-75989703D02*
X106814689Y-76989703D01*
X106814689Y-76989703D02*
X106919451Y-76846846D01*
X106919451Y-76846846D02*
X107024213Y-76751608D01*
X107024213Y-76751608D02*
X107128975Y-76703989D01*
X105557546Y-76656370D02*
X105557546Y-75989703D01*
X105819451Y-77037323D02*
X106081356Y-76323037D01*
X106081356Y-76323037D02*
X105400403Y-76323037D01*
X109269898Y-55691404D02*
X109217517Y-55739023D01*
X109217517Y-55739023D02*
X109112755Y-55786642D01*
X109112755Y-55786642D02*
X108850850Y-55786642D01*
X108850850Y-55786642D02*
X108746088Y-55739023D01*
X108746088Y-55739023D02*
X108693707Y-55691404D01*
X108693707Y-55691404D02*
X108641326Y-55596166D01*
X108641326Y-55596166D02*
X108641326Y-55500928D01*
X108641326Y-55500928D02*
X108693707Y-55358071D01*
X108693707Y-55358071D02*
X109322279Y-54786642D01*
X109322279Y-54786642D02*
X108641326Y-54786642D01*
X108012755Y-55358071D02*
X108117517Y-55405690D01*
X108117517Y-55405690D02*
X108169898Y-55453309D01*
X108169898Y-55453309D02*
X108222279Y-55548547D01*
X108222279Y-55548547D02*
X108222279Y-55596166D01*
X108222279Y-55596166D02*
X108169898Y-55691404D01*
X108169898Y-55691404D02*
X108117517Y-55739023D01*
X108117517Y-55739023D02*
X108012755Y-55786642D01*
X108012755Y-55786642D02*
X107803231Y-55786642D01*
X107803231Y-55786642D02*
X107698469Y-55739023D01*
X107698469Y-55739023D02*
X107646088Y-55691404D01*
X107646088Y-55691404D02*
X107593707Y-55596166D01*
X107593707Y-55596166D02*
X107593707Y-55548547D01*
X107593707Y-55548547D02*
X107646088Y-55453309D01*
X107646088Y-55453309D02*
X107698469Y-55405690D01*
X107698469Y-55405690D02*
X107803231Y-55358071D01*
X107803231Y-55358071D02*
X108012755Y-55358071D01*
X108012755Y-55358071D02*
X108117517Y-55310452D01*
X108117517Y-55310452D02*
X108169898Y-55262833D01*
X108169898Y-55262833D02*
X108222279Y-55167595D01*
X108222279Y-55167595D02*
X108222279Y-54977119D01*
X108222279Y-54977119D02*
X108169898Y-54881881D01*
X108169898Y-54881881D02*
X108117517Y-54834262D01*
X108117517Y-54834262D02*
X108012755Y-54786642D01*
X108012755Y-54786642D02*
X107803231Y-54786642D01*
X107803231Y-54786642D02*
X107698469Y-54834262D01*
X107698469Y-54834262D02*
X107646088Y-54881881D01*
X107646088Y-54881881D02*
X107593707Y-54977119D01*
X107593707Y-54977119D02*
X107593707Y-55167595D01*
X107593707Y-55167595D02*
X107646088Y-55262833D01*
X107646088Y-55262833D02*
X107698469Y-55310452D01*
X107698469Y-55310452D02*
X107803231Y-55358071D01*
X109040403Y-75989703D02*
X109668975Y-75989703D01*
X109354689Y-75989703D02*
X109354689Y-76989703D01*
X109354689Y-76989703D02*
X109459451Y-76846846D01*
X109459451Y-76846846D02*
X109564213Y-76751608D01*
X109564213Y-76751608D02*
X109668975Y-76703989D01*
X108673737Y-76989703D02*
X107992784Y-76989703D01*
X107992784Y-76989703D02*
X108359451Y-76608751D01*
X108359451Y-76608751D02*
X108202308Y-76608751D01*
X108202308Y-76608751D02*
X108097546Y-76561132D01*
X108097546Y-76561132D02*
X108045165Y-76513513D01*
X108045165Y-76513513D02*
X107992784Y-76418275D01*
X107992784Y-76418275D02*
X107992784Y-76180180D01*
X107992784Y-76180180D02*
X108045165Y-76084942D01*
X108045165Y-76084942D02*
X108097546Y-76037323D01*
X108097546Y-76037323D02*
X108202308Y-75989703D01*
X108202308Y-75989703D02*
X108516594Y-75989703D01*
X108516594Y-75989703D02*
X108621356Y-76037323D01*
X108621356Y-76037323D02*
X108673737Y-76084942D01*
X111697958Y-55686051D02*
X111645577Y-55733670D01*
X111645577Y-55733670D02*
X111540815Y-55781289D01*
X111540815Y-55781289D02*
X111278910Y-55781289D01*
X111278910Y-55781289D02*
X111174148Y-55733670D01*
X111174148Y-55733670D02*
X111121767Y-55686051D01*
X111121767Y-55686051D02*
X111069386Y-55590813D01*
X111069386Y-55590813D02*
X111069386Y-55495575D01*
X111069386Y-55495575D02*
X111121767Y-55352718D01*
X111121767Y-55352718D02*
X111750339Y-54781289D01*
X111750339Y-54781289D02*
X111069386Y-54781289D01*
X110702720Y-55781289D02*
X109969386Y-55781289D01*
X109969386Y-55781289D02*
X110440815Y-54781289D01*
X111580403Y-75989703D02*
X112208975Y-75989703D01*
X111894689Y-75989703D02*
X111894689Y-76989703D01*
X111894689Y-76989703D02*
X111999451Y-76846846D01*
X111999451Y-76846846D02*
X112104213Y-76751608D01*
X112104213Y-76751608D02*
X112208975Y-76703989D01*
X111161356Y-76894465D02*
X111108975Y-76942084D01*
X111108975Y-76942084D02*
X111004213Y-76989703D01*
X111004213Y-76989703D02*
X110742308Y-76989703D01*
X110742308Y-76989703D02*
X110637546Y-76942084D01*
X110637546Y-76942084D02*
X110585165Y-76894465D01*
X110585165Y-76894465D02*
X110532784Y-76799227D01*
X110532784Y-76799227D02*
X110532784Y-76703989D01*
X110532784Y-76703989D02*
X110585165Y-76561132D01*
X110585165Y-76561132D02*
X111213737Y-75989703D01*
X111213737Y-75989703D02*
X110532784Y-75989703D01*
X114237958Y-55686051D02*
X114185577Y-55733670D01*
X114185577Y-55733670D02*
X114080815Y-55781289D01*
X114080815Y-55781289D02*
X113818910Y-55781289D01*
X113818910Y-55781289D02*
X113714148Y-55733670D01*
X113714148Y-55733670D02*
X113661767Y-55686051D01*
X113661767Y-55686051D02*
X113609386Y-55590813D01*
X113609386Y-55590813D02*
X113609386Y-55495575D01*
X113609386Y-55495575D02*
X113661767Y-55352718D01*
X113661767Y-55352718D02*
X114290339Y-54781289D01*
X114290339Y-54781289D02*
X113609386Y-54781289D01*
X112666529Y-55781289D02*
X112876053Y-55781289D01*
X112876053Y-55781289D02*
X112980815Y-55733670D01*
X112980815Y-55733670D02*
X113033196Y-55686051D01*
X113033196Y-55686051D02*
X113137958Y-55543194D01*
X113137958Y-55543194D02*
X113190339Y-55352718D01*
X113190339Y-55352718D02*
X113190339Y-54971766D01*
X113190339Y-54971766D02*
X113137958Y-54876528D01*
X113137958Y-54876528D02*
X113085577Y-54828909D01*
X113085577Y-54828909D02*
X112980815Y-54781289D01*
X112980815Y-54781289D02*
X112771291Y-54781289D01*
X112771291Y-54781289D02*
X112666529Y-54828909D01*
X112666529Y-54828909D02*
X112614148Y-54876528D01*
X112614148Y-54876528D02*
X112561767Y-54971766D01*
X112561767Y-54971766D02*
X112561767Y-55209861D01*
X112561767Y-55209861D02*
X112614148Y-55305099D01*
X112614148Y-55305099D02*
X112666529Y-55352718D01*
X112666529Y-55352718D02*
X112771291Y-55400337D01*
X112771291Y-55400337D02*
X112980815Y-55400337D01*
X112980815Y-55400337D02*
X113085577Y-55352718D01*
X113085577Y-55352718D02*
X113137958Y-55305099D01*
X113137958Y-55305099D02*
X113190339Y-55209861D01*
X114120403Y-75989703D02*
X114748975Y-75989703D01*
X114434689Y-75989703D02*
X114434689Y-76989703D01*
X114434689Y-76989703D02*
X114539451Y-76846846D01*
X114539451Y-76846846D02*
X114644213Y-76751608D01*
X114644213Y-76751608D02*
X114748975Y-76703989D01*
X113072784Y-75989703D02*
X113701356Y-75989703D01*
X113387070Y-75989703D02*
X113387070Y-76989703D01*
X113387070Y-76989703D02*
X113491832Y-76846846D01*
X113491832Y-76846846D02*
X113596594Y-76751608D01*
X113596594Y-76751608D02*
X113701356Y-76703989D01*
X116777958Y-55686051D02*
X116725577Y-55733670D01*
X116725577Y-55733670D02*
X116620815Y-55781289D01*
X116620815Y-55781289D02*
X116358910Y-55781289D01*
X116358910Y-55781289D02*
X116254148Y-55733670D01*
X116254148Y-55733670D02*
X116201767Y-55686051D01*
X116201767Y-55686051D02*
X116149386Y-55590813D01*
X116149386Y-55590813D02*
X116149386Y-55495575D01*
X116149386Y-55495575D02*
X116201767Y-55352718D01*
X116201767Y-55352718D02*
X116830339Y-54781289D01*
X116830339Y-54781289D02*
X116149386Y-54781289D01*
X115154148Y-55781289D02*
X115677958Y-55781289D01*
X115677958Y-55781289D02*
X115730339Y-55305099D01*
X115730339Y-55305099D02*
X115677958Y-55352718D01*
X115677958Y-55352718D02*
X115573196Y-55400337D01*
X115573196Y-55400337D02*
X115311291Y-55400337D01*
X115311291Y-55400337D02*
X115206529Y-55352718D01*
X115206529Y-55352718D02*
X115154148Y-55305099D01*
X115154148Y-55305099D02*
X115101767Y-55209861D01*
X115101767Y-55209861D02*
X115101767Y-54971766D01*
X115101767Y-54971766D02*
X115154148Y-54876528D01*
X115154148Y-54876528D02*
X115206529Y-54828909D01*
X115206529Y-54828909D02*
X115311291Y-54781289D01*
X115311291Y-54781289D02*
X115573196Y-54781289D01*
X115573196Y-54781289D02*
X115677958Y-54828909D01*
X115677958Y-54828909D02*
X115730339Y-54876528D01*
X116660403Y-75989703D02*
X117288975Y-75989703D01*
X116974689Y-75989703D02*
X116974689Y-76989703D01*
X116974689Y-76989703D02*
X117079451Y-76846846D01*
X117079451Y-76846846D02*
X117184213Y-76751608D01*
X117184213Y-76751608D02*
X117288975Y-76703989D01*
X115979451Y-76989703D02*
X115874689Y-76989703D01*
X115874689Y-76989703D02*
X115769927Y-76942084D01*
X115769927Y-76942084D02*
X115717546Y-76894465D01*
X115717546Y-76894465D02*
X115665165Y-76799227D01*
X115665165Y-76799227D02*
X115612784Y-76608751D01*
X115612784Y-76608751D02*
X115612784Y-76370656D01*
X115612784Y-76370656D02*
X115665165Y-76180180D01*
X115665165Y-76180180D02*
X115717546Y-76084942D01*
X115717546Y-76084942D02*
X115769927Y-76037323D01*
X115769927Y-76037323D02*
X115874689Y-75989703D01*
X115874689Y-75989703D02*
X115979451Y-75989703D01*
X115979451Y-75989703D02*
X116084213Y-76037323D01*
X116084213Y-76037323D02*
X116136594Y-76084942D01*
X116136594Y-76084942D02*
X116188975Y-76180180D01*
X116188975Y-76180180D02*
X116241356Y-76370656D01*
X116241356Y-76370656D02*
X116241356Y-76608751D01*
X116241356Y-76608751D02*
X116188975Y-76799227D01*
X116188975Y-76799227D02*
X116136594Y-76894465D01*
X116136594Y-76894465D02*
X116084213Y-76942084D01*
X116084213Y-76942084D02*
X115979451Y-76989703D01*
X119175913Y-75928710D02*
X118966389Y-75928710D01*
X118966389Y-75928710D02*
X118861627Y-75976330D01*
X118861627Y-75976330D02*
X118809246Y-76023949D01*
X118809246Y-76023949D02*
X118704484Y-76166806D01*
X118704484Y-76166806D02*
X118652103Y-76357282D01*
X118652103Y-76357282D02*
X118652103Y-76738234D01*
X118652103Y-76738234D02*
X118704484Y-76833472D01*
X118704484Y-76833472D02*
X118756865Y-76881091D01*
X118756865Y-76881091D02*
X118861627Y-76928710D01*
X118861627Y-76928710D02*
X119071151Y-76928710D01*
X119071151Y-76928710D02*
X119175913Y-76881091D01*
X119175913Y-76881091D02*
X119228294Y-76833472D01*
X119228294Y-76833472D02*
X119280675Y-76738234D01*
X119280675Y-76738234D02*
X119280675Y-76500139D01*
X119280675Y-76500139D02*
X119228294Y-76404901D01*
X119228294Y-76404901D02*
X119175913Y-76357282D01*
X119175913Y-76357282D02*
X119071151Y-76309663D01*
X119071151Y-76309663D02*
X118861627Y-76309663D01*
X118861627Y-76309663D02*
X118756865Y-76357282D01*
X118756865Y-76357282D02*
X118704484Y-76404901D01*
X118704484Y-76404901D02*
X118652103Y-76500139D01*
X119317958Y-55686051D02*
X119265577Y-55733670D01*
X119265577Y-55733670D02*
X119160815Y-55781289D01*
X119160815Y-55781289D02*
X118898910Y-55781289D01*
X118898910Y-55781289D02*
X118794148Y-55733670D01*
X118794148Y-55733670D02*
X118741767Y-55686051D01*
X118741767Y-55686051D02*
X118689386Y-55590813D01*
X118689386Y-55590813D02*
X118689386Y-55495575D01*
X118689386Y-55495575D02*
X118741767Y-55352718D01*
X118741767Y-55352718D02*
X119370339Y-54781289D01*
X119370339Y-54781289D02*
X118689386Y-54781289D01*
X117746529Y-55447956D02*
X117746529Y-54781289D01*
X118008434Y-55828909D02*
X118270339Y-55114623D01*
X118270339Y-55114623D02*
X117589386Y-55114623D01*
X121611151Y-76500139D02*
X121715913Y-76547758D01*
X121715913Y-76547758D02*
X121768294Y-76595377D01*
X121768294Y-76595377D02*
X121820675Y-76690615D01*
X121820675Y-76690615D02*
X121820675Y-76738234D01*
X121820675Y-76738234D02*
X121768294Y-76833472D01*
X121768294Y-76833472D02*
X121715913Y-76881091D01*
X121715913Y-76881091D02*
X121611151Y-76928710D01*
X121611151Y-76928710D02*
X121401627Y-76928710D01*
X121401627Y-76928710D02*
X121296865Y-76881091D01*
X121296865Y-76881091D02*
X121244484Y-76833472D01*
X121244484Y-76833472D02*
X121192103Y-76738234D01*
X121192103Y-76738234D02*
X121192103Y-76690615D01*
X121192103Y-76690615D02*
X121244484Y-76595377D01*
X121244484Y-76595377D02*
X121296865Y-76547758D01*
X121296865Y-76547758D02*
X121401627Y-76500139D01*
X121401627Y-76500139D02*
X121611151Y-76500139D01*
X121611151Y-76500139D02*
X121715913Y-76452520D01*
X121715913Y-76452520D02*
X121768294Y-76404901D01*
X121768294Y-76404901D02*
X121820675Y-76309663D01*
X121820675Y-76309663D02*
X121820675Y-76119187D01*
X121820675Y-76119187D02*
X121768294Y-76023949D01*
X121768294Y-76023949D02*
X121715913Y-75976330D01*
X121715913Y-75976330D02*
X121611151Y-75928710D01*
X121611151Y-75928710D02*
X121401627Y-75928710D01*
X121401627Y-75928710D02*
X121296865Y-75976330D01*
X121296865Y-75976330D02*
X121244484Y-76023949D01*
X121244484Y-76023949D02*
X121192103Y-76119187D01*
X121192103Y-76119187D02*
X121192103Y-76309663D01*
X121192103Y-76309663D02*
X121244484Y-76404901D01*
X121244484Y-76404901D02*
X121296865Y-76452520D01*
X121296865Y-76452520D02*
X121401627Y-76500139D01*
X121857958Y-55686051D02*
X121805577Y-55733670D01*
X121805577Y-55733670D02*
X121700815Y-55781289D01*
X121700815Y-55781289D02*
X121438910Y-55781289D01*
X121438910Y-55781289D02*
X121334148Y-55733670D01*
X121334148Y-55733670D02*
X121281767Y-55686051D01*
X121281767Y-55686051D02*
X121229386Y-55590813D01*
X121229386Y-55590813D02*
X121229386Y-55495575D01*
X121229386Y-55495575D02*
X121281767Y-55352718D01*
X121281767Y-55352718D02*
X121910339Y-54781289D01*
X121910339Y-54781289D02*
X121229386Y-54781289D01*
X120862720Y-55781289D02*
X120181767Y-55781289D01*
X120181767Y-55781289D02*
X120548434Y-55400337D01*
X120548434Y-55400337D02*
X120391291Y-55400337D01*
X120391291Y-55400337D02*
X120286529Y-55352718D01*
X120286529Y-55352718D02*
X120234148Y-55305099D01*
X120234148Y-55305099D02*
X120181767Y-55209861D01*
X120181767Y-55209861D02*
X120181767Y-54971766D01*
X120181767Y-54971766D02*
X120234148Y-54876528D01*
X120234148Y-54876528D02*
X120286529Y-54828909D01*
X120286529Y-54828909D02*
X120391291Y-54781289D01*
X120391291Y-54781289D02*
X120705577Y-54781289D01*
X120705577Y-54781289D02*
X120810339Y-54828909D01*
X120810339Y-54828909D02*
X120862720Y-54876528D01*
X124413056Y-76928710D02*
X123679722Y-76928710D01*
X123679722Y-76928710D02*
X124151151Y-75928710D01*
X124397958Y-55686051D02*
X124345577Y-55733670D01*
X124345577Y-55733670D02*
X124240815Y-55781289D01*
X124240815Y-55781289D02*
X123978910Y-55781289D01*
X123978910Y-55781289D02*
X123874148Y-55733670D01*
X123874148Y-55733670D02*
X123821767Y-55686051D01*
X123821767Y-55686051D02*
X123769386Y-55590813D01*
X123769386Y-55590813D02*
X123769386Y-55495575D01*
X123769386Y-55495575D02*
X123821767Y-55352718D01*
X123821767Y-55352718D02*
X124450339Y-54781289D01*
X124450339Y-54781289D02*
X123769386Y-54781289D01*
X123350339Y-55686051D02*
X123297958Y-55733670D01*
X123297958Y-55733670D02*
X123193196Y-55781289D01*
X123193196Y-55781289D02*
X122931291Y-55781289D01*
X122931291Y-55781289D02*
X122826529Y-55733670D01*
X122826529Y-55733670D02*
X122774148Y-55686051D01*
X122774148Y-55686051D02*
X122721767Y-55590813D01*
X122721767Y-55590813D02*
X122721767Y-55495575D01*
X122721767Y-55495575D02*
X122774148Y-55352718D01*
X122774148Y-55352718D02*
X123402720Y-54781289D01*
X123402720Y-54781289D02*
X122721767Y-54781289D01*
X126837004Y-55630799D02*
X126784623Y-55678418D01*
X126784623Y-55678418D02*
X126679861Y-55726037D01*
X126679861Y-55726037D02*
X126417956Y-55726037D01*
X126417956Y-55726037D02*
X126313194Y-55678418D01*
X126313194Y-55678418D02*
X126260813Y-55630799D01*
X126260813Y-55630799D02*
X126208432Y-55535561D01*
X126208432Y-55535561D02*
X126208432Y-55440323D01*
X126208432Y-55440323D02*
X126260813Y-55297466D01*
X126260813Y-55297466D02*
X126889385Y-54726037D01*
X126889385Y-54726037D02*
X126208432Y-54726037D01*
X125160813Y-54726037D02*
X125789385Y-54726037D01*
X125475099Y-54726037D02*
X125475099Y-55726037D01*
X125475099Y-55726037D02*
X125579861Y-55583180D01*
X125579861Y-55583180D02*
X125684623Y-55487942D01*
X125684623Y-55487942D02*
X125789385Y-55440323D01*
X126376865Y-76928710D02*
X126586389Y-76928710D01*
X126586389Y-76928710D02*
X126691151Y-76881091D01*
X126691151Y-76881091D02*
X126743532Y-76833472D01*
X126743532Y-76833472D02*
X126848294Y-76690615D01*
X126848294Y-76690615D02*
X126900675Y-76500139D01*
X126900675Y-76500139D02*
X126900675Y-76119187D01*
X126900675Y-76119187D02*
X126848294Y-76023949D01*
X126848294Y-76023949D02*
X126795913Y-75976330D01*
X126795913Y-75976330D02*
X126691151Y-75928710D01*
X126691151Y-75928710D02*
X126481627Y-75928710D01*
X126481627Y-75928710D02*
X126376865Y-75976330D01*
X126376865Y-75976330D02*
X126324484Y-76023949D01*
X126324484Y-76023949D02*
X126272103Y-76119187D01*
X126272103Y-76119187D02*
X126272103Y-76357282D01*
X126272103Y-76357282D02*
X126324484Y-76452520D01*
X126324484Y-76452520D02*
X126376865Y-76500139D01*
X126376865Y-76500139D02*
X126481627Y-76547758D01*
X126481627Y-76547758D02*
X126691151Y-76547758D01*
X126691151Y-76547758D02*
X126795913Y-76500139D01*
X126795913Y-76500139D02*
X126848294Y-76452520D01*
X126848294Y-76452520D02*
X126900675Y-76357282D01*
X129377004Y-55630799D02*
X129324623Y-55678418D01*
X129324623Y-55678418D02*
X129219861Y-55726037D01*
X129219861Y-55726037D02*
X128957956Y-55726037D01*
X128957956Y-55726037D02*
X128853194Y-55678418D01*
X128853194Y-55678418D02*
X128800813Y-55630799D01*
X128800813Y-55630799D02*
X128748432Y-55535561D01*
X128748432Y-55535561D02*
X128748432Y-55440323D01*
X128748432Y-55440323D02*
X128800813Y-55297466D01*
X128800813Y-55297466D02*
X129429385Y-54726037D01*
X129429385Y-54726037D02*
X128748432Y-54726037D01*
X128067480Y-55726037D02*
X127962718Y-55726037D01*
X127962718Y-55726037D02*
X127857956Y-55678418D01*
X127857956Y-55678418D02*
X127805575Y-55630799D01*
X127805575Y-55630799D02*
X127753194Y-55535561D01*
X127753194Y-55535561D02*
X127700813Y-55345085D01*
X127700813Y-55345085D02*
X127700813Y-55106990D01*
X127700813Y-55106990D02*
X127753194Y-54916514D01*
X127753194Y-54916514D02*
X127805575Y-54821276D01*
X127805575Y-54821276D02*
X127857956Y-54773657D01*
X127857956Y-54773657D02*
X127962718Y-54726037D01*
X127962718Y-54726037D02*
X128067480Y-54726037D01*
X128067480Y-54726037D02*
X128172242Y-54773657D01*
X128172242Y-54773657D02*
X128224623Y-54821276D01*
X128224623Y-54821276D02*
X128277004Y-54916514D01*
X128277004Y-54916514D02*
X128329385Y-55106990D01*
X128329385Y-55106990D02*
X128329385Y-55345085D01*
X128329385Y-55345085D02*
X128277004Y-55535561D01*
X128277004Y-55535561D02*
X128224623Y-55630799D01*
X128224623Y-55630799D02*
X128172242Y-55678418D01*
X128172242Y-55678418D02*
X128067480Y-55726037D01*
X128864484Y-76928710D02*
X129388294Y-76928710D01*
X129388294Y-76928710D02*
X129440675Y-76452520D01*
X129440675Y-76452520D02*
X129388294Y-76500139D01*
X129388294Y-76500139D02*
X129283532Y-76547758D01*
X129283532Y-76547758D02*
X129021627Y-76547758D01*
X129021627Y-76547758D02*
X128916865Y-76500139D01*
X128916865Y-76500139D02*
X128864484Y-76452520D01*
X128864484Y-76452520D02*
X128812103Y-76357282D01*
X128812103Y-76357282D02*
X128812103Y-76119187D01*
X128812103Y-76119187D02*
X128864484Y-76023949D01*
X128864484Y-76023949D02*
X128916865Y-75976330D01*
X128916865Y-75976330D02*
X129021627Y-75928710D01*
X129021627Y-75928710D02*
X129283532Y-75928710D01*
X129283532Y-75928710D02*
X129388294Y-75976330D01*
X129388294Y-75976330D02*
X129440675Y-76023949D01*
X131288432Y-54726037D02*
X131917004Y-54726037D01*
X131602718Y-54726037D02*
X131602718Y-55726037D01*
X131602718Y-55726037D02*
X131707480Y-55583180D01*
X131707480Y-55583180D02*
X131812242Y-55487942D01*
X131812242Y-55487942D02*
X131917004Y-55440323D01*
X130764623Y-54726037D02*
X130555099Y-54726037D01*
X130555099Y-54726037D02*
X130450337Y-54773657D01*
X130450337Y-54773657D02*
X130397956Y-54821276D01*
X130397956Y-54821276D02*
X130293194Y-54964133D01*
X130293194Y-54964133D02*
X130240813Y-55154609D01*
X130240813Y-55154609D02*
X130240813Y-55535561D01*
X130240813Y-55535561D02*
X130293194Y-55630799D01*
X130293194Y-55630799D02*
X130345575Y-55678418D01*
X130345575Y-55678418D02*
X130450337Y-55726037D01*
X130450337Y-55726037D02*
X130659861Y-55726037D01*
X130659861Y-55726037D02*
X130764623Y-55678418D01*
X130764623Y-55678418D02*
X130817004Y-55630799D01*
X130817004Y-55630799D02*
X130869385Y-55535561D01*
X130869385Y-55535561D02*
X130869385Y-55297466D01*
X130869385Y-55297466D02*
X130817004Y-55202228D01*
X130817004Y-55202228D02*
X130764623Y-55154609D01*
X130764623Y-55154609D02*
X130659861Y-55106990D01*
X130659861Y-55106990D02*
X130450337Y-55106990D01*
X130450337Y-55106990D02*
X130345575Y-55154609D01*
X130345575Y-55154609D02*
X130293194Y-55202228D01*
X130293194Y-55202228D02*
X130240813Y-55297466D01*
X131456865Y-76595377D02*
X131456865Y-75928710D01*
X131718770Y-76976330D02*
X131980675Y-76262044D01*
X131980675Y-76262044D02*
X131299722Y-76262044D01*
X133828432Y-54726037D02*
X134457004Y-54726037D01*
X134142718Y-54726037D02*
X134142718Y-55726037D01*
X134142718Y-55726037D02*
X134247480Y-55583180D01*
X134247480Y-55583180D02*
X134352242Y-55487942D01*
X134352242Y-55487942D02*
X134457004Y-55440323D01*
X133199861Y-55297466D02*
X133304623Y-55345085D01*
X133304623Y-55345085D02*
X133357004Y-55392704D01*
X133357004Y-55392704D02*
X133409385Y-55487942D01*
X133409385Y-55487942D02*
X133409385Y-55535561D01*
X133409385Y-55535561D02*
X133357004Y-55630799D01*
X133357004Y-55630799D02*
X133304623Y-55678418D01*
X133304623Y-55678418D02*
X133199861Y-55726037D01*
X133199861Y-55726037D02*
X132990337Y-55726037D01*
X132990337Y-55726037D02*
X132885575Y-55678418D01*
X132885575Y-55678418D02*
X132833194Y-55630799D01*
X132833194Y-55630799D02*
X132780813Y-55535561D01*
X132780813Y-55535561D02*
X132780813Y-55487942D01*
X132780813Y-55487942D02*
X132833194Y-55392704D01*
X132833194Y-55392704D02*
X132885575Y-55345085D01*
X132885575Y-55345085D02*
X132990337Y-55297466D01*
X132990337Y-55297466D02*
X133199861Y-55297466D01*
X133199861Y-55297466D02*
X133304623Y-55249847D01*
X133304623Y-55249847D02*
X133357004Y-55202228D01*
X133357004Y-55202228D02*
X133409385Y-55106990D01*
X133409385Y-55106990D02*
X133409385Y-54916514D01*
X133409385Y-54916514D02*
X133357004Y-54821276D01*
X133357004Y-54821276D02*
X133304623Y-54773657D01*
X133304623Y-54773657D02*
X133199861Y-54726037D01*
X133199861Y-54726037D02*
X132990337Y-54726037D01*
X132990337Y-54726037D02*
X132885575Y-54773657D01*
X132885575Y-54773657D02*
X132833194Y-54821276D01*
X132833194Y-54821276D02*
X132780813Y-54916514D01*
X132780813Y-54916514D02*
X132780813Y-55106990D01*
X132780813Y-55106990D02*
X132833194Y-55202228D01*
X132833194Y-55202228D02*
X132885575Y-55249847D01*
X132885575Y-55249847D02*
X132990337Y-55297466D01*
X134573056Y-76928710D02*
X133892103Y-76928710D01*
X133892103Y-76928710D02*
X134258770Y-76547758D01*
X134258770Y-76547758D02*
X134101627Y-76547758D01*
X134101627Y-76547758D02*
X133996865Y-76500139D01*
X133996865Y-76500139D02*
X133944484Y-76452520D01*
X133944484Y-76452520D02*
X133892103Y-76357282D01*
X133892103Y-76357282D02*
X133892103Y-76119187D01*
X133892103Y-76119187D02*
X133944484Y-76023949D01*
X133944484Y-76023949D02*
X133996865Y-75976330D01*
X133996865Y-75976330D02*
X134101627Y-75928710D01*
X134101627Y-75928710D02*
X134415913Y-75928710D01*
X134415913Y-75928710D02*
X134520675Y-75976330D01*
X134520675Y-75976330D02*
X134573056Y-76023949D01*
X136368432Y-54726037D02*
X136997004Y-54726037D01*
X136682718Y-54726037D02*
X136682718Y-55726037D01*
X136682718Y-55726037D02*
X136787480Y-55583180D01*
X136787480Y-55583180D02*
X136892242Y-55487942D01*
X136892242Y-55487942D02*
X136997004Y-55440323D01*
X136001766Y-55726037D02*
X135268432Y-55726037D01*
X135268432Y-55726037D02*
X135739861Y-54726037D01*
X137060675Y-76833472D02*
X137008294Y-76881091D01*
X137008294Y-76881091D02*
X136903532Y-76928710D01*
X136903532Y-76928710D02*
X136641627Y-76928710D01*
X136641627Y-76928710D02*
X136536865Y-76881091D01*
X136536865Y-76881091D02*
X136484484Y-76833472D01*
X136484484Y-76833472D02*
X136432103Y-76738234D01*
X136432103Y-76738234D02*
X136432103Y-76642996D01*
X136432103Y-76642996D02*
X136484484Y-76500139D01*
X136484484Y-76500139D02*
X137113056Y-75928710D01*
X137113056Y-75928710D02*
X136432103Y-75928710D01*
X138908432Y-54726037D02*
X139537004Y-54726037D01*
X139222718Y-54726037D02*
X139222718Y-55726037D01*
X139222718Y-55726037D02*
X139327480Y-55583180D01*
X139327480Y-55583180D02*
X139432242Y-55487942D01*
X139432242Y-55487942D02*
X139537004Y-55440323D01*
X137965575Y-55726037D02*
X138175099Y-55726037D01*
X138175099Y-55726037D02*
X138279861Y-55678418D01*
X138279861Y-55678418D02*
X138332242Y-55630799D01*
X138332242Y-55630799D02*
X138437004Y-55487942D01*
X138437004Y-55487942D02*
X138489385Y-55297466D01*
X138489385Y-55297466D02*
X138489385Y-54916514D01*
X138489385Y-54916514D02*
X138437004Y-54821276D01*
X138437004Y-54821276D02*
X138384623Y-54773657D01*
X138384623Y-54773657D02*
X138279861Y-54726037D01*
X138279861Y-54726037D02*
X138070337Y-54726037D01*
X138070337Y-54726037D02*
X137965575Y-54773657D01*
X137965575Y-54773657D02*
X137913194Y-54821276D01*
X137913194Y-54821276D02*
X137860813Y-54916514D01*
X137860813Y-54916514D02*
X137860813Y-55154609D01*
X137860813Y-55154609D02*
X137913194Y-55249847D01*
X137913194Y-55249847D02*
X137965575Y-55297466D01*
X137965575Y-55297466D02*
X138070337Y-55345085D01*
X138070337Y-55345085D02*
X138279861Y-55345085D01*
X138279861Y-55345085D02*
X138384623Y-55297466D01*
X138384623Y-55297466D02*
X138437004Y-55249847D01*
X138437004Y-55249847D02*
X138489385Y-55154609D01*
X138972103Y-75928710D02*
X139600675Y-75928710D01*
X139286389Y-75928710D02*
X139286389Y-76928710D01*
X139286389Y-76928710D02*
X139391151Y-76785853D01*
X139391151Y-76785853D02*
X139495913Y-76690615D01*
X139495913Y-76690615D02*
X139600675Y-76642996D01*
D13*
X99166666Y-84024819D02*
X99166666Y-84739104D01*
X99166666Y-84739104D02*
X99119047Y-84881961D01*
X99119047Y-84881961D02*
X99023809Y-84977200D01*
X99023809Y-84977200D02*
X98880952Y-85024819D01*
X98880952Y-85024819D02*
X98785714Y-85024819D01*
X99547619Y-84024819D02*
X100166666Y-84024819D01*
X100166666Y-84024819D02*
X99833333Y-84405771D01*
X99833333Y-84405771D02*
X99976190Y-84405771D01*
X99976190Y-84405771D02*
X100071428Y-84453390D01*
X100071428Y-84453390D02*
X100119047Y-84501009D01*
X100119047Y-84501009D02*
X100166666Y-84596247D01*
X100166666Y-84596247D02*
X100166666Y-84834342D01*
X100166666Y-84834342D02*
X100119047Y-84929580D01*
X100119047Y-84929580D02*
X100071428Y-84977200D01*
X100071428Y-84977200D02*
X99976190Y-85024819D01*
X99976190Y-85024819D02*
X99690476Y-85024819D01*
X99690476Y-85024819D02*
X99595238Y-84977200D01*
X99595238Y-84977200D02*
X99547619Y-84929580D01*
%TO.C,J2*%
D14*
X150857500Y-74340000D02*
X148357500Y-74340000D01*
X148357500Y-74340000D02*
X148357500Y-76840000D01*
X150967500Y-74640000D02*
X150967500Y-75140000D01*
X150157500Y-74640000D02*
X150157500Y-75640000D01*
X152177500Y-75140000D02*
X152177500Y-81860000D01*
X150967500Y-75140000D02*
X152177500Y-75140000D01*
X150157500Y-75640000D02*
X148657500Y-75640000D01*
X150157500Y-81360000D02*
X148657500Y-81360000D01*
X152177500Y-81860000D02*
X150967500Y-81860000D01*
X150967500Y-81860000D02*
X150967500Y-82360000D01*
X150157500Y-82360000D02*
X150157500Y-81360000D01*
X148657500Y-74640000D02*
X152677500Y-74640000D01*
X152677500Y-82360000D01*
X148657500Y-82360000D01*
X148657500Y-74640000D01*
%TO.C,J4*%
X150890000Y-54590000D02*
X148390000Y-54590000D01*
X148390000Y-54590000D02*
X148390000Y-57090000D01*
X151000000Y-54890000D02*
X151000000Y-55390000D01*
X150190000Y-54890000D02*
X150190000Y-55890000D01*
X152210000Y-55390000D02*
X152210000Y-62110000D01*
X151000000Y-55390000D02*
X152210000Y-55390000D01*
X150190000Y-55890000D02*
X148690000Y-55890000D01*
X150190000Y-61610000D02*
X148690000Y-61610000D01*
X152210000Y-62110000D02*
X151000000Y-62110000D01*
X151000000Y-62110000D02*
X151000000Y-62610000D01*
X150190000Y-62610000D02*
X150190000Y-61610000D01*
X148690000Y-54890000D02*
X152710000Y-54890000D01*
X152710000Y-62610000D01*
X148690000Y-62610000D01*
X148690000Y-54890000D01*
%TO.C,J5*%
X90830000Y-91230000D02*
X90830000Y-58150000D01*
X90830000Y-91230000D02*
X88170000Y-91230000D01*
X90830000Y-58150000D02*
X88170000Y-58150000D01*
X89500000Y-93830000D02*
X88170000Y-93830000D01*
X88170000Y-93830000D02*
X88170000Y-92500000D01*
X88170000Y-91230000D02*
X88170000Y-58150000D01*
%TO.C,J1*%
X134170000Y-88270000D02*
X134170000Y-98490000D01*
X134170000Y-88270000D02*
X136830000Y-88270000D01*
X134170000Y-98490000D02*
X136830000Y-98490000D01*
X135500000Y-85670000D02*
X136830000Y-85670000D01*
X136830000Y-85670000D02*
X136830000Y-87000000D01*
X136830000Y-88270000D02*
X136830000Y-98490000D01*
%TO.C,U2*%
D15*
X95479813Y-51697540D02*
X146979813Y-51697540D01*
X146979813Y-79997540D01*
X95479813Y-79997540D01*
X95479813Y-51697540D01*
%TO.C,J3*%
D14*
X100830000Y-88610000D02*
X100830000Y-98830000D01*
X100830000Y-86010000D02*
X100830000Y-87340000D01*
X99500000Y-86010000D02*
X100830000Y-86010000D01*
X98170000Y-98830000D02*
X100830000Y-98830000D01*
X98170000Y-88610000D02*
X100830000Y-88610000D01*
X98170000Y-88610000D02*
X98170000Y-98830000D01*
%TD*%
M02*
