%TF.GenerationSoftware,KiCad,Pcbnew,10.0.6-10.0.6~ubuntu24.04.1*%
%TF.CreationDate,2026-10-02T16:29:13+02:00*%
%TF.ProjectId,maratui,6d617261-7475-4692-9e6b-696361645f70,rev?*%
%TF.SameCoordinates,Original*%
%TF.FileFunction,Copper,L1,Top*%
%TF.FilePolarity,Positive*%
%FSLAX46Y46*%
G04 Gerber Fmt 4.6, Leading zero omitted, Abs format (unit mm)*
G04 Created by KiCad (PCBNEW 10.0.6-10.0.6~ubuntu24.04.1) date 2026-10-02 16:29:13*
%MOMM*%
%LPD*%
G01*
G04 APERTURE LIST*
G04 Aperture macros list*
%AMRoundRect*
0 Rectangle with rounded corners*
0 $1 Rounding radius*
0 $2 $3 $4 $5 $6 $7 $8 $9 X,Y pos of 4 corners*
0 Add a 4 corners polygon primitive as box body*
4,1,4,$2,$3,$4,$5,$6,$7,$8,$9,$2,$3,0*
0 Add four circle primitives for the rounded corners*
1,1,$1+$1,$2,$3*
1,1,$1+$1,$4,$5*
1,1,$1+$1,$6,$7*
1,1,$1+$1,$8,$9*
0 Add four rect primitives between the rounded corners*
20,1,$1+$1,$2,$3,$4,$5,0*
20,1,$1+$1,$4,$5,$6,$7,0*
20,1,$1+$1,$6,$7,$8,$9,0*
20,1,$1+$1,$8,$9,$2,$3,0*%
G04 Aperture macros list end*
%TA.AperFunction,ComponentPad*%
%ADD10RoundRect,0.250000X0.600000X0.750000X-0.600000X0.750000X-0.600000X-0.750000X0.600000X-0.750000X0*%
%TD*%
%TA.AperFunction,ComponentPad*%
%ADD11O,1.700000X2.000000*%
%TD*%
%TA.AperFunction,ComponentPad*%
%ADD12C,1.879600*%
%TD*%
%TA.AperFunction,ComponentPad*%
%ADD13O,1.524000X1.900000*%
%TD*%
%TA.AperFunction,ComponentPad*%
%ADD14O,3.000000X1.500000*%
%TD*%
%TA.AperFunction,Conductor*%
%ADD15C,0.200000*%
%TD*%
G04 APERTURE END LIST*
D10*
%TO.P,J4,1,Pin_1_1*%
%TO.N,Net-(J4-Pin_1)*%
X117500000Y-144000000D03*
D11*
%TO.P,J4,2,Pin_2_2*%
%TO.N,Net-(J4-Pin_2)*%
X115000000Y-144000000D03*
%TD*%
D12*
%TO.P,U2,7,VDD_7*%
%TO.N,Net-(U1-3.3v)*%
X94500000Y-153380000D03*
%TO.P,U2,8,CLK_8*%
%TO.N,SCK_27*%
X94500000Y-155920000D03*
%TO.P,U2,9,DAT_9*%
%TO.N,Dat_32*%
X94500000Y-158460000D03*
%TO.P,U2,10,GND_10*%
%TO.N,Net-(U2-GND)*%
X94500000Y-161000000D03*
%TD*%
D13*
%TO.P,U1,1,VIN_1*%
%TO.N,unconnected-(U1-VIN-Pad1)*%
X101620000Y-144500000D03*
%TO.P,U1,2,GND_2*%
%TO.N,Net-(U2-GND)*%
X99080000Y-144500000D03*
%TO.P,U1,3,GPIO13_3*%
%TO.N,unconnected-(U1-GPIO13-Pad3)*%
X96540000Y-144500000D03*
%TO.P,U1,4,GPIO12_4*%
%TO.N,Net-(J2-Pin_1)*%
X94000000Y-144500000D03*
%TO.P,U1,5,GPIO14_5*%
%TO.N,LED_14*%
X91460000Y-144500000D03*
%TO.P,U1,6,GPIO27_6*%
%TO.N,SCK_27*%
X88920000Y-144500000D03*
%TO.P,U1,7,GPIO26_7*%
%TO.N,SCK_26*%
X86380000Y-144500000D03*
%TO.P,U1,8,GPIO25_8*%
%TO.N,Dat_25*%
X83840000Y-144500000D03*
%TO.P,U1,9,GPIO33_9*%
%TO.N,unconnected-(U1-GPIO33-Pad9)*%
X81300000Y-144500000D03*
%TO.P,U1,10,GPIO32_10*%
%TO.N,Dat_32*%
X78760000Y-144500000D03*
%TO.P,U1,11,GPIO35_11*%
%TO.N,unconnected-(U1-GPIO35-Pad11)*%
X76220000Y-144500000D03*
%TO.P,U1,12,GPIO34_12*%
%TO.N,unconnected-(U1-GPIO34-Pad12)*%
X73680000Y-144500000D03*
%TO.P,U1,13,GPIO39_13*%
%TO.N,unconnected-(U1-GPIO39-Pad13)*%
X71140000Y-144500000D03*
%TO.P,U1,14,GPIO36_14*%
%TO.N,unconnected-(U1-GPIO36-Pad14)*%
X68600000Y-144500000D03*
%TO.P,U1,15,EN_15*%
%TO.N,unconnected-(U1-EN-Pad15)*%
X66060000Y-144500000D03*
%TO.P,U1,16,3.3v_16*%
%TO.N,Net-(U1-3.3v)*%
X101620000Y-119100000D03*
%TO.P,U1,17,GND_17*%
%TO.N,Net-(J2-Pin_2)*%
X99080000Y-119100000D03*
%TO.P,U1,18,GPIO15_18*%
%TO.N,unconnected-(U1-GPIO15-Pad18)*%
X96540000Y-119100000D03*
%TO.P,U1,19,GPIO2_19*%
%TO.N,unconnected-(U1-GPIO2-Pad19)*%
X94000000Y-119100000D03*
%TO.P,U1,20,GPIO4_20*%
%TO.N,unconnected-(U1-GPIO4-Pad20)*%
X91460000Y-119100000D03*
%TO.P,U1,21,GPIO16_21*%
%TO.N,Net-(J4-Pin_2)*%
X88920000Y-119100000D03*
%TO.P,U1,22,GPIO17_22*%
%TO.N,Net-(J4-Pin_1)*%
X86380000Y-119100000D03*
%TO.P,U1,23,GPIO5_23*%
%TO.N,unconnected-(U1-GPIO5-Pad23)*%
X83840000Y-119100000D03*
%TO.P,U1,24,GPIO18_24*%
%TO.N,sck_18*%
X81300000Y-119100000D03*
%TO.P,U1,25,GPIO19_25*%
%TO.N,cs_19*%
X78760000Y-119100000D03*
%TO.P,U1,26,GPIO21_26*%
%TO.N,Mosi_21*%
X76220000Y-119100000D03*
%TO.P,U1,27,GPIO3_27*%
%TO.N,unconnected-(U1-GPIO3-Pad27)*%
X73680000Y-119100000D03*
%TO.P,U1,28,GPIO1_28*%
%TO.N,unconnected-(U1-GPIO1-Pad28)*%
X71140000Y-119100000D03*
%TO.P,U1,29,GPIO22_29*%
%TO.N,/RESET*%
X68600000Y-119100000D03*
%TO.P,U1,30,GPIO23_30*%
%TO.N,DC_23*%
X66060000Y-119100000D03*
%TD*%
D12*
%TO.P,U3,7,VDD_7*%
%TO.N,Net-(U1-3.3v)*%
X59000000Y-153380000D03*
%TO.P,U3,8,CLK_8*%
%TO.N,SCK_26*%
X59000000Y-155920000D03*
%TO.P,U3,9,DAT_9*%
%TO.N,Dat_25*%
X59000000Y-158460000D03*
%TO.P,U3,10,GND_10*%
%TO.N,Net-(U2-GND)*%
X59000000Y-161000000D03*
%TD*%
D10*
%TO.P,J2,1,Pin_1_1*%
%TO.N,Net-(J2-Pin_1)*%
X117000000Y-120000000D03*
D11*
%TO.P,J2,2,Pin_2_2*%
%TO.N,Net-(J2-Pin_2)*%
X114500000Y-120000000D03*
%TD*%
D14*
%TO.P,U4,1,VCC_1*%
%TO.N,Net-(U1-3.3v)*%
X45960000Y-157160000D03*
%TO.P,U4,2,GND_2*%
%TO.N,Net-(J2-Pin_2)*%
X45960000Y-154620000D03*
%TO.P,U4,3,CS_3*%
%TO.N,cs_19*%
X45960000Y-152080000D03*
%TO.P,U4,4,RST_4*%
%TO.N,/RESET*%
X45960000Y-149540000D03*
%TO.P,U4,5,DC_5*%
%TO.N,DC_23*%
X45960000Y-147000000D03*
%TO.P,U4,6,MOSI_6*%
%TO.N,Mosi_21*%
X45960000Y-144460000D03*
%TO.P,U4,7,SCK_7*%
%TO.N,sck_18*%
X45960000Y-141920000D03*
%TO.P,U4,8,LED_8*%
%TO.N,LED_14*%
X45960000Y-139380000D03*
%TO.P,U4,9,MISO_9*%
%TO.N,unconnected-(U4-MISO-Pad9)*%
X45960000Y-136840000D03*
%TO.P,U4,10*%
%TO.N,unconnected-(U4-Pad10)*%
X45960000Y-134300000D03*
%TO.P,U4,11*%
%TO.N,unconnected-(U4-Pad11)*%
X45960000Y-131760000D03*
%TO.P,U4,12*%
%TO.N,unconnected-(U4-Pad12)*%
X45960000Y-129220000D03*
%TO.P,U4,13*%
%TO.N,unconnected-(U4-Pad13)*%
X45960000Y-126680000D03*
%TO.P,U4,14*%
%TO.N,unconnected-(U4-Pad14)*%
X45960000Y-124140000D03*
%TD*%
%TO.N,Net-(J4-Pin_1)*%
D15*
X112580000Y-145300000D02*
X116200000Y-145300000D01*
X86380000Y-119100000D02*
X112580000Y-145300000D01*
X116200000Y-145300000D02*
X117500000Y-144000000D01*
%TO.N,Net-(J4-Pin_2)*%
X113820000Y-144000000D02*
X115000000Y-144000000D01*
X88920000Y-119100000D02*
X113820000Y-144000000D01*
%TO.N,Net-(U1-3.3v)*%
X59065686Y-163500000D02*
X94000000Y-163500000D01*
X50840000Y-157160000D02*
X54470000Y-153530000D01*
X97000000Y-155500000D02*
X97000000Y-160500000D01*
X118800000Y-119665256D02*
X118800000Y-139765686D01*
X45960000Y-157160000D02*
X50840000Y-157160000D01*
X56470000Y-153530000D02*
X56620000Y-153380000D01*
X52725685Y-157160000D02*
X50840000Y-157160000D01*
X112534744Y-124300000D02*
X115850000Y-120984744D01*
X100370000Y-117850000D02*
X98640105Y-117850000D01*
X117834744Y-118700000D02*
X118800000Y-119665256D01*
X101620000Y-119100000D02*
X100370000Y-117850000D01*
X98640105Y-117850000D02*
X98018000Y-118472105D01*
X59065686Y-163500000D02*
X52725685Y-157160000D01*
X115850000Y-119015256D02*
X116165256Y-118700000D01*
X115850000Y-120984744D02*
X115850000Y-119015256D01*
X98018000Y-118472105D02*
X98018000Y-119727895D01*
X98018000Y-119727895D02*
X102590105Y-124300000D01*
X116165256Y-118700000D02*
X117834744Y-118700000D01*
X118800000Y-139765686D02*
X119500000Y-140465686D01*
X94880000Y-153380000D02*
X97000000Y-155500000D01*
X99120000Y-153380000D02*
X113034214Y-153380000D01*
X119500000Y-140465686D02*
X119500000Y-146914214D01*
X97000000Y-160500000D02*
X94000000Y-163500000D01*
X54470000Y-153530000D02*
X56470000Y-153530000D01*
X119500000Y-146914214D02*
X113034214Y-153380000D01*
X102590105Y-124300000D02*
X112534744Y-124300000D01*
X97000000Y-155500000D02*
X99120000Y-153380000D01*
X56620000Y-153380000D02*
X59000000Y-153380000D01*
%TO.N,SCK_27*%
X88920000Y-146420000D02*
X88920000Y-144500000D01*
X93000000Y-150500000D02*
X88920000Y-146420000D01*
X92860200Y-150639800D02*
X92860200Y-154280200D01*
X92860200Y-154280200D02*
X94500000Y-155920000D01*
X93000000Y-150500000D02*
X92860200Y-150639800D01*
%TO.N,Dat_32*%
X85569895Y-142000000D02*
X80500000Y-142000000D01*
X94500000Y-158460000D02*
X87858000Y-151818000D01*
X87858000Y-144288105D02*
X85569895Y-142000000D01*
X87858000Y-151818000D02*
X87858000Y-144288105D01*
X80500000Y-142000000D02*
X78760000Y-143740000D01*
X78760000Y-143740000D02*
X78760000Y-144500000D01*
%TO.N,Net-(U2-GND)*%
X96000000Y-150126658D02*
X93260200Y-152866458D01*
X94500000Y-161000000D02*
X96000000Y-159500000D01*
X94046858Y-154680200D02*
X93260200Y-153893542D01*
X93260200Y-153893542D02*
X93260200Y-152866458D01*
X99080000Y-144500000D02*
X96000000Y-147580000D01*
X96000000Y-155280000D02*
X95400200Y-154680200D01*
X59000000Y-161000000D02*
X94500000Y-161000000D01*
X96000000Y-147580000D02*
X96000000Y-150126658D01*
X95400200Y-154680200D02*
X94046858Y-154680200D01*
X96000000Y-159500000D02*
X96000000Y-155280000D01*
%TO.N,Net-(J2-Pin_1)*%
X118400000Y-142765256D02*
X119100000Y-143465256D01*
X118748528Y-147100000D02*
X105251472Y-147100000D01*
X104052355Y-145242460D02*
X101809895Y-143000000D01*
X105251472Y-147100000D02*
X104052355Y-145900883D01*
X117000000Y-120000000D02*
X118400000Y-121400000D01*
X101809895Y-143000000D02*
X95500000Y-143000000D01*
X119100000Y-146748528D02*
X118748528Y-147100000D01*
X119100000Y-143465256D02*
X119100000Y-146748528D01*
X95500000Y-143000000D02*
X94000000Y-144500000D01*
X104052355Y-145900883D02*
X104052355Y-145242460D01*
X118400000Y-121400000D02*
X118400000Y-142765256D01*
%TO.N,LED_14*%
X47144924Y-145950000D02*
X47760000Y-146565076D01*
X44775076Y-153130000D02*
X55370000Y-153130000D01*
X85000000Y-138040000D02*
X91460000Y-144500000D01*
X55370000Y-153130000D02*
X70460000Y-138040000D01*
X46704924Y-151030000D02*
X44775076Y-151030000D01*
X43760000Y-144934924D02*
X44775076Y-145950000D01*
X73370105Y-138040000D02*
X85000000Y-138040000D01*
X44775076Y-145950000D02*
X47144924Y-145950000D01*
X44775076Y-151030000D02*
X44160000Y-151645076D01*
X45699390Y-139380000D02*
X43760000Y-141319390D01*
X70460000Y-138040000D02*
X73370105Y-138040000D01*
X45960000Y-139380000D02*
X45699390Y-139380000D01*
X43760000Y-141319390D02*
X43760000Y-144934924D01*
X47760000Y-149974924D02*
X46704924Y-151030000D01*
X44160000Y-151645076D02*
X44160000Y-152514924D01*
X47760000Y-146565076D02*
X47760000Y-149974924D01*
X44160000Y-152514924D02*
X44775076Y-153130000D01*
%TO.N,SCK_26*%
X57080000Y-155920000D02*
X59000000Y-155920000D01*
X55500000Y-159080000D02*
X55500000Y-157500000D01*
X56119800Y-159699800D02*
X55500000Y-159080000D01*
X86380000Y-144500000D02*
X71180200Y-159699800D01*
X55500000Y-157500000D02*
X57080000Y-155920000D01*
X71180200Y-159699800D02*
X56119800Y-159699800D01*
%TO.N,Dat_25*%
X59000000Y-158460000D02*
X69880000Y-158460000D01*
X69880000Y-158460000D02*
X83840000Y-144500000D01*
%TO.N,Net-(J2-Pin_2)*%
X102000000Y-164500000D02*
X59500000Y-164500000D01*
X44000000Y-156580000D02*
X45960000Y-154620000D01*
X102980000Y-123000000D02*
X99080000Y-119100000D01*
X103500000Y-163000000D02*
X102000000Y-164500000D01*
X115000000Y-118000000D02*
X120500000Y-118000000D01*
X44000000Y-158000000D02*
X44000000Y-156580000D01*
X121000000Y-149000000D02*
X107000000Y-163000000D01*
X45000000Y-159000000D02*
X44000000Y-158000000D01*
X121000000Y-118500000D02*
X121000000Y-149000000D01*
X114500000Y-120000000D02*
X114500000Y-118500000D01*
X105980000Y-120000000D02*
X114500000Y-120000000D01*
X114500000Y-118500000D02*
X115000000Y-118000000D01*
X120500000Y-118000000D02*
X121000000Y-118500000D01*
X102980000Y-123000000D02*
X105980000Y-120000000D01*
X54000000Y-159000000D02*
X45000000Y-159000000D01*
X59500000Y-164500000D02*
X54000000Y-159000000D01*
X107000000Y-163000000D02*
X103500000Y-163000000D01*
%TO.N,sck_18*%
X79700000Y-117500000D02*
X81300000Y-119100000D01*
X77282000Y-118718000D02*
X78500000Y-117500000D01*
X58420000Y-141920000D02*
X77282000Y-123058000D01*
X78500000Y-117500000D02*
X79700000Y-117500000D01*
X45960000Y-141920000D02*
X58420000Y-141920000D01*
X77282000Y-123058000D02*
X77282000Y-118718000D01*
%TO.N,cs_19*%
X45960000Y-152080000D02*
X54772496Y-152080000D01*
X78760000Y-128092496D02*
X78760000Y-119100000D01*
X54772496Y-152080000D02*
X78760000Y-128092496D01*
%TO.N,Mosi_21*%
X44160000Y-141485076D02*
X45215076Y-140430000D01*
X45960000Y-144460000D02*
X44160000Y-142660000D01*
X45215076Y-140430000D02*
X56040000Y-140430000D01*
X44160000Y-142660000D02*
X44160000Y-141485076D01*
X76220000Y-120250000D02*
X76220000Y-119100000D01*
X56040000Y-140430000D02*
X76220000Y-120250000D01*
%TO.N,/RESET*%
X67350000Y-117850000D02*
X68600000Y-119100000D01*
X55144924Y-135350000D02*
X64998000Y-125496924D01*
X65620105Y-117850000D02*
X67350000Y-117850000D01*
X45960000Y-149540000D02*
X42960000Y-146540000D01*
X64998000Y-125496924D02*
X64998000Y-118472105D01*
X45215076Y-135350000D02*
X55144924Y-135350000D01*
X42960000Y-146540000D02*
X42960000Y-137605076D01*
X64998000Y-118472105D02*
X65620105Y-117850000D01*
X42960000Y-137605076D02*
X45215076Y-135350000D01*
%TO.N,DC_23*%
X45259390Y-147000000D02*
X43360000Y-145100609D01*
X66060000Y-126974924D02*
X66060000Y-119100000D01*
X55144924Y-137890000D02*
X66060000Y-126974924D01*
X43360000Y-139745076D02*
X45215076Y-137890000D01*
X45215076Y-137890000D02*
X55144924Y-137890000D01*
X45960000Y-147000000D02*
X45259390Y-147000000D01*
X43360000Y-145100609D02*
X43360000Y-139745076D01*
%TD*%
M02*
