%TF.GenerationSoftware,KiCad,Pcbnew,10.0.6-10.0.6~ubuntu24.04.1*%
%TF.CreationDate,2026-10-02T16:29:13+02:00*%
%TF.ProjectId,maratui,6d617261-7475-4692-9e6b-696361645f70,rev?*%
%TF.SameCoordinates,Original*%
%TF.FileFunction,Legend,Top*%
%TF.FilePolarity,Positive*%
%FSLAX46Y46*%
G04 Gerber Fmt 4.6, Leading zero omitted, Abs format (unit mm)*
G04 Created by KiCad (PCBNEW 10.0.6-10.0.6~ubuntu24.04.1) date 2026-10-02 16:29:13*
%MOMM*%
%LPD*%
G01*
G04 APERTURE LIST*
%ADD10C,0.150000*%
%ADD11C,0.100000*%
%ADD12C,0.120000*%
%ADD13C,0.127000*%
%ADD14C,0.200000*%
G04 APERTURE END LIST*
D10*
X115916666Y-146254819D02*
X115916666Y-146969104D01*
X115916666Y-146969104D02*
X115869047Y-147111961D01*
X115869047Y-147111961D02*
X115773809Y-147207200D01*
X115773809Y-147207200D02*
X115630952Y-147254819D01*
X115630952Y-147254819D02*
X115535714Y-147254819D01*
X116821428Y-146588152D02*
X116821428Y-147254819D01*
X116583333Y-146207200D02*
X116345238Y-146921485D01*
X116345238Y-146921485D02*
X116964285Y-146921485D01*
X119138047Y-167834786D02*
X119138047Y-168644360D01*
X119138047Y-168644360D02*
X119185669Y-168739604D01*
X119185669Y-168739604D02*
X119233291Y-168787227D01*
X119233291Y-168787227D02*
X119328535Y-168834849D01*
X119328535Y-168834849D02*
X119519023Y-168834849D01*
X119519023Y-168834849D02*
X119614267Y-168787227D01*
X119614267Y-168787227D02*
X119661889Y-168739604D01*
X119661889Y-168739604D02*
X119709511Y-168644360D01*
X119709511Y-168644360D02*
X119709511Y-167834786D01*
X120138110Y-167930030D02*
X120185732Y-167882408D01*
X120185732Y-167882408D02*
X120280976Y-167834786D01*
X120280976Y-167834786D02*
X120519086Y-167834786D01*
X120519086Y-167834786D02*
X120614330Y-167882408D01*
X120614330Y-167882408D02*
X120661952Y-167930030D01*
X120661952Y-167930030D02*
X120709574Y-168025274D01*
X120709574Y-168025274D02*
X120709574Y-168120518D01*
X120709574Y-168120518D02*
X120661952Y-168263384D01*
X120661952Y-168263384D02*
X120090488Y-168834849D01*
X120090488Y-168834849D02*
X120709574Y-168834849D01*
D11*
X98838972Y-153807580D02*
X98505639Y-152807580D01*
X98505639Y-152807580D02*
X98172306Y-153807580D01*
X97934210Y-153807580D02*
X97315163Y-153807580D01*
X97315163Y-153807580D02*
X97648496Y-153426628D01*
X97648496Y-153426628D02*
X97505639Y-153426628D01*
X97505639Y-153426628D02*
X97410401Y-153379009D01*
X97410401Y-153379009D02*
X97362782Y-153331390D01*
X97362782Y-153331390D02*
X97315163Y-153236152D01*
X97315163Y-153236152D02*
X97315163Y-152998057D01*
X97315163Y-152998057D02*
X97362782Y-152902819D01*
X97362782Y-152902819D02*
X97410401Y-152855200D01*
X97410401Y-152855200D02*
X97505639Y-152807580D01*
X97505639Y-152807580D02*
X97791353Y-152807580D01*
X97791353Y-152807580D02*
X97886591Y-152855200D01*
X97886591Y-152855200D02*
X97934210Y-152902819D01*
X96886591Y-152902819D02*
X96838972Y-152855200D01*
X96838972Y-152855200D02*
X96886591Y-152807580D01*
X96886591Y-152807580D02*
X96934210Y-152855200D01*
X96934210Y-152855200D02*
X96886591Y-152902819D01*
X96886591Y-152902819D02*
X96886591Y-152807580D01*
X96505639Y-153807580D02*
X95886592Y-153807580D01*
X95886592Y-153807580D02*
X96219925Y-153426628D01*
X96219925Y-153426628D02*
X96077068Y-153426628D01*
X96077068Y-153426628D02*
X95981830Y-153379009D01*
X95981830Y-153379009D02*
X95934211Y-153331390D01*
X95934211Y-153331390D02*
X95886592Y-153236152D01*
X95886592Y-153236152D02*
X95886592Y-152998057D01*
X95886592Y-152998057D02*
X95934211Y-152902819D01*
X95934211Y-152902819D02*
X95981830Y-152855200D01*
X95981830Y-152855200D02*
X96077068Y-152807580D01*
X96077068Y-152807580D02*
X96362782Y-152807580D01*
X96362782Y-152807580D02*
X96458020Y-152855200D01*
X96458020Y-152855200D02*
X96505639Y-152902819D01*
X98124687Y-155402819D02*
X98172306Y-155355200D01*
X98172306Y-155355200D02*
X98315163Y-155307580D01*
X98315163Y-155307580D02*
X98410401Y-155307580D01*
X98410401Y-155307580D02*
X98553258Y-155355200D01*
X98553258Y-155355200D02*
X98648496Y-155450438D01*
X98648496Y-155450438D02*
X98696115Y-155545676D01*
X98696115Y-155545676D02*
X98743734Y-155736152D01*
X98743734Y-155736152D02*
X98743734Y-155879009D01*
X98743734Y-155879009D02*
X98696115Y-156069485D01*
X98696115Y-156069485D02*
X98648496Y-156164723D01*
X98648496Y-156164723D02*
X98553258Y-156259961D01*
X98553258Y-156259961D02*
X98410401Y-156307580D01*
X98410401Y-156307580D02*
X98315163Y-156307580D01*
X98315163Y-156307580D02*
X98172306Y-156259961D01*
X98172306Y-156259961D02*
X98124687Y-156212342D01*
X97219925Y-155307580D02*
X97696115Y-155307580D01*
X97696115Y-155307580D02*
X97696115Y-156307580D01*
X96886591Y-155307580D02*
X96886591Y-156307580D01*
X96315163Y-155307580D02*
X96743734Y-155879009D01*
X96315163Y-156307580D02*
X96886591Y-155736152D01*
X98696115Y-157807580D02*
X98696115Y-158807580D01*
X98696115Y-158807580D02*
X98458020Y-158807580D01*
X98458020Y-158807580D02*
X98315163Y-158759961D01*
X98315163Y-158759961D02*
X98219925Y-158664723D01*
X98219925Y-158664723D02*
X98172306Y-158569485D01*
X98172306Y-158569485D02*
X98124687Y-158379009D01*
X98124687Y-158379009D02*
X98124687Y-158236152D01*
X98124687Y-158236152D02*
X98172306Y-158045676D01*
X98172306Y-158045676D02*
X98219925Y-157950438D01*
X98219925Y-157950438D02*
X98315163Y-157855200D01*
X98315163Y-157855200D02*
X98458020Y-157807580D01*
X98458020Y-157807580D02*
X98696115Y-157807580D01*
X97743734Y-158093295D02*
X97267544Y-158093295D01*
X97838972Y-157807580D02*
X97505639Y-158807580D01*
X97505639Y-158807580D02*
X97172306Y-157807580D01*
X96981829Y-158807580D02*
X96410401Y-158807580D01*
X96696115Y-157807580D02*
X96696115Y-158807580D01*
X98172306Y-161428203D02*
X98267544Y-161475822D01*
X98267544Y-161475822D02*
X98410401Y-161475822D01*
X98410401Y-161475822D02*
X98553258Y-161428203D01*
X98553258Y-161428203D02*
X98648496Y-161332965D01*
X98648496Y-161332965D02*
X98696115Y-161237727D01*
X98696115Y-161237727D02*
X98743734Y-161047251D01*
X98743734Y-161047251D02*
X98743734Y-160904394D01*
X98743734Y-160904394D02*
X98696115Y-160713918D01*
X98696115Y-160713918D02*
X98648496Y-160618680D01*
X98648496Y-160618680D02*
X98553258Y-160523442D01*
X98553258Y-160523442D02*
X98410401Y-160475822D01*
X98410401Y-160475822D02*
X98315163Y-160475822D01*
X98315163Y-160475822D02*
X98172306Y-160523442D01*
X98172306Y-160523442D02*
X98124687Y-160571061D01*
X98124687Y-160571061D02*
X98124687Y-160904394D01*
X98124687Y-160904394D02*
X98315163Y-160904394D01*
X97696115Y-160475822D02*
X97696115Y-161475822D01*
X97696115Y-161475822D02*
X97124687Y-160475822D01*
X97124687Y-160475822D02*
X97124687Y-161475822D01*
X96648496Y-160475822D02*
X96648496Y-161475822D01*
X96648496Y-161475822D02*
X96410401Y-161475822D01*
X96410401Y-161475822D02*
X96267544Y-161428203D01*
X96267544Y-161428203D02*
X96172306Y-161332965D01*
X96172306Y-161332965D02*
X96124687Y-161237727D01*
X96124687Y-161237727D02*
X96077068Y-161047251D01*
X96077068Y-161047251D02*
X96077068Y-160904394D01*
X96077068Y-160904394D02*
X96124687Y-160713918D01*
X96124687Y-160713918D02*
X96172306Y-160618680D01*
X96172306Y-160618680D02*
X96267544Y-160523442D01*
X96267544Y-160523442D02*
X96410401Y-160475822D01*
X96410401Y-160475822D02*
X96648496Y-160475822D01*
D10*
X82443095Y-130754819D02*
X82443095Y-131564342D01*
X82443095Y-131564342D02*
X82490714Y-131659580D01*
X82490714Y-131659580D02*
X82538333Y-131707200D01*
X82538333Y-131707200D02*
X82633571Y-131754819D01*
X82633571Y-131754819D02*
X82824047Y-131754819D01*
X82824047Y-131754819D02*
X82919285Y-131707200D01*
X82919285Y-131707200D02*
X82966904Y-131659580D01*
X82966904Y-131659580D02*
X83014523Y-131564342D01*
X83014523Y-131564342D02*
X83014523Y-130754819D01*
X84014523Y-131754819D02*
X83443095Y-131754819D01*
X83728809Y-131754819D02*
X83728809Y-130754819D01*
X83728809Y-130754819D02*
X83633571Y-130897676D01*
X83633571Y-130897676D02*
X83538333Y-130992914D01*
X83538333Y-130992914D02*
X83443095Y-131040533D01*
D11*
X65520225Y-125168575D02*
X65472606Y-125273337D01*
X65472606Y-125273337D02*
X65472606Y-125430480D01*
X65472606Y-125430480D02*
X65520225Y-125587623D01*
X65520225Y-125587623D02*
X65615463Y-125692385D01*
X65615463Y-125692385D02*
X65710701Y-125744766D01*
X65710701Y-125744766D02*
X65901177Y-125797147D01*
X65901177Y-125797147D02*
X66044034Y-125797147D01*
X66044034Y-125797147D02*
X66234510Y-125744766D01*
X66234510Y-125744766D02*
X66329748Y-125692385D01*
X66329748Y-125692385D02*
X66424987Y-125587623D01*
X66424987Y-125587623D02*
X66472606Y-125430480D01*
X66472606Y-125430480D02*
X66472606Y-125325718D01*
X66472606Y-125325718D02*
X66424987Y-125168575D01*
X66424987Y-125168575D02*
X66377367Y-125116194D01*
X66377367Y-125116194D02*
X66044034Y-125116194D01*
X66044034Y-125116194D02*
X66044034Y-125325718D01*
X66472606Y-124644766D02*
X65472606Y-124644766D01*
X65472606Y-124644766D02*
X65472606Y-124225718D01*
X65472606Y-124225718D02*
X65520225Y-124120956D01*
X65520225Y-124120956D02*
X65567844Y-124068575D01*
X65567844Y-124068575D02*
X65663082Y-124016194D01*
X65663082Y-124016194D02*
X65805939Y-124016194D01*
X65805939Y-124016194D02*
X65901177Y-124068575D01*
X65901177Y-124068575D02*
X65948796Y-124120956D01*
X65948796Y-124120956D02*
X65996415Y-124225718D01*
X65996415Y-124225718D02*
X65996415Y-124644766D01*
X66472606Y-123544766D02*
X65472606Y-123544766D01*
X65472606Y-122811432D02*
X65472606Y-122601908D01*
X65472606Y-122601908D02*
X65520225Y-122497146D01*
X65520225Y-122497146D02*
X65615463Y-122392384D01*
X65615463Y-122392384D02*
X65805939Y-122340003D01*
X65805939Y-122340003D02*
X66139272Y-122340003D01*
X66139272Y-122340003D02*
X66329748Y-122392384D01*
X66329748Y-122392384D02*
X66424987Y-122497146D01*
X66424987Y-122497146D02*
X66472606Y-122601908D01*
X66472606Y-122601908D02*
X66472606Y-122811432D01*
X66472606Y-122811432D02*
X66424987Y-122916194D01*
X66424987Y-122916194D02*
X66329748Y-123020956D01*
X66329748Y-123020956D02*
X66139272Y-123073337D01*
X66139272Y-123073337D02*
X65805939Y-123073337D01*
X65805939Y-123073337D02*
X65615463Y-123020956D01*
X65615463Y-123020956D02*
X65520225Y-122916194D01*
X65520225Y-122916194D02*
X65472606Y-122811432D01*
X65567844Y-121920956D02*
X65520225Y-121868575D01*
X65520225Y-121868575D02*
X65472606Y-121763813D01*
X65472606Y-121763813D02*
X65472606Y-121501908D01*
X65472606Y-121501908D02*
X65520225Y-121397146D01*
X65520225Y-121397146D02*
X65567844Y-121344765D01*
X65567844Y-121344765D02*
X65663082Y-121292384D01*
X65663082Y-121292384D02*
X65758320Y-121292384D01*
X65758320Y-121292384D02*
X65901177Y-121344765D01*
X65901177Y-121344765D02*
X66472606Y-121973337D01*
X66472606Y-121973337D02*
X66472606Y-121292384D01*
X65472606Y-120925718D02*
X65472606Y-120244765D01*
X65472606Y-120244765D02*
X65853558Y-120611432D01*
X65853558Y-120611432D02*
X65853558Y-120454289D01*
X65853558Y-120454289D02*
X65901177Y-120349527D01*
X65901177Y-120349527D02*
X65948796Y-120297146D01*
X65948796Y-120297146D02*
X66044034Y-120244765D01*
X66044034Y-120244765D02*
X66282129Y-120244765D01*
X66282129Y-120244765D02*
X66377367Y-120297146D01*
X66377367Y-120297146D02*
X66424987Y-120349527D01*
X66424987Y-120349527D02*
X66472606Y-120454289D01*
X66472606Y-120454289D02*
X66472606Y-120768575D01*
X66472606Y-120768575D02*
X66424987Y-120873337D01*
X66424987Y-120873337D02*
X66377367Y-120925718D01*
X66448796Y-143244766D02*
X66448796Y-142878099D01*
X66972606Y-142720956D02*
X66972606Y-143244766D01*
X66972606Y-143244766D02*
X65972606Y-143244766D01*
X65972606Y-143244766D02*
X65972606Y-142720956D01*
X66972606Y-142249528D02*
X65972606Y-142249528D01*
X65972606Y-142249528D02*
X66972606Y-141620956D01*
X66972606Y-141620956D02*
X65972606Y-141620956D01*
X68020225Y-125168575D02*
X67972606Y-125273337D01*
X67972606Y-125273337D02*
X67972606Y-125430480D01*
X67972606Y-125430480D02*
X68020225Y-125587623D01*
X68020225Y-125587623D02*
X68115463Y-125692385D01*
X68115463Y-125692385D02*
X68210701Y-125744766D01*
X68210701Y-125744766D02*
X68401177Y-125797147D01*
X68401177Y-125797147D02*
X68544034Y-125797147D01*
X68544034Y-125797147D02*
X68734510Y-125744766D01*
X68734510Y-125744766D02*
X68829748Y-125692385D01*
X68829748Y-125692385D02*
X68924987Y-125587623D01*
X68924987Y-125587623D02*
X68972606Y-125430480D01*
X68972606Y-125430480D02*
X68972606Y-125325718D01*
X68972606Y-125325718D02*
X68924987Y-125168575D01*
X68924987Y-125168575D02*
X68877367Y-125116194D01*
X68877367Y-125116194D02*
X68544034Y-125116194D01*
X68544034Y-125116194D02*
X68544034Y-125325718D01*
X68972606Y-124644766D02*
X67972606Y-124644766D01*
X67972606Y-124644766D02*
X67972606Y-124225718D01*
X67972606Y-124225718D02*
X68020225Y-124120956D01*
X68020225Y-124120956D02*
X68067844Y-124068575D01*
X68067844Y-124068575D02*
X68163082Y-124016194D01*
X68163082Y-124016194D02*
X68305939Y-124016194D01*
X68305939Y-124016194D02*
X68401177Y-124068575D01*
X68401177Y-124068575D02*
X68448796Y-124120956D01*
X68448796Y-124120956D02*
X68496415Y-124225718D01*
X68496415Y-124225718D02*
X68496415Y-124644766D01*
X68972606Y-123544766D02*
X67972606Y-123544766D01*
X67972606Y-122811432D02*
X67972606Y-122601908D01*
X67972606Y-122601908D02*
X68020225Y-122497146D01*
X68020225Y-122497146D02*
X68115463Y-122392384D01*
X68115463Y-122392384D02*
X68305939Y-122340003D01*
X68305939Y-122340003D02*
X68639272Y-122340003D01*
X68639272Y-122340003D02*
X68829748Y-122392384D01*
X68829748Y-122392384D02*
X68924987Y-122497146D01*
X68924987Y-122497146D02*
X68972606Y-122601908D01*
X68972606Y-122601908D02*
X68972606Y-122811432D01*
X68972606Y-122811432D02*
X68924987Y-122916194D01*
X68924987Y-122916194D02*
X68829748Y-123020956D01*
X68829748Y-123020956D02*
X68639272Y-123073337D01*
X68639272Y-123073337D02*
X68305939Y-123073337D01*
X68305939Y-123073337D02*
X68115463Y-123020956D01*
X68115463Y-123020956D02*
X68020225Y-122916194D01*
X68020225Y-122916194D02*
X67972606Y-122811432D01*
X68067844Y-121920956D02*
X68020225Y-121868575D01*
X68020225Y-121868575D02*
X67972606Y-121763813D01*
X67972606Y-121763813D02*
X67972606Y-121501908D01*
X67972606Y-121501908D02*
X68020225Y-121397146D01*
X68020225Y-121397146D02*
X68067844Y-121344765D01*
X68067844Y-121344765D02*
X68163082Y-121292384D01*
X68163082Y-121292384D02*
X68258320Y-121292384D01*
X68258320Y-121292384D02*
X68401177Y-121344765D01*
X68401177Y-121344765D02*
X68972606Y-121973337D01*
X68972606Y-121973337D02*
X68972606Y-121292384D01*
X68067844Y-120873337D02*
X68020225Y-120820956D01*
X68020225Y-120820956D02*
X67972606Y-120716194D01*
X67972606Y-120716194D02*
X67972606Y-120454289D01*
X67972606Y-120454289D02*
X68020225Y-120349527D01*
X68020225Y-120349527D02*
X68067844Y-120297146D01*
X68067844Y-120297146D02*
X68163082Y-120244765D01*
X68163082Y-120244765D02*
X68258320Y-120244765D01*
X68258320Y-120244765D02*
X68401177Y-120297146D01*
X68401177Y-120297146D02*
X68972606Y-120925718D01*
X68972606Y-120925718D02*
X68972606Y-120244765D01*
X68520225Y-142668575D02*
X68472606Y-142773337D01*
X68472606Y-142773337D02*
X68472606Y-142930480D01*
X68472606Y-142930480D02*
X68520225Y-143087623D01*
X68520225Y-143087623D02*
X68615463Y-143192385D01*
X68615463Y-143192385D02*
X68710701Y-143244766D01*
X68710701Y-143244766D02*
X68901177Y-143297147D01*
X68901177Y-143297147D02*
X69044034Y-143297147D01*
X69044034Y-143297147D02*
X69234510Y-143244766D01*
X69234510Y-143244766D02*
X69329748Y-143192385D01*
X69329748Y-143192385D02*
X69424987Y-143087623D01*
X69424987Y-143087623D02*
X69472606Y-142930480D01*
X69472606Y-142930480D02*
X69472606Y-142825718D01*
X69472606Y-142825718D02*
X69424987Y-142668575D01*
X69424987Y-142668575D02*
X69377367Y-142616194D01*
X69377367Y-142616194D02*
X69044034Y-142616194D01*
X69044034Y-142616194D02*
X69044034Y-142825718D01*
X69472606Y-142144766D02*
X68472606Y-142144766D01*
X68472606Y-142144766D02*
X68472606Y-141725718D01*
X68472606Y-141725718D02*
X68520225Y-141620956D01*
X68520225Y-141620956D02*
X68567844Y-141568575D01*
X68567844Y-141568575D02*
X68663082Y-141516194D01*
X68663082Y-141516194D02*
X68805939Y-141516194D01*
X68805939Y-141516194D02*
X68901177Y-141568575D01*
X68901177Y-141568575D02*
X68948796Y-141620956D01*
X68948796Y-141620956D02*
X68996415Y-141725718D01*
X68996415Y-141725718D02*
X68996415Y-142144766D01*
X69472606Y-141044766D02*
X68472606Y-141044766D01*
X68472606Y-140311432D02*
X68472606Y-140101908D01*
X68472606Y-140101908D02*
X68520225Y-139997146D01*
X68520225Y-139997146D02*
X68615463Y-139892384D01*
X68615463Y-139892384D02*
X68805939Y-139840003D01*
X68805939Y-139840003D02*
X69139272Y-139840003D01*
X69139272Y-139840003D02*
X69329748Y-139892384D01*
X69329748Y-139892384D02*
X69424987Y-139997146D01*
X69424987Y-139997146D02*
X69472606Y-140101908D01*
X69472606Y-140101908D02*
X69472606Y-140311432D01*
X69472606Y-140311432D02*
X69424987Y-140416194D01*
X69424987Y-140416194D02*
X69329748Y-140520956D01*
X69329748Y-140520956D02*
X69139272Y-140573337D01*
X69139272Y-140573337D02*
X68805939Y-140573337D01*
X68805939Y-140573337D02*
X68615463Y-140520956D01*
X68615463Y-140520956D02*
X68520225Y-140416194D01*
X68520225Y-140416194D02*
X68472606Y-140311432D01*
X68472606Y-139473337D02*
X68472606Y-138792384D01*
X68472606Y-138792384D02*
X68853558Y-139159051D01*
X68853558Y-139159051D02*
X68853558Y-139001908D01*
X68853558Y-139001908D02*
X68901177Y-138897146D01*
X68901177Y-138897146D02*
X68948796Y-138844765D01*
X68948796Y-138844765D02*
X69044034Y-138792384D01*
X69044034Y-138792384D02*
X69282129Y-138792384D01*
X69282129Y-138792384D02*
X69377367Y-138844765D01*
X69377367Y-138844765D02*
X69424987Y-138897146D01*
X69424987Y-138897146D02*
X69472606Y-139001908D01*
X69472606Y-139001908D02*
X69472606Y-139316194D01*
X69472606Y-139316194D02*
X69424987Y-139420956D01*
X69424987Y-139420956D02*
X69377367Y-139473337D01*
X68472606Y-137849527D02*
X68472606Y-138059051D01*
X68472606Y-138059051D02*
X68520225Y-138163813D01*
X68520225Y-138163813D02*
X68567844Y-138216194D01*
X68567844Y-138216194D02*
X68710701Y-138320956D01*
X68710701Y-138320956D02*
X68901177Y-138373337D01*
X68901177Y-138373337D02*
X69282129Y-138373337D01*
X69282129Y-138373337D02*
X69377367Y-138320956D01*
X69377367Y-138320956D02*
X69424987Y-138268575D01*
X69424987Y-138268575D02*
X69472606Y-138163813D01*
X69472606Y-138163813D02*
X69472606Y-137954289D01*
X69472606Y-137954289D02*
X69424987Y-137849527D01*
X69424987Y-137849527D02*
X69377367Y-137797146D01*
X69377367Y-137797146D02*
X69282129Y-137744765D01*
X69282129Y-137744765D02*
X69044034Y-137744765D01*
X69044034Y-137744765D02*
X68948796Y-137797146D01*
X68948796Y-137797146D02*
X68901177Y-137849527D01*
X68901177Y-137849527D02*
X68853558Y-137954289D01*
X68853558Y-137954289D02*
X68853558Y-138163813D01*
X68853558Y-138163813D02*
X68901177Y-138268575D01*
X68901177Y-138268575D02*
X68948796Y-138320956D01*
X68948796Y-138320956D02*
X69044034Y-138373337D01*
X70520225Y-124168575D02*
X70472606Y-124273337D01*
X70472606Y-124273337D02*
X70472606Y-124430480D01*
X70472606Y-124430480D02*
X70520225Y-124587623D01*
X70520225Y-124587623D02*
X70615463Y-124692385D01*
X70615463Y-124692385D02*
X70710701Y-124744766D01*
X70710701Y-124744766D02*
X70901177Y-124797147D01*
X70901177Y-124797147D02*
X71044034Y-124797147D01*
X71044034Y-124797147D02*
X71234510Y-124744766D01*
X71234510Y-124744766D02*
X71329748Y-124692385D01*
X71329748Y-124692385D02*
X71424987Y-124587623D01*
X71424987Y-124587623D02*
X71472606Y-124430480D01*
X71472606Y-124430480D02*
X71472606Y-124325718D01*
X71472606Y-124325718D02*
X71424987Y-124168575D01*
X71424987Y-124168575D02*
X71377367Y-124116194D01*
X71377367Y-124116194D02*
X71044034Y-124116194D01*
X71044034Y-124116194D02*
X71044034Y-124325718D01*
X71472606Y-123644766D02*
X70472606Y-123644766D01*
X70472606Y-123644766D02*
X70472606Y-123225718D01*
X70472606Y-123225718D02*
X70520225Y-123120956D01*
X70520225Y-123120956D02*
X70567844Y-123068575D01*
X70567844Y-123068575D02*
X70663082Y-123016194D01*
X70663082Y-123016194D02*
X70805939Y-123016194D01*
X70805939Y-123016194D02*
X70901177Y-123068575D01*
X70901177Y-123068575D02*
X70948796Y-123120956D01*
X70948796Y-123120956D02*
X70996415Y-123225718D01*
X70996415Y-123225718D02*
X70996415Y-123644766D01*
X71472606Y-122544766D02*
X70472606Y-122544766D01*
X70472606Y-121811432D02*
X70472606Y-121601908D01*
X70472606Y-121601908D02*
X70520225Y-121497146D01*
X70520225Y-121497146D02*
X70615463Y-121392384D01*
X70615463Y-121392384D02*
X70805939Y-121340003D01*
X70805939Y-121340003D02*
X71139272Y-121340003D01*
X71139272Y-121340003D02*
X71329748Y-121392384D01*
X71329748Y-121392384D02*
X71424987Y-121497146D01*
X71424987Y-121497146D02*
X71472606Y-121601908D01*
X71472606Y-121601908D02*
X71472606Y-121811432D01*
X71472606Y-121811432D02*
X71424987Y-121916194D01*
X71424987Y-121916194D02*
X71329748Y-122020956D01*
X71329748Y-122020956D02*
X71139272Y-122073337D01*
X71139272Y-122073337D02*
X70805939Y-122073337D01*
X70805939Y-122073337D02*
X70615463Y-122020956D01*
X70615463Y-122020956D02*
X70520225Y-121916194D01*
X70520225Y-121916194D02*
X70472606Y-121811432D01*
X71472606Y-120292384D02*
X71472606Y-120920956D01*
X71472606Y-120606670D02*
X70472606Y-120606670D01*
X70472606Y-120606670D02*
X70615463Y-120711432D01*
X70615463Y-120711432D02*
X70710701Y-120816194D01*
X70710701Y-120816194D02*
X70758320Y-120920956D01*
X71020225Y-142668575D02*
X70972606Y-142773337D01*
X70972606Y-142773337D02*
X70972606Y-142930480D01*
X70972606Y-142930480D02*
X71020225Y-143087623D01*
X71020225Y-143087623D02*
X71115463Y-143192385D01*
X71115463Y-143192385D02*
X71210701Y-143244766D01*
X71210701Y-143244766D02*
X71401177Y-143297147D01*
X71401177Y-143297147D02*
X71544034Y-143297147D01*
X71544034Y-143297147D02*
X71734510Y-143244766D01*
X71734510Y-143244766D02*
X71829748Y-143192385D01*
X71829748Y-143192385D02*
X71924987Y-143087623D01*
X71924987Y-143087623D02*
X71972606Y-142930480D01*
X71972606Y-142930480D02*
X71972606Y-142825718D01*
X71972606Y-142825718D02*
X71924987Y-142668575D01*
X71924987Y-142668575D02*
X71877367Y-142616194D01*
X71877367Y-142616194D02*
X71544034Y-142616194D01*
X71544034Y-142616194D02*
X71544034Y-142825718D01*
X71972606Y-142144766D02*
X70972606Y-142144766D01*
X70972606Y-142144766D02*
X70972606Y-141725718D01*
X70972606Y-141725718D02*
X71020225Y-141620956D01*
X71020225Y-141620956D02*
X71067844Y-141568575D01*
X71067844Y-141568575D02*
X71163082Y-141516194D01*
X71163082Y-141516194D02*
X71305939Y-141516194D01*
X71305939Y-141516194D02*
X71401177Y-141568575D01*
X71401177Y-141568575D02*
X71448796Y-141620956D01*
X71448796Y-141620956D02*
X71496415Y-141725718D01*
X71496415Y-141725718D02*
X71496415Y-142144766D01*
X71972606Y-141044766D02*
X70972606Y-141044766D01*
X70972606Y-140311432D02*
X70972606Y-140101908D01*
X70972606Y-140101908D02*
X71020225Y-139997146D01*
X71020225Y-139997146D02*
X71115463Y-139892384D01*
X71115463Y-139892384D02*
X71305939Y-139840003D01*
X71305939Y-139840003D02*
X71639272Y-139840003D01*
X71639272Y-139840003D02*
X71829748Y-139892384D01*
X71829748Y-139892384D02*
X71924987Y-139997146D01*
X71924987Y-139997146D02*
X71972606Y-140101908D01*
X71972606Y-140101908D02*
X71972606Y-140311432D01*
X71972606Y-140311432D02*
X71924987Y-140416194D01*
X71924987Y-140416194D02*
X71829748Y-140520956D01*
X71829748Y-140520956D02*
X71639272Y-140573337D01*
X71639272Y-140573337D02*
X71305939Y-140573337D01*
X71305939Y-140573337D02*
X71115463Y-140520956D01*
X71115463Y-140520956D02*
X71020225Y-140416194D01*
X71020225Y-140416194D02*
X70972606Y-140311432D01*
X70972606Y-139473337D02*
X70972606Y-138792384D01*
X70972606Y-138792384D02*
X71353558Y-139159051D01*
X71353558Y-139159051D02*
X71353558Y-139001908D01*
X71353558Y-139001908D02*
X71401177Y-138897146D01*
X71401177Y-138897146D02*
X71448796Y-138844765D01*
X71448796Y-138844765D02*
X71544034Y-138792384D01*
X71544034Y-138792384D02*
X71782129Y-138792384D01*
X71782129Y-138792384D02*
X71877367Y-138844765D01*
X71877367Y-138844765D02*
X71924987Y-138897146D01*
X71924987Y-138897146D02*
X71972606Y-139001908D01*
X71972606Y-139001908D02*
X71972606Y-139316194D01*
X71972606Y-139316194D02*
X71924987Y-139420956D01*
X71924987Y-139420956D02*
X71877367Y-139473337D01*
X71972606Y-138268575D02*
X71972606Y-138059051D01*
X71972606Y-138059051D02*
X71924987Y-137954289D01*
X71924987Y-137954289D02*
X71877367Y-137901908D01*
X71877367Y-137901908D02*
X71734510Y-137797146D01*
X71734510Y-137797146D02*
X71544034Y-137744765D01*
X71544034Y-137744765D02*
X71163082Y-137744765D01*
X71163082Y-137744765D02*
X71067844Y-137797146D01*
X71067844Y-137797146D02*
X71020225Y-137849527D01*
X71020225Y-137849527D02*
X70972606Y-137954289D01*
X70972606Y-137954289D02*
X70972606Y-138163813D01*
X70972606Y-138163813D02*
X71020225Y-138268575D01*
X71020225Y-138268575D02*
X71067844Y-138320956D01*
X71067844Y-138320956D02*
X71163082Y-138373337D01*
X71163082Y-138373337D02*
X71401177Y-138373337D01*
X71401177Y-138373337D02*
X71496415Y-138320956D01*
X71496415Y-138320956D02*
X71544034Y-138268575D01*
X71544034Y-138268575D02*
X71591653Y-138163813D01*
X71591653Y-138163813D02*
X71591653Y-137954289D01*
X71591653Y-137954289D02*
X71544034Y-137849527D01*
X71544034Y-137849527D02*
X71496415Y-137797146D01*
X71496415Y-137797146D02*
X71401177Y-137744765D01*
X73520225Y-124168575D02*
X73472606Y-124273337D01*
X73472606Y-124273337D02*
X73472606Y-124430480D01*
X73472606Y-124430480D02*
X73520225Y-124587623D01*
X73520225Y-124587623D02*
X73615463Y-124692385D01*
X73615463Y-124692385D02*
X73710701Y-124744766D01*
X73710701Y-124744766D02*
X73901177Y-124797147D01*
X73901177Y-124797147D02*
X74044034Y-124797147D01*
X74044034Y-124797147D02*
X74234510Y-124744766D01*
X74234510Y-124744766D02*
X74329748Y-124692385D01*
X74329748Y-124692385D02*
X74424987Y-124587623D01*
X74424987Y-124587623D02*
X74472606Y-124430480D01*
X74472606Y-124430480D02*
X74472606Y-124325718D01*
X74472606Y-124325718D02*
X74424987Y-124168575D01*
X74424987Y-124168575D02*
X74377367Y-124116194D01*
X74377367Y-124116194D02*
X74044034Y-124116194D01*
X74044034Y-124116194D02*
X74044034Y-124325718D01*
X74472606Y-123644766D02*
X73472606Y-123644766D01*
X73472606Y-123644766D02*
X73472606Y-123225718D01*
X73472606Y-123225718D02*
X73520225Y-123120956D01*
X73520225Y-123120956D02*
X73567844Y-123068575D01*
X73567844Y-123068575D02*
X73663082Y-123016194D01*
X73663082Y-123016194D02*
X73805939Y-123016194D01*
X73805939Y-123016194D02*
X73901177Y-123068575D01*
X73901177Y-123068575D02*
X73948796Y-123120956D01*
X73948796Y-123120956D02*
X73996415Y-123225718D01*
X73996415Y-123225718D02*
X73996415Y-123644766D01*
X74472606Y-122544766D02*
X73472606Y-122544766D01*
X73472606Y-121811432D02*
X73472606Y-121601908D01*
X73472606Y-121601908D02*
X73520225Y-121497146D01*
X73520225Y-121497146D02*
X73615463Y-121392384D01*
X73615463Y-121392384D02*
X73805939Y-121340003D01*
X73805939Y-121340003D02*
X74139272Y-121340003D01*
X74139272Y-121340003D02*
X74329748Y-121392384D01*
X74329748Y-121392384D02*
X74424987Y-121497146D01*
X74424987Y-121497146D02*
X74472606Y-121601908D01*
X74472606Y-121601908D02*
X74472606Y-121811432D01*
X74472606Y-121811432D02*
X74424987Y-121916194D01*
X74424987Y-121916194D02*
X74329748Y-122020956D01*
X74329748Y-122020956D02*
X74139272Y-122073337D01*
X74139272Y-122073337D02*
X73805939Y-122073337D01*
X73805939Y-122073337D02*
X73615463Y-122020956D01*
X73615463Y-122020956D02*
X73520225Y-121916194D01*
X73520225Y-121916194D02*
X73472606Y-121811432D01*
X73472606Y-120973337D02*
X73472606Y-120292384D01*
X73472606Y-120292384D02*
X73853558Y-120659051D01*
X73853558Y-120659051D02*
X73853558Y-120501908D01*
X73853558Y-120501908D02*
X73901177Y-120397146D01*
X73901177Y-120397146D02*
X73948796Y-120344765D01*
X73948796Y-120344765D02*
X74044034Y-120292384D01*
X74044034Y-120292384D02*
X74282129Y-120292384D01*
X74282129Y-120292384D02*
X74377367Y-120344765D01*
X74377367Y-120344765D02*
X74424987Y-120397146D01*
X74424987Y-120397146D02*
X74472606Y-120501908D01*
X74472606Y-120501908D02*
X74472606Y-120816194D01*
X74472606Y-120816194D02*
X74424987Y-120920956D01*
X74424987Y-120920956D02*
X74377367Y-120973337D01*
X73520225Y-142668575D02*
X73472606Y-142773337D01*
X73472606Y-142773337D02*
X73472606Y-142930480D01*
X73472606Y-142930480D02*
X73520225Y-143087623D01*
X73520225Y-143087623D02*
X73615463Y-143192385D01*
X73615463Y-143192385D02*
X73710701Y-143244766D01*
X73710701Y-143244766D02*
X73901177Y-143297147D01*
X73901177Y-143297147D02*
X74044034Y-143297147D01*
X74044034Y-143297147D02*
X74234510Y-143244766D01*
X74234510Y-143244766D02*
X74329748Y-143192385D01*
X74329748Y-143192385D02*
X74424987Y-143087623D01*
X74424987Y-143087623D02*
X74472606Y-142930480D01*
X74472606Y-142930480D02*
X74472606Y-142825718D01*
X74472606Y-142825718D02*
X74424987Y-142668575D01*
X74424987Y-142668575D02*
X74377367Y-142616194D01*
X74377367Y-142616194D02*
X74044034Y-142616194D01*
X74044034Y-142616194D02*
X74044034Y-142825718D01*
X74472606Y-142144766D02*
X73472606Y-142144766D01*
X73472606Y-142144766D02*
X73472606Y-141725718D01*
X73472606Y-141725718D02*
X73520225Y-141620956D01*
X73520225Y-141620956D02*
X73567844Y-141568575D01*
X73567844Y-141568575D02*
X73663082Y-141516194D01*
X73663082Y-141516194D02*
X73805939Y-141516194D01*
X73805939Y-141516194D02*
X73901177Y-141568575D01*
X73901177Y-141568575D02*
X73948796Y-141620956D01*
X73948796Y-141620956D02*
X73996415Y-141725718D01*
X73996415Y-141725718D02*
X73996415Y-142144766D01*
X74472606Y-141044766D02*
X73472606Y-141044766D01*
X73472606Y-140311432D02*
X73472606Y-140101908D01*
X73472606Y-140101908D02*
X73520225Y-139997146D01*
X73520225Y-139997146D02*
X73615463Y-139892384D01*
X73615463Y-139892384D02*
X73805939Y-139840003D01*
X73805939Y-139840003D02*
X74139272Y-139840003D01*
X74139272Y-139840003D02*
X74329748Y-139892384D01*
X74329748Y-139892384D02*
X74424987Y-139997146D01*
X74424987Y-139997146D02*
X74472606Y-140101908D01*
X74472606Y-140101908D02*
X74472606Y-140311432D01*
X74472606Y-140311432D02*
X74424987Y-140416194D01*
X74424987Y-140416194D02*
X74329748Y-140520956D01*
X74329748Y-140520956D02*
X74139272Y-140573337D01*
X74139272Y-140573337D02*
X73805939Y-140573337D01*
X73805939Y-140573337D02*
X73615463Y-140520956D01*
X73615463Y-140520956D02*
X73520225Y-140416194D01*
X73520225Y-140416194D02*
X73472606Y-140311432D01*
X73472606Y-139473337D02*
X73472606Y-138792384D01*
X73472606Y-138792384D02*
X73853558Y-139159051D01*
X73853558Y-139159051D02*
X73853558Y-139001908D01*
X73853558Y-139001908D02*
X73901177Y-138897146D01*
X73901177Y-138897146D02*
X73948796Y-138844765D01*
X73948796Y-138844765D02*
X74044034Y-138792384D01*
X74044034Y-138792384D02*
X74282129Y-138792384D01*
X74282129Y-138792384D02*
X74377367Y-138844765D01*
X74377367Y-138844765D02*
X74424987Y-138897146D01*
X74424987Y-138897146D02*
X74472606Y-139001908D01*
X74472606Y-139001908D02*
X74472606Y-139316194D01*
X74472606Y-139316194D02*
X74424987Y-139420956D01*
X74424987Y-139420956D02*
X74377367Y-139473337D01*
X73805939Y-137849527D02*
X74472606Y-137849527D01*
X73424987Y-138111432D02*
X74139272Y-138373337D01*
X74139272Y-138373337D02*
X74139272Y-137692384D01*
X76020225Y-125168575D02*
X75972606Y-125273337D01*
X75972606Y-125273337D02*
X75972606Y-125430480D01*
X75972606Y-125430480D02*
X76020225Y-125587623D01*
X76020225Y-125587623D02*
X76115463Y-125692385D01*
X76115463Y-125692385D02*
X76210701Y-125744766D01*
X76210701Y-125744766D02*
X76401177Y-125797147D01*
X76401177Y-125797147D02*
X76544034Y-125797147D01*
X76544034Y-125797147D02*
X76734510Y-125744766D01*
X76734510Y-125744766D02*
X76829748Y-125692385D01*
X76829748Y-125692385D02*
X76924987Y-125587623D01*
X76924987Y-125587623D02*
X76972606Y-125430480D01*
X76972606Y-125430480D02*
X76972606Y-125325718D01*
X76972606Y-125325718D02*
X76924987Y-125168575D01*
X76924987Y-125168575D02*
X76877367Y-125116194D01*
X76877367Y-125116194D02*
X76544034Y-125116194D01*
X76544034Y-125116194D02*
X76544034Y-125325718D01*
X76972606Y-124644766D02*
X75972606Y-124644766D01*
X75972606Y-124644766D02*
X75972606Y-124225718D01*
X75972606Y-124225718D02*
X76020225Y-124120956D01*
X76020225Y-124120956D02*
X76067844Y-124068575D01*
X76067844Y-124068575D02*
X76163082Y-124016194D01*
X76163082Y-124016194D02*
X76305939Y-124016194D01*
X76305939Y-124016194D02*
X76401177Y-124068575D01*
X76401177Y-124068575D02*
X76448796Y-124120956D01*
X76448796Y-124120956D02*
X76496415Y-124225718D01*
X76496415Y-124225718D02*
X76496415Y-124644766D01*
X76972606Y-123544766D02*
X75972606Y-123544766D01*
X75972606Y-122811432D02*
X75972606Y-122601908D01*
X75972606Y-122601908D02*
X76020225Y-122497146D01*
X76020225Y-122497146D02*
X76115463Y-122392384D01*
X76115463Y-122392384D02*
X76305939Y-122340003D01*
X76305939Y-122340003D02*
X76639272Y-122340003D01*
X76639272Y-122340003D02*
X76829748Y-122392384D01*
X76829748Y-122392384D02*
X76924987Y-122497146D01*
X76924987Y-122497146D02*
X76972606Y-122601908D01*
X76972606Y-122601908D02*
X76972606Y-122811432D01*
X76972606Y-122811432D02*
X76924987Y-122916194D01*
X76924987Y-122916194D02*
X76829748Y-123020956D01*
X76829748Y-123020956D02*
X76639272Y-123073337D01*
X76639272Y-123073337D02*
X76305939Y-123073337D01*
X76305939Y-123073337D02*
X76115463Y-123020956D01*
X76115463Y-123020956D02*
X76020225Y-122916194D01*
X76020225Y-122916194D02*
X75972606Y-122811432D01*
X76067844Y-121920956D02*
X76020225Y-121868575D01*
X76020225Y-121868575D02*
X75972606Y-121763813D01*
X75972606Y-121763813D02*
X75972606Y-121501908D01*
X75972606Y-121501908D02*
X76020225Y-121397146D01*
X76020225Y-121397146D02*
X76067844Y-121344765D01*
X76067844Y-121344765D02*
X76163082Y-121292384D01*
X76163082Y-121292384D02*
X76258320Y-121292384D01*
X76258320Y-121292384D02*
X76401177Y-121344765D01*
X76401177Y-121344765D02*
X76972606Y-121973337D01*
X76972606Y-121973337D02*
X76972606Y-121292384D01*
X76972606Y-120244765D02*
X76972606Y-120873337D01*
X76972606Y-120559051D02*
X75972606Y-120559051D01*
X75972606Y-120559051D02*
X76115463Y-120663813D01*
X76115463Y-120663813D02*
X76210701Y-120768575D01*
X76210701Y-120768575D02*
X76258320Y-120873337D01*
X76020225Y-142668575D02*
X75972606Y-142773337D01*
X75972606Y-142773337D02*
X75972606Y-142930480D01*
X75972606Y-142930480D02*
X76020225Y-143087623D01*
X76020225Y-143087623D02*
X76115463Y-143192385D01*
X76115463Y-143192385D02*
X76210701Y-143244766D01*
X76210701Y-143244766D02*
X76401177Y-143297147D01*
X76401177Y-143297147D02*
X76544034Y-143297147D01*
X76544034Y-143297147D02*
X76734510Y-143244766D01*
X76734510Y-143244766D02*
X76829748Y-143192385D01*
X76829748Y-143192385D02*
X76924987Y-143087623D01*
X76924987Y-143087623D02*
X76972606Y-142930480D01*
X76972606Y-142930480D02*
X76972606Y-142825718D01*
X76972606Y-142825718D02*
X76924987Y-142668575D01*
X76924987Y-142668575D02*
X76877367Y-142616194D01*
X76877367Y-142616194D02*
X76544034Y-142616194D01*
X76544034Y-142616194D02*
X76544034Y-142825718D01*
X76972606Y-142144766D02*
X75972606Y-142144766D01*
X75972606Y-142144766D02*
X75972606Y-141725718D01*
X75972606Y-141725718D02*
X76020225Y-141620956D01*
X76020225Y-141620956D02*
X76067844Y-141568575D01*
X76067844Y-141568575D02*
X76163082Y-141516194D01*
X76163082Y-141516194D02*
X76305939Y-141516194D01*
X76305939Y-141516194D02*
X76401177Y-141568575D01*
X76401177Y-141568575D02*
X76448796Y-141620956D01*
X76448796Y-141620956D02*
X76496415Y-141725718D01*
X76496415Y-141725718D02*
X76496415Y-142144766D01*
X76972606Y-141044766D02*
X75972606Y-141044766D01*
X75972606Y-140311432D02*
X75972606Y-140101908D01*
X75972606Y-140101908D02*
X76020225Y-139997146D01*
X76020225Y-139997146D02*
X76115463Y-139892384D01*
X76115463Y-139892384D02*
X76305939Y-139840003D01*
X76305939Y-139840003D02*
X76639272Y-139840003D01*
X76639272Y-139840003D02*
X76829748Y-139892384D01*
X76829748Y-139892384D02*
X76924987Y-139997146D01*
X76924987Y-139997146D02*
X76972606Y-140101908D01*
X76972606Y-140101908D02*
X76972606Y-140311432D01*
X76972606Y-140311432D02*
X76924987Y-140416194D01*
X76924987Y-140416194D02*
X76829748Y-140520956D01*
X76829748Y-140520956D02*
X76639272Y-140573337D01*
X76639272Y-140573337D02*
X76305939Y-140573337D01*
X76305939Y-140573337D02*
X76115463Y-140520956D01*
X76115463Y-140520956D02*
X76020225Y-140416194D01*
X76020225Y-140416194D02*
X75972606Y-140311432D01*
X75972606Y-139473337D02*
X75972606Y-138792384D01*
X75972606Y-138792384D02*
X76353558Y-139159051D01*
X76353558Y-139159051D02*
X76353558Y-139001908D01*
X76353558Y-139001908D02*
X76401177Y-138897146D01*
X76401177Y-138897146D02*
X76448796Y-138844765D01*
X76448796Y-138844765D02*
X76544034Y-138792384D01*
X76544034Y-138792384D02*
X76782129Y-138792384D01*
X76782129Y-138792384D02*
X76877367Y-138844765D01*
X76877367Y-138844765D02*
X76924987Y-138897146D01*
X76924987Y-138897146D02*
X76972606Y-139001908D01*
X76972606Y-139001908D02*
X76972606Y-139316194D01*
X76972606Y-139316194D02*
X76924987Y-139420956D01*
X76924987Y-139420956D02*
X76877367Y-139473337D01*
X75972606Y-137797146D02*
X75972606Y-138320956D01*
X75972606Y-138320956D02*
X76448796Y-138373337D01*
X76448796Y-138373337D02*
X76401177Y-138320956D01*
X76401177Y-138320956D02*
X76353558Y-138216194D01*
X76353558Y-138216194D02*
X76353558Y-137954289D01*
X76353558Y-137954289D02*
X76401177Y-137849527D01*
X76401177Y-137849527D02*
X76448796Y-137797146D01*
X76448796Y-137797146D02*
X76544034Y-137744765D01*
X76544034Y-137744765D02*
X76782129Y-137744765D01*
X76782129Y-137744765D02*
X76877367Y-137797146D01*
X76877367Y-137797146D02*
X76924987Y-137849527D01*
X76924987Y-137849527D02*
X76972606Y-137954289D01*
X76972606Y-137954289D02*
X76972606Y-138216194D01*
X76972606Y-138216194D02*
X76924987Y-138320956D01*
X76924987Y-138320956D02*
X76877367Y-138373337D01*
X78520225Y-125168575D02*
X78472606Y-125273337D01*
X78472606Y-125273337D02*
X78472606Y-125430480D01*
X78472606Y-125430480D02*
X78520225Y-125587623D01*
X78520225Y-125587623D02*
X78615463Y-125692385D01*
X78615463Y-125692385D02*
X78710701Y-125744766D01*
X78710701Y-125744766D02*
X78901177Y-125797147D01*
X78901177Y-125797147D02*
X79044034Y-125797147D01*
X79044034Y-125797147D02*
X79234510Y-125744766D01*
X79234510Y-125744766D02*
X79329748Y-125692385D01*
X79329748Y-125692385D02*
X79424987Y-125587623D01*
X79424987Y-125587623D02*
X79472606Y-125430480D01*
X79472606Y-125430480D02*
X79472606Y-125325718D01*
X79472606Y-125325718D02*
X79424987Y-125168575D01*
X79424987Y-125168575D02*
X79377367Y-125116194D01*
X79377367Y-125116194D02*
X79044034Y-125116194D01*
X79044034Y-125116194D02*
X79044034Y-125325718D01*
X79472606Y-124644766D02*
X78472606Y-124644766D01*
X78472606Y-124644766D02*
X78472606Y-124225718D01*
X78472606Y-124225718D02*
X78520225Y-124120956D01*
X78520225Y-124120956D02*
X78567844Y-124068575D01*
X78567844Y-124068575D02*
X78663082Y-124016194D01*
X78663082Y-124016194D02*
X78805939Y-124016194D01*
X78805939Y-124016194D02*
X78901177Y-124068575D01*
X78901177Y-124068575D02*
X78948796Y-124120956D01*
X78948796Y-124120956D02*
X78996415Y-124225718D01*
X78996415Y-124225718D02*
X78996415Y-124644766D01*
X79472606Y-123544766D02*
X78472606Y-123544766D01*
X78472606Y-122811432D02*
X78472606Y-122601908D01*
X78472606Y-122601908D02*
X78520225Y-122497146D01*
X78520225Y-122497146D02*
X78615463Y-122392384D01*
X78615463Y-122392384D02*
X78805939Y-122340003D01*
X78805939Y-122340003D02*
X79139272Y-122340003D01*
X79139272Y-122340003D02*
X79329748Y-122392384D01*
X79329748Y-122392384D02*
X79424987Y-122497146D01*
X79424987Y-122497146D02*
X79472606Y-122601908D01*
X79472606Y-122601908D02*
X79472606Y-122811432D01*
X79472606Y-122811432D02*
X79424987Y-122916194D01*
X79424987Y-122916194D02*
X79329748Y-123020956D01*
X79329748Y-123020956D02*
X79139272Y-123073337D01*
X79139272Y-123073337D02*
X78805939Y-123073337D01*
X78805939Y-123073337D02*
X78615463Y-123020956D01*
X78615463Y-123020956D02*
X78520225Y-122916194D01*
X78520225Y-122916194D02*
X78472606Y-122811432D01*
X79472606Y-121292384D02*
X79472606Y-121920956D01*
X79472606Y-121606670D02*
X78472606Y-121606670D01*
X78472606Y-121606670D02*
X78615463Y-121711432D01*
X78615463Y-121711432D02*
X78710701Y-121816194D01*
X78710701Y-121816194D02*
X78758320Y-121920956D01*
X79472606Y-120768575D02*
X79472606Y-120559051D01*
X79472606Y-120559051D02*
X79424987Y-120454289D01*
X79424987Y-120454289D02*
X79377367Y-120401908D01*
X79377367Y-120401908D02*
X79234510Y-120297146D01*
X79234510Y-120297146D02*
X79044034Y-120244765D01*
X79044034Y-120244765D02*
X78663082Y-120244765D01*
X78663082Y-120244765D02*
X78567844Y-120297146D01*
X78567844Y-120297146D02*
X78520225Y-120349527D01*
X78520225Y-120349527D02*
X78472606Y-120454289D01*
X78472606Y-120454289D02*
X78472606Y-120663813D01*
X78472606Y-120663813D02*
X78520225Y-120768575D01*
X78520225Y-120768575D02*
X78567844Y-120820956D01*
X78567844Y-120820956D02*
X78663082Y-120873337D01*
X78663082Y-120873337D02*
X78901177Y-120873337D01*
X78901177Y-120873337D02*
X78996415Y-120820956D01*
X78996415Y-120820956D02*
X79044034Y-120768575D01*
X79044034Y-120768575D02*
X79091653Y-120663813D01*
X79091653Y-120663813D02*
X79091653Y-120454289D01*
X79091653Y-120454289D02*
X79044034Y-120349527D01*
X79044034Y-120349527D02*
X78996415Y-120297146D01*
X78996415Y-120297146D02*
X78901177Y-120244765D01*
X78520225Y-142668575D02*
X78472606Y-142773337D01*
X78472606Y-142773337D02*
X78472606Y-142930480D01*
X78472606Y-142930480D02*
X78520225Y-143087623D01*
X78520225Y-143087623D02*
X78615463Y-143192385D01*
X78615463Y-143192385D02*
X78710701Y-143244766D01*
X78710701Y-143244766D02*
X78901177Y-143297147D01*
X78901177Y-143297147D02*
X79044034Y-143297147D01*
X79044034Y-143297147D02*
X79234510Y-143244766D01*
X79234510Y-143244766D02*
X79329748Y-143192385D01*
X79329748Y-143192385D02*
X79424987Y-143087623D01*
X79424987Y-143087623D02*
X79472606Y-142930480D01*
X79472606Y-142930480D02*
X79472606Y-142825718D01*
X79472606Y-142825718D02*
X79424987Y-142668575D01*
X79424987Y-142668575D02*
X79377367Y-142616194D01*
X79377367Y-142616194D02*
X79044034Y-142616194D01*
X79044034Y-142616194D02*
X79044034Y-142825718D01*
X79472606Y-142144766D02*
X78472606Y-142144766D01*
X78472606Y-142144766D02*
X78472606Y-141725718D01*
X78472606Y-141725718D02*
X78520225Y-141620956D01*
X78520225Y-141620956D02*
X78567844Y-141568575D01*
X78567844Y-141568575D02*
X78663082Y-141516194D01*
X78663082Y-141516194D02*
X78805939Y-141516194D01*
X78805939Y-141516194D02*
X78901177Y-141568575D01*
X78901177Y-141568575D02*
X78948796Y-141620956D01*
X78948796Y-141620956D02*
X78996415Y-141725718D01*
X78996415Y-141725718D02*
X78996415Y-142144766D01*
X79472606Y-141044766D02*
X78472606Y-141044766D01*
X78472606Y-140311432D02*
X78472606Y-140101908D01*
X78472606Y-140101908D02*
X78520225Y-139997146D01*
X78520225Y-139997146D02*
X78615463Y-139892384D01*
X78615463Y-139892384D02*
X78805939Y-139840003D01*
X78805939Y-139840003D02*
X79139272Y-139840003D01*
X79139272Y-139840003D02*
X79329748Y-139892384D01*
X79329748Y-139892384D02*
X79424987Y-139997146D01*
X79424987Y-139997146D02*
X79472606Y-140101908D01*
X79472606Y-140101908D02*
X79472606Y-140311432D01*
X79472606Y-140311432D02*
X79424987Y-140416194D01*
X79424987Y-140416194D02*
X79329748Y-140520956D01*
X79329748Y-140520956D02*
X79139272Y-140573337D01*
X79139272Y-140573337D02*
X78805939Y-140573337D01*
X78805939Y-140573337D02*
X78615463Y-140520956D01*
X78615463Y-140520956D02*
X78520225Y-140416194D01*
X78520225Y-140416194D02*
X78472606Y-140311432D01*
X78472606Y-139473337D02*
X78472606Y-138792384D01*
X78472606Y-138792384D02*
X78853558Y-139159051D01*
X78853558Y-139159051D02*
X78853558Y-139001908D01*
X78853558Y-139001908D02*
X78901177Y-138897146D01*
X78901177Y-138897146D02*
X78948796Y-138844765D01*
X78948796Y-138844765D02*
X79044034Y-138792384D01*
X79044034Y-138792384D02*
X79282129Y-138792384D01*
X79282129Y-138792384D02*
X79377367Y-138844765D01*
X79377367Y-138844765D02*
X79424987Y-138897146D01*
X79424987Y-138897146D02*
X79472606Y-139001908D01*
X79472606Y-139001908D02*
X79472606Y-139316194D01*
X79472606Y-139316194D02*
X79424987Y-139420956D01*
X79424987Y-139420956D02*
X79377367Y-139473337D01*
X78567844Y-138373337D02*
X78520225Y-138320956D01*
X78520225Y-138320956D02*
X78472606Y-138216194D01*
X78472606Y-138216194D02*
X78472606Y-137954289D01*
X78472606Y-137954289D02*
X78520225Y-137849527D01*
X78520225Y-137849527D02*
X78567844Y-137797146D01*
X78567844Y-137797146D02*
X78663082Y-137744765D01*
X78663082Y-137744765D02*
X78758320Y-137744765D01*
X78758320Y-137744765D02*
X78901177Y-137797146D01*
X78901177Y-137797146D02*
X79472606Y-138425718D01*
X79472606Y-138425718D02*
X79472606Y-137744765D01*
X81020225Y-125168575D02*
X80972606Y-125273337D01*
X80972606Y-125273337D02*
X80972606Y-125430480D01*
X80972606Y-125430480D02*
X81020225Y-125587623D01*
X81020225Y-125587623D02*
X81115463Y-125692385D01*
X81115463Y-125692385D02*
X81210701Y-125744766D01*
X81210701Y-125744766D02*
X81401177Y-125797147D01*
X81401177Y-125797147D02*
X81544034Y-125797147D01*
X81544034Y-125797147D02*
X81734510Y-125744766D01*
X81734510Y-125744766D02*
X81829748Y-125692385D01*
X81829748Y-125692385D02*
X81924987Y-125587623D01*
X81924987Y-125587623D02*
X81972606Y-125430480D01*
X81972606Y-125430480D02*
X81972606Y-125325718D01*
X81972606Y-125325718D02*
X81924987Y-125168575D01*
X81924987Y-125168575D02*
X81877367Y-125116194D01*
X81877367Y-125116194D02*
X81544034Y-125116194D01*
X81544034Y-125116194D02*
X81544034Y-125325718D01*
X81972606Y-124644766D02*
X80972606Y-124644766D01*
X80972606Y-124644766D02*
X80972606Y-124225718D01*
X80972606Y-124225718D02*
X81020225Y-124120956D01*
X81020225Y-124120956D02*
X81067844Y-124068575D01*
X81067844Y-124068575D02*
X81163082Y-124016194D01*
X81163082Y-124016194D02*
X81305939Y-124016194D01*
X81305939Y-124016194D02*
X81401177Y-124068575D01*
X81401177Y-124068575D02*
X81448796Y-124120956D01*
X81448796Y-124120956D02*
X81496415Y-124225718D01*
X81496415Y-124225718D02*
X81496415Y-124644766D01*
X81972606Y-123544766D02*
X80972606Y-123544766D01*
X80972606Y-122811432D02*
X80972606Y-122601908D01*
X80972606Y-122601908D02*
X81020225Y-122497146D01*
X81020225Y-122497146D02*
X81115463Y-122392384D01*
X81115463Y-122392384D02*
X81305939Y-122340003D01*
X81305939Y-122340003D02*
X81639272Y-122340003D01*
X81639272Y-122340003D02*
X81829748Y-122392384D01*
X81829748Y-122392384D02*
X81924987Y-122497146D01*
X81924987Y-122497146D02*
X81972606Y-122601908D01*
X81972606Y-122601908D02*
X81972606Y-122811432D01*
X81972606Y-122811432D02*
X81924987Y-122916194D01*
X81924987Y-122916194D02*
X81829748Y-123020956D01*
X81829748Y-123020956D02*
X81639272Y-123073337D01*
X81639272Y-123073337D02*
X81305939Y-123073337D01*
X81305939Y-123073337D02*
X81115463Y-123020956D01*
X81115463Y-123020956D02*
X81020225Y-122916194D01*
X81020225Y-122916194D02*
X80972606Y-122811432D01*
X81972606Y-121292384D02*
X81972606Y-121920956D01*
X81972606Y-121606670D02*
X80972606Y-121606670D01*
X80972606Y-121606670D02*
X81115463Y-121711432D01*
X81115463Y-121711432D02*
X81210701Y-121816194D01*
X81210701Y-121816194D02*
X81258320Y-121920956D01*
X81401177Y-120663813D02*
X81353558Y-120768575D01*
X81353558Y-120768575D02*
X81305939Y-120820956D01*
X81305939Y-120820956D02*
X81210701Y-120873337D01*
X81210701Y-120873337D02*
X81163082Y-120873337D01*
X81163082Y-120873337D02*
X81067844Y-120820956D01*
X81067844Y-120820956D02*
X81020225Y-120768575D01*
X81020225Y-120768575D02*
X80972606Y-120663813D01*
X80972606Y-120663813D02*
X80972606Y-120454289D01*
X80972606Y-120454289D02*
X81020225Y-120349527D01*
X81020225Y-120349527D02*
X81067844Y-120297146D01*
X81067844Y-120297146D02*
X81163082Y-120244765D01*
X81163082Y-120244765D02*
X81210701Y-120244765D01*
X81210701Y-120244765D02*
X81305939Y-120297146D01*
X81305939Y-120297146D02*
X81353558Y-120349527D01*
X81353558Y-120349527D02*
X81401177Y-120454289D01*
X81401177Y-120454289D02*
X81401177Y-120663813D01*
X81401177Y-120663813D02*
X81448796Y-120768575D01*
X81448796Y-120768575D02*
X81496415Y-120820956D01*
X81496415Y-120820956D02*
X81591653Y-120873337D01*
X81591653Y-120873337D02*
X81782129Y-120873337D01*
X81782129Y-120873337D02*
X81877367Y-120820956D01*
X81877367Y-120820956D02*
X81924987Y-120768575D01*
X81924987Y-120768575D02*
X81972606Y-120663813D01*
X81972606Y-120663813D02*
X81972606Y-120454289D01*
X81972606Y-120454289D02*
X81924987Y-120349527D01*
X81924987Y-120349527D02*
X81877367Y-120297146D01*
X81877367Y-120297146D02*
X81782129Y-120244765D01*
X81782129Y-120244765D02*
X81591653Y-120244765D01*
X81591653Y-120244765D02*
X81496415Y-120297146D01*
X81496415Y-120297146D02*
X81448796Y-120349527D01*
X81448796Y-120349527D02*
X81401177Y-120454289D01*
X81020225Y-142668575D02*
X80972606Y-142773337D01*
X80972606Y-142773337D02*
X80972606Y-142930480D01*
X80972606Y-142930480D02*
X81020225Y-143087623D01*
X81020225Y-143087623D02*
X81115463Y-143192385D01*
X81115463Y-143192385D02*
X81210701Y-143244766D01*
X81210701Y-143244766D02*
X81401177Y-143297147D01*
X81401177Y-143297147D02*
X81544034Y-143297147D01*
X81544034Y-143297147D02*
X81734510Y-143244766D01*
X81734510Y-143244766D02*
X81829748Y-143192385D01*
X81829748Y-143192385D02*
X81924987Y-143087623D01*
X81924987Y-143087623D02*
X81972606Y-142930480D01*
X81972606Y-142930480D02*
X81972606Y-142825718D01*
X81972606Y-142825718D02*
X81924987Y-142668575D01*
X81924987Y-142668575D02*
X81877367Y-142616194D01*
X81877367Y-142616194D02*
X81544034Y-142616194D01*
X81544034Y-142616194D02*
X81544034Y-142825718D01*
X81972606Y-142144766D02*
X80972606Y-142144766D01*
X80972606Y-142144766D02*
X80972606Y-141725718D01*
X80972606Y-141725718D02*
X81020225Y-141620956D01*
X81020225Y-141620956D02*
X81067844Y-141568575D01*
X81067844Y-141568575D02*
X81163082Y-141516194D01*
X81163082Y-141516194D02*
X81305939Y-141516194D01*
X81305939Y-141516194D02*
X81401177Y-141568575D01*
X81401177Y-141568575D02*
X81448796Y-141620956D01*
X81448796Y-141620956D02*
X81496415Y-141725718D01*
X81496415Y-141725718D02*
X81496415Y-142144766D01*
X81972606Y-141044766D02*
X80972606Y-141044766D01*
X80972606Y-140311432D02*
X80972606Y-140101908D01*
X80972606Y-140101908D02*
X81020225Y-139997146D01*
X81020225Y-139997146D02*
X81115463Y-139892384D01*
X81115463Y-139892384D02*
X81305939Y-139840003D01*
X81305939Y-139840003D02*
X81639272Y-139840003D01*
X81639272Y-139840003D02*
X81829748Y-139892384D01*
X81829748Y-139892384D02*
X81924987Y-139997146D01*
X81924987Y-139997146D02*
X81972606Y-140101908D01*
X81972606Y-140101908D02*
X81972606Y-140311432D01*
X81972606Y-140311432D02*
X81924987Y-140416194D01*
X81924987Y-140416194D02*
X81829748Y-140520956D01*
X81829748Y-140520956D02*
X81639272Y-140573337D01*
X81639272Y-140573337D02*
X81305939Y-140573337D01*
X81305939Y-140573337D02*
X81115463Y-140520956D01*
X81115463Y-140520956D02*
X81020225Y-140416194D01*
X81020225Y-140416194D02*
X80972606Y-140311432D01*
X80972606Y-139473337D02*
X80972606Y-138792384D01*
X80972606Y-138792384D02*
X81353558Y-139159051D01*
X81353558Y-139159051D02*
X81353558Y-139001908D01*
X81353558Y-139001908D02*
X81401177Y-138897146D01*
X81401177Y-138897146D02*
X81448796Y-138844765D01*
X81448796Y-138844765D02*
X81544034Y-138792384D01*
X81544034Y-138792384D02*
X81782129Y-138792384D01*
X81782129Y-138792384D02*
X81877367Y-138844765D01*
X81877367Y-138844765D02*
X81924987Y-138897146D01*
X81924987Y-138897146D02*
X81972606Y-139001908D01*
X81972606Y-139001908D02*
X81972606Y-139316194D01*
X81972606Y-139316194D02*
X81924987Y-139420956D01*
X81924987Y-139420956D02*
X81877367Y-139473337D01*
X80972606Y-138425718D02*
X80972606Y-137744765D01*
X80972606Y-137744765D02*
X81353558Y-138111432D01*
X81353558Y-138111432D02*
X81353558Y-137954289D01*
X81353558Y-137954289D02*
X81401177Y-137849527D01*
X81401177Y-137849527D02*
X81448796Y-137797146D01*
X81448796Y-137797146D02*
X81544034Y-137744765D01*
X81544034Y-137744765D02*
X81782129Y-137744765D01*
X81782129Y-137744765D02*
X81877367Y-137797146D01*
X81877367Y-137797146D02*
X81924987Y-137849527D01*
X81924987Y-137849527D02*
X81972606Y-137954289D01*
X81972606Y-137954289D02*
X81972606Y-138268575D01*
X81972606Y-138268575D02*
X81924987Y-138373337D01*
X81924987Y-138373337D02*
X81877367Y-138425718D01*
X83520225Y-124168575D02*
X83472606Y-124273337D01*
X83472606Y-124273337D02*
X83472606Y-124430480D01*
X83472606Y-124430480D02*
X83520225Y-124587623D01*
X83520225Y-124587623D02*
X83615463Y-124692385D01*
X83615463Y-124692385D02*
X83710701Y-124744766D01*
X83710701Y-124744766D02*
X83901177Y-124797147D01*
X83901177Y-124797147D02*
X84044034Y-124797147D01*
X84044034Y-124797147D02*
X84234510Y-124744766D01*
X84234510Y-124744766D02*
X84329748Y-124692385D01*
X84329748Y-124692385D02*
X84424987Y-124587623D01*
X84424987Y-124587623D02*
X84472606Y-124430480D01*
X84472606Y-124430480D02*
X84472606Y-124325718D01*
X84472606Y-124325718D02*
X84424987Y-124168575D01*
X84424987Y-124168575D02*
X84377367Y-124116194D01*
X84377367Y-124116194D02*
X84044034Y-124116194D01*
X84044034Y-124116194D02*
X84044034Y-124325718D01*
X84472606Y-123644766D02*
X83472606Y-123644766D01*
X83472606Y-123644766D02*
X83472606Y-123225718D01*
X83472606Y-123225718D02*
X83520225Y-123120956D01*
X83520225Y-123120956D02*
X83567844Y-123068575D01*
X83567844Y-123068575D02*
X83663082Y-123016194D01*
X83663082Y-123016194D02*
X83805939Y-123016194D01*
X83805939Y-123016194D02*
X83901177Y-123068575D01*
X83901177Y-123068575D02*
X83948796Y-123120956D01*
X83948796Y-123120956D02*
X83996415Y-123225718D01*
X83996415Y-123225718D02*
X83996415Y-123644766D01*
X84472606Y-122544766D02*
X83472606Y-122544766D01*
X83472606Y-121811432D02*
X83472606Y-121601908D01*
X83472606Y-121601908D02*
X83520225Y-121497146D01*
X83520225Y-121497146D02*
X83615463Y-121392384D01*
X83615463Y-121392384D02*
X83805939Y-121340003D01*
X83805939Y-121340003D02*
X84139272Y-121340003D01*
X84139272Y-121340003D02*
X84329748Y-121392384D01*
X84329748Y-121392384D02*
X84424987Y-121497146D01*
X84424987Y-121497146D02*
X84472606Y-121601908D01*
X84472606Y-121601908D02*
X84472606Y-121811432D01*
X84472606Y-121811432D02*
X84424987Y-121916194D01*
X84424987Y-121916194D02*
X84329748Y-122020956D01*
X84329748Y-122020956D02*
X84139272Y-122073337D01*
X84139272Y-122073337D02*
X83805939Y-122073337D01*
X83805939Y-122073337D02*
X83615463Y-122020956D01*
X83615463Y-122020956D02*
X83520225Y-121916194D01*
X83520225Y-121916194D02*
X83472606Y-121811432D01*
X83472606Y-120344765D02*
X83472606Y-120868575D01*
X83472606Y-120868575D02*
X83948796Y-120920956D01*
X83948796Y-120920956D02*
X83901177Y-120868575D01*
X83901177Y-120868575D02*
X83853558Y-120763813D01*
X83853558Y-120763813D02*
X83853558Y-120501908D01*
X83853558Y-120501908D02*
X83901177Y-120397146D01*
X83901177Y-120397146D02*
X83948796Y-120344765D01*
X83948796Y-120344765D02*
X84044034Y-120292384D01*
X84044034Y-120292384D02*
X84282129Y-120292384D01*
X84282129Y-120292384D02*
X84377367Y-120344765D01*
X84377367Y-120344765D02*
X84424987Y-120397146D01*
X84424987Y-120397146D02*
X84472606Y-120501908D01*
X84472606Y-120501908D02*
X84472606Y-120763813D01*
X84472606Y-120763813D02*
X84424987Y-120868575D01*
X84424987Y-120868575D02*
X84377367Y-120920956D01*
X83520225Y-142668575D02*
X83472606Y-142773337D01*
X83472606Y-142773337D02*
X83472606Y-142930480D01*
X83472606Y-142930480D02*
X83520225Y-143087623D01*
X83520225Y-143087623D02*
X83615463Y-143192385D01*
X83615463Y-143192385D02*
X83710701Y-143244766D01*
X83710701Y-143244766D02*
X83901177Y-143297147D01*
X83901177Y-143297147D02*
X84044034Y-143297147D01*
X84044034Y-143297147D02*
X84234510Y-143244766D01*
X84234510Y-143244766D02*
X84329748Y-143192385D01*
X84329748Y-143192385D02*
X84424987Y-143087623D01*
X84424987Y-143087623D02*
X84472606Y-142930480D01*
X84472606Y-142930480D02*
X84472606Y-142825718D01*
X84472606Y-142825718D02*
X84424987Y-142668575D01*
X84424987Y-142668575D02*
X84377367Y-142616194D01*
X84377367Y-142616194D02*
X84044034Y-142616194D01*
X84044034Y-142616194D02*
X84044034Y-142825718D01*
X84472606Y-142144766D02*
X83472606Y-142144766D01*
X83472606Y-142144766D02*
X83472606Y-141725718D01*
X83472606Y-141725718D02*
X83520225Y-141620956D01*
X83520225Y-141620956D02*
X83567844Y-141568575D01*
X83567844Y-141568575D02*
X83663082Y-141516194D01*
X83663082Y-141516194D02*
X83805939Y-141516194D01*
X83805939Y-141516194D02*
X83901177Y-141568575D01*
X83901177Y-141568575D02*
X83948796Y-141620956D01*
X83948796Y-141620956D02*
X83996415Y-141725718D01*
X83996415Y-141725718D02*
X83996415Y-142144766D01*
X84472606Y-141044766D02*
X83472606Y-141044766D01*
X83472606Y-140311432D02*
X83472606Y-140101908D01*
X83472606Y-140101908D02*
X83520225Y-139997146D01*
X83520225Y-139997146D02*
X83615463Y-139892384D01*
X83615463Y-139892384D02*
X83805939Y-139840003D01*
X83805939Y-139840003D02*
X84139272Y-139840003D01*
X84139272Y-139840003D02*
X84329748Y-139892384D01*
X84329748Y-139892384D02*
X84424987Y-139997146D01*
X84424987Y-139997146D02*
X84472606Y-140101908D01*
X84472606Y-140101908D02*
X84472606Y-140311432D01*
X84472606Y-140311432D02*
X84424987Y-140416194D01*
X84424987Y-140416194D02*
X84329748Y-140520956D01*
X84329748Y-140520956D02*
X84139272Y-140573337D01*
X84139272Y-140573337D02*
X83805939Y-140573337D01*
X83805939Y-140573337D02*
X83615463Y-140520956D01*
X83615463Y-140520956D02*
X83520225Y-140416194D01*
X83520225Y-140416194D02*
X83472606Y-140311432D01*
X83567844Y-139420956D02*
X83520225Y-139368575D01*
X83520225Y-139368575D02*
X83472606Y-139263813D01*
X83472606Y-139263813D02*
X83472606Y-139001908D01*
X83472606Y-139001908D02*
X83520225Y-138897146D01*
X83520225Y-138897146D02*
X83567844Y-138844765D01*
X83567844Y-138844765D02*
X83663082Y-138792384D01*
X83663082Y-138792384D02*
X83758320Y-138792384D01*
X83758320Y-138792384D02*
X83901177Y-138844765D01*
X83901177Y-138844765D02*
X84472606Y-139473337D01*
X84472606Y-139473337D02*
X84472606Y-138792384D01*
X83472606Y-137797146D02*
X83472606Y-138320956D01*
X83472606Y-138320956D02*
X83948796Y-138373337D01*
X83948796Y-138373337D02*
X83901177Y-138320956D01*
X83901177Y-138320956D02*
X83853558Y-138216194D01*
X83853558Y-138216194D02*
X83853558Y-137954289D01*
X83853558Y-137954289D02*
X83901177Y-137849527D01*
X83901177Y-137849527D02*
X83948796Y-137797146D01*
X83948796Y-137797146D02*
X84044034Y-137744765D01*
X84044034Y-137744765D02*
X84282129Y-137744765D01*
X84282129Y-137744765D02*
X84377367Y-137797146D01*
X84377367Y-137797146D02*
X84424987Y-137849527D01*
X84424987Y-137849527D02*
X84472606Y-137954289D01*
X84472606Y-137954289D02*
X84472606Y-138216194D01*
X84472606Y-138216194D02*
X84424987Y-138320956D01*
X84424987Y-138320956D02*
X84377367Y-138373337D01*
X86020225Y-125168575D02*
X85972606Y-125273337D01*
X85972606Y-125273337D02*
X85972606Y-125430480D01*
X85972606Y-125430480D02*
X86020225Y-125587623D01*
X86020225Y-125587623D02*
X86115463Y-125692385D01*
X86115463Y-125692385D02*
X86210701Y-125744766D01*
X86210701Y-125744766D02*
X86401177Y-125797147D01*
X86401177Y-125797147D02*
X86544034Y-125797147D01*
X86544034Y-125797147D02*
X86734510Y-125744766D01*
X86734510Y-125744766D02*
X86829748Y-125692385D01*
X86829748Y-125692385D02*
X86924987Y-125587623D01*
X86924987Y-125587623D02*
X86972606Y-125430480D01*
X86972606Y-125430480D02*
X86972606Y-125325718D01*
X86972606Y-125325718D02*
X86924987Y-125168575D01*
X86924987Y-125168575D02*
X86877367Y-125116194D01*
X86877367Y-125116194D02*
X86544034Y-125116194D01*
X86544034Y-125116194D02*
X86544034Y-125325718D01*
X86972606Y-124644766D02*
X85972606Y-124644766D01*
X85972606Y-124644766D02*
X85972606Y-124225718D01*
X85972606Y-124225718D02*
X86020225Y-124120956D01*
X86020225Y-124120956D02*
X86067844Y-124068575D01*
X86067844Y-124068575D02*
X86163082Y-124016194D01*
X86163082Y-124016194D02*
X86305939Y-124016194D01*
X86305939Y-124016194D02*
X86401177Y-124068575D01*
X86401177Y-124068575D02*
X86448796Y-124120956D01*
X86448796Y-124120956D02*
X86496415Y-124225718D01*
X86496415Y-124225718D02*
X86496415Y-124644766D01*
X86972606Y-123544766D02*
X85972606Y-123544766D01*
X85972606Y-122811432D02*
X85972606Y-122601908D01*
X85972606Y-122601908D02*
X86020225Y-122497146D01*
X86020225Y-122497146D02*
X86115463Y-122392384D01*
X86115463Y-122392384D02*
X86305939Y-122340003D01*
X86305939Y-122340003D02*
X86639272Y-122340003D01*
X86639272Y-122340003D02*
X86829748Y-122392384D01*
X86829748Y-122392384D02*
X86924987Y-122497146D01*
X86924987Y-122497146D02*
X86972606Y-122601908D01*
X86972606Y-122601908D02*
X86972606Y-122811432D01*
X86972606Y-122811432D02*
X86924987Y-122916194D01*
X86924987Y-122916194D02*
X86829748Y-123020956D01*
X86829748Y-123020956D02*
X86639272Y-123073337D01*
X86639272Y-123073337D02*
X86305939Y-123073337D01*
X86305939Y-123073337D02*
X86115463Y-123020956D01*
X86115463Y-123020956D02*
X86020225Y-122916194D01*
X86020225Y-122916194D02*
X85972606Y-122811432D01*
X86972606Y-121292384D02*
X86972606Y-121920956D01*
X86972606Y-121606670D02*
X85972606Y-121606670D01*
X85972606Y-121606670D02*
X86115463Y-121711432D01*
X86115463Y-121711432D02*
X86210701Y-121816194D01*
X86210701Y-121816194D02*
X86258320Y-121920956D01*
X85972606Y-120925718D02*
X85972606Y-120192384D01*
X85972606Y-120192384D02*
X86972606Y-120663813D01*
X86020225Y-142668575D02*
X85972606Y-142773337D01*
X85972606Y-142773337D02*
X85972606Y-142930480D01*
X85972606Y-142930480D02*
X86020225Y-143087623D01*
X86020225Y-143087623D02*
X86115463Y-143192385D01*
X86115463Y-143192385D02*
X86210701Y-143244766D01*
X86210701Y-143244766D02*
X86401177Y-143297147D01*
X86401177Y-143297147D02*
X86544034Y-143297147D01*
X86544034Y-143297147D02*
X86734510Y-143244766D01*
X86734510Y-143244766D02*
X86829748Y-143192385D01*
X86829748Y-143192385D02*
X86924987Y-143087623D01*
X86924987Y-143087623D02*
X86972606Y-142930480D01*
X86972606Y-142930480D02*
X86972606Y-142825718D01*
X86972606Y-142825718D02*
X86924987Y-142668575D01*
X86924987Y-142668575D02*
X86877367Y-142616194D01*
X86877367Y-142616194D02*
X86544034Y-142616194D01*
X86544034Y-142616194D02*
X86544034Y-142825718D01*
X86972606Y-142144766D02*
X85972606Y-142144766D01*
X85972606Y-142144766D02*
X85972606Y-141725718D01*
X85972606Y-141725718D02*
X86020225Y-141620956D01*
X86020225Y-141620956D02*
X86067844Y-141568575D01*
X86067844Y-141568575D02*
X86163082Y-141516194D01*
X86163082Y-141516194D02*
X86305939Y-141516194D01*
X86305939Y-141516194D02*
X86401177Y-141568575D01*
X86401177Y-141568575D02*
X86448796Y-141620956D01*
X86448796Y-141620956D02*
X86496415Y-141725718D01*
X86496415Y-141725718D02*
X86496415Y-142144766D01*
X86972606Y-141044766D02*
X85972606Y-141044766D01*
X85972606Y-140311432D02*
X85972606Y-140101908D01*
X85972606Y-140101908D02*
X86020225Y-139997146D01*
X86020225Y-139997146D02*
X86115463Y-139892384D01*
X86115463Y-139892384D02*
X86305939Y-139840003D01*
X86305939Y-139840003D02*
X86639272Y-139840003D01*
X86639272Y-139840003D02*
X86829748Y-139892384D01*
X86829748Y-139892384D02*
X86924987Y-139997146D01*
X86924987Y-139997146D02*
X86972606Y-140101908D01*
X86972606Y-140101908D02*
X86972606Y-140311432D01*
X86972606Y-140311432D02*
X86924987Y-140416194D01*
X86924987Y-140416194D02*
X86829748Y-140520956D01*
X86829748Y-140520956D02*
X86639272Y-140573337D01*
X86639272Y-140573337D02*
X86305939Y-140573337D01*
X86305939Y-140573337D02*
X86115463Y-140520956D01*
X86115463Y-140520956D02*
X86020225Y-140416194D01*
X86020225Y-140416194D02*
X85972606Y-140311432D01*
X86067844Y-139420956D02*
X86020225Y-139368575D01*
X86020225Y-139368575D02*
X85972606Y-139263813D01*
X85972606Y-139263813D02*
X85972606Y-139001908D01*
X85972606Y-139001908D02*
X86020225Y-138897146D01*
X86020225Y-138897146D02*
X86067844Y-138844765D01*
X86067844Y-138844765D02*
X86163082Y-138792384D01*
X86163082Y-138792384D02*
X86258320Y-138792384D01*
X86258320Y-138792384D02*
X86401177Y-138844765D01*
X86401177Y-138844765D02*
X86972606Y-139473337D01*
X86972606Y-139473337D02*
X86972606Y-138792384D01*
X85972606Y-137849527D02*
X85972606Y-138059051D01*
X85972606Y-138059051D02*
X86020225Y-138163813D01*
X86020225Y-138163813D02*
X86067844Y-138216194D01*
X86067844Y-138216194D02*
X86210701Y-138320956D01*
X86210701Y-138320956D02*
X86401177Y-138373337D01*
X86401177Y-138373337D02*
X86782129Y-138373337D01*
X86782129Y-138373337D02*
X86877367Y-138320956D01*
X86877367Y-138320956D02*
X86924987Y-138268575D01*
X86924987Y-138268575D02*
X86972606Y-138163813D01*
X86972606Y-138163813D02*
X86972606Y-137954289D01*
X86972606Y-137954289D02*
X86924987Y-137849527D01*
X86924987Y-137849527D02*
X86877367Y-137797146D01*
X86877367Y-137797146D02*
X86782129Y-137744765D01*
X86782129Y-137744765D02*
X86544034Y-137744765D01*
X86544034Y-137744765D02*
X86448796Y-137797146D01*
X86448796Y-137797146D02*
X86401177Y-137849527D01*
X86401177Y-137849527D02*
X86353558Y-137954289D01*
X86353558Y-137954289D02*
X86353558Y-138163813D01*
X86353558Y-138163813D02*
X86401177Y-138268575D01*
X86401177Y-138268575D02*
X86448796Y-138320956D01*
X86448796Y-138320956D02*
X86544034Y-138373337D01*
X88520225Y-125168575D02*
X88472606Y-125273337D01*
X88472606Y-125273337D02*
X88472606Y-125430480D01*
X88472606Y-125430480D02*
X88520225Y-125587623D01*
X88520225Y-125587623D02*
X88615463Y-125692385D01*
X88615463Y-125692385D02*
X88710701Y-125744766D01*
X88710701Y-125744766D02*
X88901177Y-125797147D01*
X88901177Y-125797147D02*
X89044034Y-125797147D01*
X89044034Y-125797147D02*
X89234510Y-125744766D01*
X89234510Y-125744766D02*
X89329748Y-125692385D01*
X89329748Y-125692385D02*
X89424987Y-125587623D01*
X89424987Y-125587623D02*
X89472606Y-125430480D01*
X89472606Y-125430480D02*
X89472606Y-125325718D01*
X89472606Y-125325718D02*
X89424987Y-125168575D01*
X89424987Y-125168575D02*
X89377367Y-125116194D01*
X89377367Y-125116194D02*
X89044034Y-125116194D01*
X89044034Y-125116194D02*
X89044034Y-125325718D01*
X89472606Y-124644766D02*
X88472606Y-124644766D01*
X88472606Y-124644766D02*
X88472606Y-124225718D01*
X88472606Y-124225718D02*
X88520225Y-124120956D01*
X88520225Y-124120956D02*
X88567844Y-124068575D01*
X88567844Y-124068575D02*
X88663082Y-124016194D01*
X88663082Y-124016194D02*
X88805939Y-124016194D01*
X88805939Y-124016194D02*
X88901177Y-124068575D01*
X88901177Y-124068575D02*
X88948796Y-124120956D01*
X88948796Y-124120956D02*
X88996415Y-124225718D01*
X88996415Y-124225718D02*
X88996415Y-124644766D01*
X89472606Y-123544766D02*
X88472606Y-123544766D01*
X88472606Y-122811432D02*
X88472606Y-122601908D01*
X88472606Y-122601908D02*
X88520225Y-122497146D01*
X88520225Y-122497146D02*
X88615463Y-122392384D01*
X88615463Y-122392384D02*
X88805939Y-122340003D01*
X88805939Y-122340003D02*
X89139272Y-122340003D01*
X89139272Y-122340003D02*
X89329748Y-122392384D01*
X89329748Y-122392384D02*
X89424987Y-122497146D01*
X89424987Y-122497146D02*
X89472606Y-122601908D01*
X89472606Y-122601908D02*
X89472606Y-122811432D01*
X89472606Y-122811432D02*
X89424987Y-122916194D01*
X89424987Y-122916194D02*
X89329748Y-123020956D01*
X89329748Y-123020956D02*
X89139272Y-123073337D01*
X89139272Y-123073337D02*
X88805939Y-123073337D01*
X88805939Y-123073337D02*
X88615463Y-123020956D01*
X88615463Y-123020956D02*
X88520225Y-122916194D01*
X88520225Y-122916194D02*
X88472606Y-122811432D01*
X89472606Y-121292384D02*
X89472606Y-121920956D01*
X89472606Y-121606670D02*
X88472606Y-121606670D01*
X88472606Y-121606670D02*
X88615463Y-121711432D01*
X88615463Y-121711432D02*
X88710701Y-121816194D01*
X88710701Y-121816194D02*
X88758320Y-121920956D01*
X88472606Y-120349527D02*
X88472606Y-120559051D01*
X88472606Y-120559051D02*
X88520225Y-120663813D01*
X88520225Y-120663813D02*
X88567844Y-120716194D01*
X88567844Y-120716194D02*
X88710701Y-120820956D01*
X88710701Y-120820956D02*
X88901177Y-120873337D01*
X88901177Y-120873337D02*
X89282129Y-120873337D01*
X89282129Y-120873337D02*
X89377367Y-120820956D01*
X89377367Y-120820956D02*
X89424987Y-120768575D01*
X89424987Y-120768575D02*
X89472606Y-120663813D01*
X89472606Y-120663813D02*
X89472606Y-120454289D01*
X89472606Y-120454289D02*
X89424987Y-120349527D01*
X89424987Y-120349527D02*
X89377367Y-120297146D01*
X89377367Y-120297146D02*
X89282129Y-120244765D01*
X89282129Y-120244765D02*
X89044034Y-120244765D01*
X89044034Y-120244765D02*
X88948796Y-120297146D01*
X88948796Y-120297146D02*
X88901177Y-120349527D01*
X88901177Y-120349527D02*
X88853558Y-120454289D01*
X88853558Y-120454289D02*
X88853558Y-120663813D01*
X88853558Y-120663813D02*
X88901177Y-120768575D01*
X88901177Y-120768575D02*
X88948796Y-120820956D01*
X88948796Y-120820956D02*
X89044034Y-120873337D01*
X88520225Y-142668575D02*
X88472606Y-142773337D01*
X88472606Y-142773337D02*
X88472606Y-142930480D01*
X88472606Y-142930480D02*
X88520225Y-143087623D01*
X88520225Y-143087623D02*
X88615463Y-143192385D01*
X88615463Y-143192385D02*
X88710701Y-143244766D01*
X88710701Y-143244766D02*
X88901177Y-143297147D01*
X88901177Y-143297147D02*
X89044034Y-143297147D01*
X89044034Y-143297147D02*
X89234510Y-143244766D01*
X89234510Y-143244766D02*
X89329748Y-143192385D01*
X89329748Y-143192385D02*
X89424987Y-143087623D01*
X89424987Y-143087623D02*
X89472606Y-142930480D01*
X89472606Y-142930480D02*
X89472606Y-142825718D01*
X89472606Y-142825718D02*
X89424987Y-142668575D01*
X89424987Y-142668575D02*
X89377367Y-142616194D01*
X89377367Y-142616194D02*
X89044034Y-142616194D01*
X89044034Y-142616194D02*
X89044034Y-142825718D01*
X89472606Y-142144766D02*
X88472606Y-142144766D01*
X88472606Y-142144766D02*
X88472606Y-141725718D01*
X88472606Y-141725718D02*
X88520225Y-141620956D01*
X88520225Y-141620956D02*
X88567844Y-141568575D01*
X88567844Y-141568575D02*
X88663082Y-141516194D01*
X88663082Y-141516194D02*
X88805939Y-141516194D01*
X88805939Y-141516194D02*
X88901177Y-141568575D01*
X88901177Y-141568575D02*
X88948796Y-141620956D01*
X88948796Y-141620956D02*
X88996415Y-141725718D01*
X88996415Y-141725718D02*
X88996415Y-142144766D01*
X89472606Y-141044766D02*
X88472606Y-141044766D01*
X88472606Y-140311432D02*
X88472606Y-140101908D01*
X88472606Y-140101908D02*
X88520225Y-139997146D01*
X88520225Y-139997146D02*
X88615463Y-139892384D01*
X88615463Y-139892384D02*
X88805939Y-139840003D01*
X88805939Y-139840003D02*
X89139272Y-139840003D01*
X89139272Y-139840003D02*
X89329748Y-139892384D01*
X89329748Y-139892384D02*
X89424987Y-139997146D01*
X89424987Y-139997146D02*
X89472606Y-140101908D01*
X89472606Y-140101908D02*
X89472606Y-140311432D01*
X89472606Y-140311432D02*
X89424987Y-140416194D01*
X89424987Y-140416194D02*
X89329748Y-140520956D01*
X89329748Y-140520956D02*
X89139272Y-140573337D01*
X89139272Y-140573337D02*
X88805939Y-140573337D01*
X88805939Y-140573337D02*
X88615463Y-140520956D01*
X88615463Y-140520956D02*
X88520225Y-140416194D01*
X88520225Y-140416194D02*
X88472606Y-140311432D01*
X88567844Y-139420956D02*
X88520225Y-139368575D01*
X88520225Y-139368575D02*
X88472606Y-139263813D01*
X88472606Y-139263813D02*
X88472606Y-139001908D01*
X88472606Y-139001908D02*
X88520225Y-138897146D01*
X88520225Y-138897146D02*
X88567844Y-138844765D01*
X88567844Y-138844765D02*
X88663082Y-138792384D01*
X88663082Y-138792384D02*
X88758320Y-138792384D01*
X88758320Y-138792384D02*
X88901177Y-138844765D01*
X88901177Y-138844765D02*
X89472606Y-139473337D01*
X89472606Y-139473337D02*
X89472606Y-138792384D01*
X88472606Y-138425718D02*
X88472606Y-137692384D01*
X88472606Y-137692384D02*
X89472606Y-138163813D01*
X91020225Y-124168575D02*
X90972606Y-124273337D01*
X90972606Y-124273337D02*
X90972606Y-124430480D01*
X90972606Y-124430480D02*
X91020225Y-124587623D01*
X91020225Y-124587623D02*
X91115463Y-124692385D01*
X91115463Y-124692385D02*
X91210701Y-124744766D01*
X91210701Y-124744766D02*
X91401177Y-124797147D01*
X91401177Y-124797147D02*
X91544034Y-124797147D01*
X91544034Y-124797147D02*
X91734510Y-124744766D01*
X91734510Y-124744766D02*
X91829748Y-124692385D01*
X91829748Y-124692385D02*
X91924987Y-124587623D01*
X91924987Y-124587623D02*
X91972606Y-124430480D01*
X91972606Y-124430480D02*
X91972606Y-124325718D01*
X91972606Y-124325718D02*
X91924987Y-124168575D01*
X91924987Y-124168575D02*
X91877367Y-124116194D01*
X91877367Y-124116194D02*
X91544034Y-124116194D01*
X91544034Y-124116194D02*
X91544034Y-124325718D01*
X91972606Y-123644766D02*
X90972606Y-123644766D01*
X90972606Y-123644766D02*
X90972606Y-123225718D01*
X90972606Y-123225718D02*
X91020225Y-123120956D01*
X91020225Y-123120956D02*
X91067844Y-123068575D01*
X91067844Y-123068575D02*
X91163082Y-123016194D01*
X91163082Y-123016194D02*
X91305939Y-123016194D01*
X91305939Y-123016194D02*
X91401177Y-123068575D01*
X91401177Y-123068575D02*
X91448796Y-123120956D01*
X91448796Y-123120956D02*
X91496415Y-123225718D01*
X91496415Y-123225718D02*
X91496415Y-123644766D01*
X91972606Y-122544766D02*
X90972606Y-122544766D01*
X90972606Y-121811432D02*
X90972606Y-121601908D01*
X90972606Y-121601908D02*
X91020225Y-121497146D01*
X91020225Y-121497146D02*
X91115463Y-121392384D01*
X91115463Y-121392384D02*
X91305939Y-121340003D01*
X91305939Y-121340003D02*
X91639272Y-121340003D01*
X91639272Y-121340003D02*
X91829748Y-121392384D01*
X91829748Y-121392384D02*
X91924987Y-121497146D01*
X91924987Y-121497146D02*
X91972606Y-121601908D01*
X91972606Y-121601908D02*
X91972606Y-121811432D01*
X91972606Y-121811432D02*
X91924987Y-121916194D01*
X91924987Y-121916194D02*
X91829748Y-122020956D01*
X91829748Y-122020956D02*
X91639272Y-122073337D01*
X91639272Y-122073337D02*
X91305939Y-122073337D01*
X91305939Y-122073337D02*
X91115463Y-122020956D01*
X91115463Y-122020956D02*
X91020225Y-121916194D01*
X91020225Y-121916194D02*
X90972606Y-121811432D01*
X91305939Y-120397146D02*
X91972606Y-120397146D01*
X90924987Y-120659051D02*
X91639272Y-120920956D01*
X91639272Y-120920956D02*
X91639272Y-120240003D01*
X91020225Y-142668575D02*
X90972606Y-142773337D01*
X90972606Y-142773337D02*
X90972606Y-142930480D01*
X90972606Y-142930480D02*
X91020225Y-143087623D01*
X91020225Y-143087623D02*
X91115463Y-143192385D01*
X91115463Y-143192385D02*
X91210701Y-143244766D01*
X91210701Y-143244766D02*
X91401177Y-143297147D01*
X91401177Y-143297147D02*
X91544034Y-143297147D01*
X91544034Y-143297147D02*
X91734510Y-143244766D01*
X91734510Y-143244766D02*
X91829748Y-143192385D01*
X91829748Y-143192385D02*
X91924987Y-143087623D01*
X91924987Y-143087623D02*
X91972606Y-142930480D01*
X91972606Y-142930480D02*
X91972606Y-142825718D01*
X91972606Y-142825718D02*
X91924987Y-142668575D01*
X91924987Y-142668575D02*
X91877367Y-142616194D01*
X91877367Y-142616194D02*
X91544034Y-142616194D01*
X91544034Y-142616194D02*
X91544034Y-142825718D01*
X91972606Y-142144766D02*
X90972606Y-142144766D01*
X90972606Y-142144766D02*
X90972606Y-141725718D01*
X90972606Y-141725718D02*
X91020225Y-141620956D01*
X91020225Y-141620956D02*
X91067844Y-141568575D01*
X91067844Y-141568575D02*
X91163082Y-141516194D01*
X91163082Y-141516194D02*
X91305939Y-141516194D01*
X91305939Y-141516194D02*
X91401177Y-141568575D01*
X91401177Y-141568575D02*
X91448796Y-141620956D01*
X91448796Y-141620956D02*
X91496415Y-141725718D01*
X91496415Y-141725718D02*
X91496415Y-142144766D01*
X91972606Y-141044766D02*
X90972606Y-141044766D01*
X90972606Y-140311432D02*
X90972606Y-140101908D01*
X90972606Y-140101908D02*
X91020225Y-139997146D01*
X91020225Y-139997146D02*
X91115463Y-139892384D01*
X91115463Y-139892384D02*
X91305939Y-139840003D01*
X91305939Y-139840003D02*
X91639272Y-139840003D01*
X91639272Y-139840003D02*
X91829748Y-139892384D01*
X91829748Y-139892384D02*
X91924987Y-139997146D01*
X91924987Y-139997146D02*
X91972606Y-140101908D01*
X91972606Y-140101908D02*
X91972606Y-140311432D01*
X91972606Y-140311432D02*
X91924987Y-140416194D01*
X91924987Y-140416194D02*
X91829748Y-140520956D01*
X91829748Y-140520956D02*
X91639272Y-140573337D01*
X91639272Y-140573337D02*
X91305939Y-140573337D01*
X91305939Y-140573337D02*
X91115463Y-140520956D01*
X91115463Y-140520956D02*
X91020225Y-140416194D01*
X91020225Y-140416194D02*
X90972606Y-140311432D01*
X91972606Y-138792384D02*
X91972606Y-139420956D01*
X91972606Y-139106670D02*
X90972606Y-139106670D01*
X90972606Y-139106670D02*
X91115463Y-139211432D01*
X91115463Y-139211432D02*
X91210701Y-139316194D01*
X91210701Y-139316194D02*
X91258320Y-139420956D01*
X91305939Y-137849527D02*
X91972606Y-137849527D01*
X90924987Y-138111432D02*
X91639272Y-138373337D01*
X91639272Y-138373337D02*
X91639272Y-137692384D01*
X93520225Y-124168575D02*
X93472606Y-124273337D01*
X93472606Y-124273337D02*
X93472606Y-124430480D01*
X93472606Y-124430480D02*
X93520225Y-124587623D01*
X93520225Y-124587623D02*
X93615463Y-124692385D01*
X93615463Y-124692385D02*
X93710701Y-124744766D01*
X93710701Y-124744766D02*
X93901177Y-124797147D01*
X93901177Y-124797147D02*
X94044034Y-124797147D01*
X94044034Y-124797147D02*
X94234510Y-124744766D01*
X94234510Y-124744766D02*
X94329748Y-124692385D01*
X94329748Y-124692385D02*
X94424987Y-124587623D01*
X94424987Y-124587623D02*
X94472606Y-124430480D01*
X94472606Y-124430480D02*
X94472606Y-124325718D01*
X94472606Y-124325718D02*
X94424987Y-124168575D01*
X94424987Y-124168575D02*
X94377367Y-124116194D01*
X94377367Y-124116194D02*
X94044034Y-124116194D01*
X94044034Y-124116194D02*
X94044034Y-124325718D01*
X94472606Y-123644766D02*
X93472606Y-123644766D01*
X93472606Y-123644766D02*
X93472606Y-123225718D01*
X93472606Y-123225718D02*
X93520225Y-123120956D01*
X93520225Y-123120956D02*
X93567844Y-123068575D01*
X93567844Y-123068575D02*
X93663082Y-123016194D01*
X93663082Y-123016194D02*
X93805939Y-123016194D01*
X93805939Y-123016194D02*
X93901177Y-123068575D01*
X93901177Y-123068575D02*
X93948796Y-123120956D01*
X93948796Y-123120956D02*
X93996415Y-123225718D01*
X93996415Y-123225718D02*
X93996415Y-123644766D01*
X94472606Y-122544766D02*
X93472606Y-122544766D01*
X93472606Y-121811432D02*
X93472606Y-121601908D01*
X93472606Y-121601908D02*
X93520225Y-121497146D01*
X93520225Y-121497146D02*
X93615463Y-121392384D01*
X93615463Y-121392384D02*
X93805939Y-121340003D01*
X93805939Y-121340003D02*
X94139272Y-121340003D01*
X94139272Y-121340003D02*
X94329748Y-121392384D01*
X94329748Y-121392384D02*
X94424987Y-121497146D01*
X94424987Y-121497146D02*
X94472606Y-121601908D01*
X94472606Y-121601908D02*
X94472606Y-121811432D01*
X94472606Y-121811432D02*
X94424987Y-121916194D01*
X94424987Y-121916194D02*
X94329748Y-122020956D01*
X94329748Y-122020956D02*
X94139272Y-122073337D01*
X94139272Y-122073337D02*
X93805939Y-122073337D01*
X93805939Y-122073337D02*
X93615463Y-122020956D01*
X93615463Y-122020956D02*
X93520225Y-121916194D01*
X93520225Y-121916194D02*
X93472606Y-121811432D01*
X93567844Y-120920956D02*
X93520225Y-120868575D01*
X93520225Y-120868575D02*
X93472606Y-120763813D01*
X93472606Y-120763813D02*
X93472606Y-120501908D01*
X93472606Y-120501908D02*
X93520225Y-120397146D01*
X93520225Y-120397146D02*
X93567844Y-120344765D01*
X93567844Y-120344765D02*
X93663082Y-120292384D01*
X93663082Y-120292384D02*
X93758320Y-120292384D01*
X93758320Y-120292384D02*
X93901177Y-120344765D01*
X93901177Y-120344765D02*
X94472606Y-120973337D01*
X94472606Y-120973337D02*
X94472606Y-120292384D01*
X93520225Y-142668575D02*
X93472606Y-142773337D01*
X93472606Y-142773337D02*
X93472606Y-142930480D01*
X93472606Y-142930480D02*
X93520225Y-143087623D01*
X93520225Y-143087623D02*
X93615463Y-143192385D01*
X93615463Y-143192385D02*
X93710701Y-143244766D01*
X93710701Y-143244766D02*
X93901177Y-143297147D01*
X93901177Y-143297147D02*
X94044034Y-143297147D01*
X94044034Y-143297147D02*
X94234510Y-143244766D01*
X94234510Y-143244766D02*
X94329748Y-143192385D01*
X94329748Y-143192385D02*
X94424987Y-143087623D01*
X94424987Y-143087623D02*
X94472606Y-142930480D01*
X94472606Y-142930480D02*
X94472606Y-142825718D01*
X94472606Y-142825718D02*
X94424987Y-142668575D01*
X94424987Y-142668575D02*
X94377367Y-142616194D01*
X94377367Y-142616194D02*
X94044034Y-142616194D01*
X94044034Y-142616194D02*
X94044034Y-142825718D01*
X94472606Y-142144766D02*
X93472606Y-142144766D01*
X93472606Y-142144766D02*
X93472606Y-141725718D01*
X93472606Y-141725718D02*
X93520225Y-141620956D01*
X93520225Y-141620956D02*
X93567844Y-141568575D01*
X93567844Y-141568575D02*
X93663082Y-141516194D01*
X93663082Y-141516194D02*
X93805939Y-141516194D01*
X93805939Y-141516194D02*
X93901177Y-141568575D01*
X93901177Y-141568575D02*
X93948796Y-141620956D01*
X93948796Y-141620956D02*
X93996415Y-141725718D01*
X93996415Y-141725718D02*
X93996415Y-142144766D01*
X94472606Y-141044766D02*
X93472606Y-141044766D01*
X93472606Y-140311432D02*
X93472606Y-140101908D01*
X93472606Y-140101908D02*
X93520225Y-139997146D01*
X93520225Y-139997146D02*
X93615463Y-139892384D01*
X93615463Y-139892384D02*
X93805939Y-139840003D01*
X93805939Y-139840003D02*
X94139272Y-139840003D01*
X94139272Y-139840003D02*
X94329748Y-139892384D01*
X94329748Y-139892384D02*
X94424987Y-139997146D01*
X94424987Y-139997146D02*
X94472606Y-140101908D01*
X94472606Y-140101908D02*
X94472606Y-140311432D01*
X94472606Y-140311432D02*
X94424987Y-140416194D01*
X94424987Y-140416194D02*
X94329748Y-140520956D01*
X94329748Y-140520956D02*
X94139272Y-140573337D01*
X94139272Y-140573337D02*
X93805939Y-140573337D01*
X93805939Y-140573337D02*
X93615463Y-140520956D01*
X93615463Y-140520956D02*
X93520225Y-140416194D01*
X93520225Y-140416194D02*
X93472606Y-140311432D01*
X94472606Y-138792384D02*
X94472606Y-139420956D01*
X94472606Y-139106670D02*
X93472606Y-139106670D01*
X93472606Y-139106670D02*
X93615463Y-139211432D01*
X93615463Y-139211432D02*
X93710701Y-139316194D01*
X93710701Y-139316194D02*
X93758320Y-139420956D01*
X93567844Y-138373337D02*
X93520225Y-138320956D01*
X93520225Y-138320956D02*
X93472606Y-138216194D01*
X93472606Y-138216194D02*
X93472606Y-137954289D01*
X93472606Y-137954289D02*
X93520225Y-137849527D01*
X93520225Y-137849527D02*
X93567844Y-137797146D01*
X93567844Y-137797146D02*
X93663082Y-137744765D01*
X93663082Y-137744765D02*
X93758320Y-137744765D01*
X93758320Y-137744765D02*
X93901177Y-137797146D01*
X93901177Y-137797146D02*
X94472606Y-138425718D01*
X94472606Y-138425718D02*
X94472606Y-137744765D01*
X96020225Y-125168575D02*
X95972606Y-125273337D01*
X95972606Y-125273337D02*
X95972606Y-125430480D01*
X95972606Y-125430480D02*
X96020225Y-125587623D01*
X96020225Y-125587623D02*
X96115463Y-125692385D01*
X96115463Y-125692385D02*
X96210701Y-125744766D01*
X96210701Y-125744766D02*
X96401177Y-125797147D01*
X96401177Y-125797147D02*
X96544034Y-125797147D01*
X96544034Y-125797147D02*
X96734510Y-125744766D01*
X96734510Y-125744766D02*
X96829748Y-125692385D01*
X96829748Y-125692385D02*
X96924987Y-125587623D01*
X96924987Y-125587623D02*
X96972606Y-125430480D01*
X96972606Y-125430480D02*
X96972606Y-125325718D01*
X96972606Y-125325718D02*
X96924987Y-125168575D01*
X96924987Y-125168575D02*
X96877367Y-125116194D01*
X96877367Y-125116194D02*
X96544034Y-125116194D01*
X96544034Y-125116194D02*
X96544034Y-125325718D01*
X96972606Y-124644766D02*
X95972606Y-124644766D01*
X95972606Y-124644766D02*
X95972606Y-124225718D01*
X95972606Y-124225718D02*
X96020225Y-124120956D01*
X96020225Y-124120956D02*
X96067844Y-124068575D01*
X96067844Y-124068575D02*
X96163082Y-124016194D01*
X96163082Y-124016194D02*
X96305939Y-124016194D01*
X96305939Y-124016194D02*
X96401177Y-124068575D01*
X96401177Y-124068575D02*
X96448796Y-124120956D01*
X96448796Y-124120956D02*
X96496415Y-124225718D01*
X96496415Y-124225718D02*
X96496415Y-124644766D01*
X96972606Y-123544766D02*
X95972606Y-123544766D01*
X95972606Y-122811432D02*
X95972606Y-122601908D01*
X95972606Y-122601908D02*
X96020225Y-122497146D01*
X96020225Y-122497146D02*
X96115463Y-122392384D01*
X96115463Y-122392384D02*
X96305939Y-122340003D01*
X96305939Y-122340003D02*
X96639272Y-122340003D01*
X96639272Y-122340003D02*
X96829748Y-122392384D01*
X96829748Y-122392384D02*
X96924987Y-122497146D01*
X96924987Y-122497146D02*
X96972606Y-122601908D01*
X96972606Y-122601908D02*
X96972606Y-122811432D01*
X96972606Y-122811432D02*
X96924987Y-122916194D01*
X96924987Y-122916194D02*
X96829748Y-123020956D01*
X96829748Y-123020956D02*
X96639272Y-123073337D01*
X96639272Y-123073337D02*
X96305939Y-123073337D01*
X96305939Y-123073337D02*
X96115463Y-123020956D01*
X96115463Y-123020956D02*
X96020225Y-122916194D01*
X96020225Y-122916194D02*
X95972606Y-122811432D01*
X96972606Y-121292384D02*
X96972606Y-121920956D01*
X96972606Y-121606670D02*
X95972606Y-121606670D01*
X95972606Y-121606670D02*
X96115463Y-121711432D01*
X96115463Y-121711432D02*
X96210701Y-121816194D01*
X96210701Y-121816194D02*
X96258320Y-121920956D01*
X95972606Y-120297146D02*
X95972606Y-120820956D01*
X95972606Y-120820956D02*
X96448796Y-120873337D01*
X96448796Y-120873337D02*
X96401177Y-120820956D01*
X96401177Y-120820956D02*
X96353558Y-120716194D01*
X96353558Y-120716194D02*
X96353558Y-120454289D01*
X96353558Y-120454289D02*
X96401177Y-120349527D01*
X96401177Y-120349527D02*
X96448796Y-120297146D01*
X96448796Y-120297146D02*
X96544034Y-120244765D01*
X96544034Y-120244765D02*
X96782129Y-120244765D01*
X96782129Y-120244765D02*
X96877367Y-120297146D01*
X96877367Y-120297146D02*
X96924987Y-120349527D01*
X96924987Y-120349527D02*
X96972606Y-120454289D01*
X96972606Y-120454289D02*
X96972606Y-120716194D01*
X96972606Y-120716194D02*
X96924987Y-120820956D01*
X96924987Y-120820956D02*
X96877367Y-120873337D01*
X96020225Y-142668575D02*
X95972606Y-142773337D01*
X95972606Y-142773337D02*
X95972606Y-142930480D01*
X95972606Y-142930480D02*
X96020225Y-143087623D01*
X96020225Y-143087623D02*
X96115463Y-143192385D01*
X96115463Y-143192385D02*
X96210701Y-143244766D01*
X96210701Y-143244766D02*
X96401177Y-143297147D01*
X96401177Y-143297147D02*
X96544034Y-143297147D01*
X96544034Y-143297147D02*
X96734510Y-143244766D01*
X96734510Y-143244766D02*
X96829748Y-143192385D01*
X96829748Y-143192385D02*
X96924987Y-143087623D01*
X96924987Y-143087623D02*
X96972606Y-142930480D01*
X96972606Y-142930480D02*
X96972606Y-142825718D01*
X96972606Y-142825718D02*
X96924987Y-142668575D01*
X96924987Y-142668575D02*
X96877367Y-142616194D01*
X96877367Y-142616194D02*
X96544034Y-142616194D01*
X96544034Y-142616194D02*
X96544034Y-142825718D01*
X96972606Y-142144766D02*
X95972606Y-142144766D01*
X95972606Y-142144766D02*
X95972606Y-141725718D01*
X95972606Y-141725718D02*
X96020225Y-141620956D01*
X96020225Y-141620956D02*
X96067844Y-141568575D01*
X96067844Y-141568575D02*
X96163082Y-141516194D01*
X96163082Y-141516194D02*
X96305939Y-141516194D01*
X96305939Y-141516194D02*
X96401177Y-141568575D01*
X96401177Y-141568575D02*
X96448796Y-141620956D01*
X96448796Y-141620956D02*
X96496415Y-141725718D01*
X96496415Y-141725718D02*
X96496415Y-142144766D01*
X96972606Y-141044766D02*
X95972606Y-141044766D01*
X95972606Y-140311432D02*
X95972606Y-140101908D01*
X95972606Y-140101908D02*
X96020225Y-139997146D01*
X96020225Y-139997146D02*
X96115463Y-139892384D01*
X96115463Y-139892384D02*
X96305939Y-139840003D01*
X96305939Y-139840003D02*
X96639272Y-139840003D01*
X96639272Y-139840003D02*
X96829748Y-139892384D01*
X96829748Y-139892384D02*
X96924987Y-139997146D01*
X96924987Y-139997146D02*
X96972606Y-140101908D01*
X96972606Y-140101908D02*
X96972606Y-140311432D01*
X96972606Y-140311432D02*
X96924987Y-140416194D01*
X96924987Y-140416194D02*
X96829748Y-140520956D01*
X96829748Y-140520956D02*
X96639272Y-140573337D01*
X96639272Y-140573337D02*
X96305939Y-140573337D01*
X96305939Y-140573337D02*
X96115463Y-140520956D01*
X96115463Y-140520956D02*
X96020225Y-140416194D01*
X96020225Y-140416194D02*
X95972606Y-140311432D01*
X96972606Y-138792384D02*
X96972606Y-139420956D01*
X96972606Y-139106670D02*
X95972606Y-139106670D01*
X95972606Y-139106670D02*
X96115463Y-139211432D01*
X96115463Y-139211432D02*
X96210701Y-139316194D01*
X96210701Y-139316194D02*
X96258320Y-139420956D01*
X95972606Y-138425718D02*
X95972606Y-137744765D01*
X95972606Y-137744765D02*
X96353558Y-138111432D01*
X96353558Y-138111432D02*
X96353558Y-137954289D01*
X96353558Y-137954289D02*
X96401177Y-137849527D01*
X96401177Y-137849527D02*
X96448796Y-137797146D01*
X96448796Y-137797146D02*
X96544034Y-137744765D01*
X96544034Y-137744765D02*
X96782129Y-137744765D01*
X96782129Y-137744765D02*
X96877367Y-137797146D01*
X96877367Y-137797146D02*
X96924987Y-137849527D01*
X96924987Y-137849527D02*
X96972606Y-137954289D01*
X96972606Y-137954289D02*
X96972606Y-138268575D01*
X96972606Y-138268575D02*
X96924987Y-138373337D01*
X96924987Y-138373337D02*
X96877367Y-138425718D01*
X98520225Y-122668575D02*
X98472606Y-122773337D01*
X98472606Y-122773337D02*
X98472606Y-122930480D01*
X98472606Y-122930480D02*
X98520225Y-123087623D01*
X98520225Y-123087623D02*
X98615463Y-123192385D01*
X98615463Y-123192385D02*
X98710701Y-123244766D01*
X98710701Y-123244766D02*
X98901177Y-123297147D01*
X98901177Y-123297147D02*
X99044034Y-123297147D01*
X99044034Y-123297147D02*
X99234510Y-123244766D01*
X99234510Y-123244766D02*
X99329748Y-123192385D01*
X99329748Y-123192385D02*
X99424987Y-123087623D01*
X99424987Y-123087623D02*
X99472606Y-122930480D01*
X99472606Y-122930480D02*
X99472606Y-122825718D01*
X99472606Y-122825718D02*
X99424987Y-122668575D01*
X99424987Y-122668575D02*
X99377367Y-122616194D01*
X99377367Y-122616194D02*
X99044034Y-122616194D01*
X99044034Y-122616194D02*
X99044034Y-122825718D01*
X99472606Y-122144766D02*
X98472606Y-122144766D01*
X98472606Y-122144766D02*
X99472606Y-121516194D01*
X99472606Y-121516194D02*
X98472606Y-121516194D01*
X99472606Y-120992385D02*
X98472606Y-120992385D01*
X98472606Y-120992385D02*
X98472606Y-120730480D01*
X98472606Y-120730480D02*
X98520225Y-120573337D01*
X98520225Y-120573337D02*
X98615463Y-120468575D01*
X98615463Y-120468575D02*
X98710701Y-120416194D01*
X98710701Y-120416194D02*
X98901177Y-120363813D01*
X98901177Y-120363813D02*
X99044034Y-120363813D01*
X99044034Y-120363813D02*
X99234510Y-120416194D01*
X99234510Y-120416194D02*
X99329748Y-120468575D01*
X99329748Y-120468575D02*
X99424987Y-120573337D01*
X99424987Y-120573337D02*
X99472606Y-120730480D01*
X99472606Y-120730480D02*
X99472606Y-120992385D01*
X98520225Y-142668575D02*
X98472606Y-142773337D01*
X98472606Y-142773337D02*
X98472606Y-142930480D01*
X98472606Y-142930480D02*
X98520225Y-143087623D01*
X98520225Y-143087623D02*
X98615463Y-143192385D01*
X98615463Y-143192385D02*
X98710701Y-143244766D01*
X98710701Y-143244766D02*
X98901177Y-143297147D01*
X98901177Y-143297147D02*
X99044034Y-143297147D01*
X99044034Y-143297147D02*
X99234510Y-143244766D01*
X99234510Y-143244766D02*
X99329748Y-143192385D01*
X99329748Y-143192385D02*
X99424987Y-143087623D01*
X99424987Y-143087623D02*
X99472606Y-142930480D01*
X99472606Y-142930480D02*
X99472606Y-142825718D01*
X99472606Y-142825718D02*
X99424987Y-142668575D01*
X99424987Y-142668575D02*
X99377367Y-142616194D01*
X99377367Y-142616194D02*
X99044034Y-142616194D01*
X99044034Y-142616194D02*
X99044034Y-142825718D01*
X99472606Y-142144766D02*
X98472606Y-142144766D01*
X98472606Y-142144766D02*
X99472606Y-141516194D01*
X99472606Y-141516194D02*
X98472606Y-141516194D01*
X99472606Y-140992385D02*
X98472606Y-140992385D01*
X98472606Y-140992385D02*
X98472606Y-140730480D01*
X98472606Y-140730480D02*
X98520225Y-140573337D01*
X98520225Y-140573337D02*
X98615463Y-140468575D01*
X98615463Y-140468575D02*
X98710701Y-140416194D01*
X98710701Y-140416194D02*
X98901177Y-140363813D01*
X98901177Y-140363813D02*
X99044034Y-140363813D01*
X99044034Y-140363813D02*
X99234510Y-140416194D01*
X99234510Y-140416194D02*
X99329748Y-140468575D01*
X99329748Y-140468575D02*
X99424987Y-140573337D01*
X99424987Y-140573337D02*
X99472606Y-140730480D01*
X99472606Y-140730480D02*
X99472606Y-140992385D01*
X100972606Y-123349528D02*
X100972606Y-122668575D01*
X100972606Y-122668575D02*
X101353558Y-123035242D01*
X101353558Y-123035242D02*
X101353558Y-122878099D01*
X101353558Y-122878099D02*
X101401177Y-122773337D01*
X101401177Y-122773337D02*
X101448796Y-122720956D01*
X101448796Y-122720956D02*
X101544034Y-122668575D01*
X101544034Y-122668575D02*
X101782129Y-122668575D01*
X101782129Y-122668575D02*
X101877367Y-122720956D01*
X101877367Y-122720956D02*
X101924987Y-122773337D01*
X101924987Y-122773337D02*
X101972606Y-122878099D01*
X101972606Y-122878099D02*
X101972606Y-123192385D01*
X101972606Y-123192385D02*
X101924987Y-123297147D01*
X101924987Y-123297147D02*
X101877367Y-123349528D01*
X101877367Y-122197147D02*
X101924987Y-122144766D01*
X101924987Y-122144766D02*
X101972606Y-122197147D01*
X101972606Y-122197147D02*
X101924987Y-122249528D01*
X101924987Y-122249528D02*
X101877367Y-122197147D01*
X101877367Y-122197147D02*
X101972606Y-122197147D01*
X100972606Y-121778099D02*
X100972606Y-121097146D01*
X100972606Y-121097146D02*
X101353558Y-121463813D01*
X101353558Y-121463813D02*
X101353558Y-121306670D01*
X101353558Y-121306670D02*
X101401177Y-121201908D01*
X101401177Y-121201908D02*
X101448796Y-121149527D01*
X101448796Y-121149527D02*
X101544034Y-121097146D01*
X101544034Y-121097146D02*
X101782129Y-121097146D01*
X101782129Y-121097146D02*
X101877367Y-121149527D01*
X101877367Y-121149527D02*
X101924987Y-121201908D01*
X101924987Y-121201908D02*
X101972606Y-121306670D01*
X101972606Y-121306670D02*
X101972606Y-121620956D01*
X101972606Y-121620956D02*
X101924987Y-121725718D01*
X101924987Y-121725718D02*
X101877367Y-121778099D01*
X101305939Y-120730480D02*
X101972606Y-120468575D01*
X101972606Y-120468575D02*
X101305939Y-120206670D01*
X100972606Y-142901909D02*
X101972606Y-142535242D01*
X101972606Y-142535242D02*
X100972606Y-142168575D01*
X101972606Y-141801909D02*
X100972606Y-141801909D01*
X101972606Y-141278099D02*
X100972606Y-141278099D01*
X100972606Y-141278099D02*
X101972606Y-140649527D01*
X101972606Y-140649527D02*
X100972606Y-140649527D01*
X107972606Y-132768575D02*
X108782129Y-132768575D01*
X108782129Y-132768575D02*
X108877367Y-132720956D01*
X108877367Y-132720956D02*
X108924987Y-132673337D01*
X108924987Y-132673337D02*
X108972606Y-132578099D01*
X108972606Y-132578099D02*
X108972606Y-132387623D01*
X108972606Y-132387623D02*
X108924987Y-132292385D01*
X108924987Y-132292385D02*
X108877367Y-132244766D01*
X108877367Y-132244766D02*
X108782129Y-132197147D01*
X108782129Y-132197147D02*
X107972606Y-132197147D01*
X108924987Y-131768575D02*
X108972606Y-131625718D01*
X108972606Y-131625718D02*
X108972606Y-131387623D01*
X108972606Y-131387623D02*
X108924987Y-131292385D01*
X108924987Y-131292385D02*
X108877367Y-131244766D01*
X108877367Y-131244766D02*
X108782129Y-131197147D01*
X108782129Y-131197147D02*
X108686891Y-131197147D01*
X108686891Y-131197147D02*
X108591653Y-131244766D01*
X108591653Y-131244766D02*
X108544034Y-131292385D01*
X108544034Y-131292385D02*
X108496415Y-131387623D01*
X108496415Y-131387623D02*
X108448796Y-131578099D01*
X108448796Y-131578099D02*
X108401177Y-131673337D01*
X108401177Y-131673337D02*
X108353558Y-131720956D01*
X108353558Y-131720956D02*
X108258320Y-131768575D01*
X108258320Y-131768575D02*
X108163082Y-131768575D01*
X108163082Y-131768575D02*
X108067844Y-131720956D01*
X108067844Y-131720956D02*
X108020225Y-131673337D01*
X108020225Y-131673337D02*
X107972606Y-131578099D01*
X107972606Y-131578099D02*
X107972606Y-131340004D01*
X107972606Y-131340004D02*
X108020225Y-131197147D01*
X108448796Y-130435242D02*
X108496415Y-130292385D01*
X108496415Y-130292385D02*
X108544034Y-130244766D01*
X108544034Y-130244766D02*
X108639272Y-130197147D01*
X108639272Y-130197147D02*
X108782129Y-130197147D01*
X108782129Y-130197147D02*
X108877367Y-130244766D01*
X108877367Y-130244766D02*
X108924987Y-130292385D01*
X108924987Y-130292385D02*
X108972606Y-130387623D01*
X108972606Y-130387623D02*
X108972606Y-130768575D01*
X108972606Y-130768575D02*
X107972606Y-130768575D01*
X107972606Y-130768575D02*
X107972606Y-130435242D01*
X107972606Y-130435242D02*
X108020225Y-130340004D01*
X108020225Y-130340004D02*
X108067844Y-130292385D01*
X108067844Y-130292385D02*
X108163082Y-130244766D01*
X108163082Y-130244766D02*
X108258320Y-130244766D01*
X108258320Y-130244766D02*
X108353558Y-130292385D01*
X108353558Y-130292385D02*
X108401177Y-130340004D01*
X108401177Y-130340004D02*
X108448796Y-130435242D01*
X108448796Y-130435242D02*
X108448796Y-130768575D01*
D10*
X83638047Y-167834786D02*
X83638047Y-168644360D01*
X83638047Y-168644360D02*
X83685669Y-168739604D01*
X83685669Y-168739604D02*
X83733291Y-168787227D01*
X83733291Y-168787227D02*
X83828535Y-168834849D01*
X83828535Y-168834849D02*
X84019023Y-168834849D01*
X84019023Y-168834849D02*
X84114267Y-168787227D01*
X84114267Y-168787227D02*
X84161889Y-168739604D01*
X84161889Y-168739604D02*
X84209511Y-168644360D01*
X84209511Y-168644360D02*
X84209511Y-167834786D01*
X84590488Y-167834786D02*
X85209574Y-167834786D01*
X85209574Y-167834786D02*
X84876220Y-168215762D01*
X84876220Y-168215762D02*
X85019086Y-168215762D01*
X85019086Y-168215762D02*
X85114330Y-168263384D01*
X85114330Y-168263384D02*
X85161952Y-168311006D01*
X85161952Y-168311006D02*
X85209574Y-168406250D01*
X85209574Y-168406250D02*
X85209574Y-168644360D01*
X85209574Y-168644360D02*
X85161952Y-168739604D01*
X85161952Y-168739604D02*
X85114330Y-168787227D01*
X85114330Y-168787227D02*
X85019086Y-168834849D01*
X85019086Y-168834849D02*
X84733354Y-168834849D01*
X84733354Y-168834849D02*
X84638110Y-168787227D01*
X84638110Y-168787227D02*
X84590488Y-168739604D01*
D11*
X63338972Y-153807580D02*
X63005639Y-152807580D01*
X63005639Y-152807580D02*
X62672306Y-153807580D01*
X62434210Y-153807580D02*
X61815163Y-153807580D01*
X61815163Y-153807580D02*
X62148496Y-153426628D01*
X62148496Y-153426628D02*
X62005639Y-153426628D01*
X62005639Y-153426628D02*
X61910401Y-153379009D01*
X61910401Y-153379009D02*
X61862782Y-153331390D01*
X61862782Y-153331390D02*
X61815163Y-153236152D01*
X61815163Y-153236152D02*
X61815163Y-152998057D01*
X61815163Y-152998057D02*
X61862782Y-152902819D01*
X61862782Y-152902819D02*
X61910401Y-152855200D01*
X61910401Y-152855200D02*
X62005639Y-152807580D01*
X62005639Y-152807580D02*
X62291353Y-152807580D01*
X62291353Y-152807580D02*
X62386591Y-152855200D01*
X62386591Y-152855200D02*
X62434210Y-152902819D01*
X61386591Y-152902819D02*
X61338972Y-152855200D01*
X61338972Y-152855200D02*
X61386591Y-152807580D01*
X61386591Y-152807580D02*
X61434210Y-152855200D01*
X61434210Y-152855200D02*
X61386591Y-152902819D01*
X61386591Y-152902819D02*
X61386591Y-152807580D01*
X61005639Y-153807580D02*
X60386592Y-153807580D01*
X60386592Y-153807580D02*
X60719925Y-153426628D01*
X60719925Y-153426628D02*
X60577068Y-153426628D01*
X60577068Y-153426628D02*
X60481830Y-153379009D01*
X60481830Y-153379009D02*
X60434211Y-153331390D01*
X60434211Y-153331390D02*
X60386592Y-153236152D01*
X60386592Y-153236152D02*
X60386592Y-152998057D01*
X60386592Y-152998057D02*
X60434211Y-152902819D01*
X60434211Y-152902819D02*
X60481830Y-152855200D01*
X60481830Y-152855200D02*
X60577068Y-152807580D01*
X60577068Y-152807580D02*
X60862782Y-152807580D01*
X60862782Y-152807580D02*
X60958020Y-152855200D01*
X60958020Y-152855200D02*
X61005639Y-152902819D01*
X62624687Y-155402819D02*
X62672306Y-155355200D01*
X62672306Y-155355200D02*
X62815163Y-155307580D01*
X62815163Y-155307580D02*
X62910401Y-155307580D01*
X62910401Y-155307580D02*
X63053258Y-155355200D01*
X63053258Y-155355200D02*
X63148496Y-155450438D01*
X63148496Y-155450438D02*
X63196115Y-155545676D01*
X63196115Y-155545676D02*
X63243734Y-155736152D01*
X63243734Y-155736152D02*
X63243734Y-155879009D01*
X63243734Y-155879009D02*
X63196115Y-156069485D01*
X63196115Y-156069485D02*
X63148496Y-156164723D01*
X63148496Y-156164723D02*
X63053258Y-156259961D01*
X63053258Y-156259961D02*
X62910401Y-156307580D01*
X62910401Y-156307580D02*
X62815163Y-156307580D01*
X62815163Y-156307580D02*
X62672306Y-156259961D01*
X62672306Y-156259961D02*
X62624687Y-156212342D01*
X61719925Y-155307580D02*
X62196115Y-155307580D01*
X62196115Y-155307580D02*
X62196115Y-156307580D01*
X61386591Y-155307580D02*
X61386591Y-156307580D01*
X60815163Y-155307580D02*
X61243734Y-155879009D01*
X60815163Y-156307580D02*
X61386591Y-155736152D01*
X63196115Y-157807580D02*
X63196115Y-158807580D01*
X63196115Y-158807580D02*
X62958020Y-158807580D01*
X62958020Y-158807580D02*
X62815163Y-158759961D01*
X62815163Y-158759961D02*
X62719925Y-158664723D01*
X62719925Y-158664723D02*
X62672306Y-158569485D01*
X62672306Y-158569485D02*
X62624687Y-158379009D01*
X62624687Y-158379009D02*
X62624687Y-158236152D01*
X62624687Y-158236152D02*
X62672306Y-158045676D01*
X62672306Y-158045676D02*
X62719925Y-157950438D01*
X62719925Y-157950438D02*
X62815163Y-157855200D01*
X62815163Y-157855200D02*
X62958020Y-157807580D01*
X62958020Y-157807580D02*
X63196115Y-157807580D01*
X62243734Y-158093295D02*
X61767544Y-158093295D01*
X62338972Y-157807580D02*
X62005639Y-158807580D01*
X62005639Y-158807580D02*
X61672306Y-157807580D01*
X61481829Y-158807580D02*
X60910401Y-158807580D01*
X61196115Y-157807580D02*
X61196115Y-158807580D01*
X62672306Y-161428203D02*
X62767544Y-161475822D01*
X62767544Y-161475822D02*
X62910401Y-161475822D01*
X62910401Y-161475822D02*
X63053258Y-161428203D01*
X63053258Y-161428203D02*
X63148496Y-161332965D01*
X63148496Y-161332965D02*
X63196115Y-161237727D01*
X63196115Y-161237727D02*
X63243734Y-161047251D01*
X63243734Y-161047251D02*
X63243734Y-160904394D01*
X63243734Y-160904394D02*
X63196115Y-160713918D01*
X63196115Y-160713918D02*
X63148496Y-160618680D01*
X63148496Y-160618680D02*
X63053258Y-160523442D01*
X63053258Y-160523442D02*
X62910401Y-160475822D01*
X62910401Y-160475822D02*
X62815163Y-160475822D01*
X62815163Y-160475822D02*
X62672306Y-160523442D01*
X62672306Y-160523442D02*
X62624687Y-160571061D01*
X62624687Y-160571061D02*
X62624687Y-160904394D01*
X62624687Y-160904394D02*
X62815163Y-160904394D01*
X62196115Y-160475822D02*
X62196115Y-161475822D01*
X62196115Y-161475822D02*
X61624687Y-160475822D01*
X61624687Y-160475822D02*
X61624687Y-161475822D01*
X61148496Y-160475822D02*
X61148496Y-161475822D01*
X61148496Y-161475822D02*
X60910401Y-161475822D01*
X60910401Y-161475822D02*
X60767544Y-161428203D01*
X60767544Y-161428203D02*
X60672306Y-161332965D01*
X60672306Y-161332965D02*
X60624687Y-161237727D01*
X60624687Y-161237727D02*
X60577068Y-161047251D01*
X60577068Y-161047251D02*
X60577068Y-160904394D01*
X60577068Y-160904394D02*
X60624687Y-160713918D01*
X60624687Y-160713918D02*
X60672306Y-160618680D01*
X60672306Y-160618680D02*
X60767544Y-160523442D01*
X60767544Y-160523442D02*
X60910401Y-160475822D01*
X60910401Y-160475822D02*
X61148496Y-160475822D01*
D10*
X115416666Y-122254819D02*
X115416666Y-122969104D01*
X115416666Y-122969104D02*
X115369047Y-123111961D01*
X115369047Y-123111961D02*
X115273809Y-123207200D01*
X115273809Y-123207200D02*
X115130952Y-123254819D01*
X115130952Y-123254819D02*
X115035714Y-123254819D01*
X115845238Y-122350057D02*
X115892857Y-122302438D01*
X115892857Y-122302438D02*
X115988095Y-122254819D01*
X115988095Y-122254819D02*
X116226190Y-122254819D01*
X116226190Y-122254819D02*
X116321428Y-122302438D01*
X116321428Y-122302438D02*
X116369047Y-122350057D01*
X116369047Y-122350057D02*
X116416666Y-122445295D01*
X116416666Y-122445295D02*
X116416666Y-122540533D01*
X116416666Y-122540533D02*
X116369047Y-122683390D01*
X116369047Y-122683390D02*
X115797619Y-123254819D01*
X115797619Y-123254819D02*
X116416666Y-123254819D01*
%TO.C,J4*%
D12*
X112390000Y-143190000D02*
X113390000Y-143190000D01*
X112890000Y-144000000D02*
X112390000Y-144000000D01*
X112890000Y-145210000D02*
X112890000Y-144000000D01*
X113390000Y-143190000D02*
X113390000Y-141690000D01*
X119110000Y-143190000D02*
X119110000Y-141690000D01*
X119610000Y-144000000D02*
X119610000Y-145210000D01*
X119610000Y-145210000D02*
X112890000Y-145210000D01*
X120110000Y-143190000D02*
X119110000Y-143190000D01*
X120110000Y-144000000D02*
X119610000Y-144000000D01*
X120410000Y-141390000D02*
X117910000Y-141390000D01*
X120410000Y-143890000D02*
X120410000Y-141390000D01*
X112390000Y-141690000D02*
X120110000Y-141690000D01*
X120110000Y-145710000D01*
X112390000Y-145710000D01*
X112390000Y-141690000D01*
%TO.C,U2*%
D13*
X89500000Y-147180000D02*
X123500000Y-147180000D01*
X89500000Y-167180000D02*
X89500000Y-147180000D01*
X123500000Y-147180000D02*
X123500000Y-167180000D01*
X123500000Y-167180000D02*
X89500000Y-167180000D01*
%TO.C,U1*%
D14*
X58200187Y-117602460D02*
X109700187Y-117602460D01*
X109700187Y-145902460D01*
X58200187Y-145902460D01*
X58200187Y-117602460D01*
D11*
X106460187Y-127762460D02*
X110714366Y-127762460D01*
X110714366Y-135382460D01*
X106460187Y-135382460D01*
X106460187Y-127762460D01*
%TO.C,U3*%
D13*
X54000000Y-147180000D02*
X88000000Y-147180000D01*
X54000000Y-167180000D02*
X54000000Y-147180000D01*
X88000000Y-147180000D02*
X88000000Y-167180000D01*
X88000000Y-167180000D02*
X54000000Y-167180000D01*
%TO.C,J2*%
D12*
X111890000Y-119190000D02*
X112890000Y-119190000D01*
X112390000Y-120000000D02*
X111890000Y-120000000D01*
X112390000Y-121210000D02*
X112390000Y-120000000D01*
X112890000Y-119190000D02*
X112890000Y-117690000D01*
X118610000Y-119190000D02*
X118610000Y-117690000D01*
X119110000Y-120000000D02*
X119110000Y-121210000D01*
X119110000Y-121210000D02*
X112390000Y-121210000D01*
X119610000Y-119190000D02*
X118610000Y-119190000D01*
X119610000Y-120000000D02*
X119110000Y-120000000D01*
X119910000Y-117390000D02*
X117410000Y-117390000D01*
X119910000Y-119890000D02*
X119910000Y-117390000D01*
X111890000Y-117690000D02*
X119610000Y-117690000D01*
X119610000Y-121710000D01*
X111890000Y-121710000D01*
X111890000Y-117690000D01*
%TD*%
M02*
