M48
; DRILL file KiCad 10.0.6-10.0.6~ubuntu24.04.1 date 2026-10-02T16:29:24
; FORMAT={-:-/ absolute / metric / decimal}
; #@! TF.CreationDate,2026-10-02T16:29:24+02:00
; #@! TF.GenerationSoftware,Kicad,Pcbnew,10.0.6-10.0.6~ubuntu24.04.1
; #@! TF.FileFunction,Plated,1,2,PTH
FMAT,2
METRIC
; #@! TA.AperFunction,Plated,PTH,ComponentDrill
T1C0.800
; #@! TA.AperFunction,Plated,PTH,ComponentDrill
T2C1.000
; #@! TA.AperFunction,Plated,PTH,ComponentDrill
T3C1.016
%
G90
G05
T1
X45.96Y-124.14
X45.96Y-126.68
X45.96Y-129.22
X45.96Y-131.76
X45.96Y-134.3
X45.96Y-136.84
X45.96Y-139.38
X45.96Y-141.92
X45.96Y-144.46
X45.96Y-147.0
X45.96Y-149.54
X45.96Y-152.08
X45.96Y-154.62
X45.96Y-157.16
X66.06Y-119.1
X66.06Y-144.5
X68.6Y-119.1
X68.6Y-144.5
X71.14Y-119.1
X71.14Y-144.5
X73.68Y-119.1
X73.68Y-144.5
X76.22Y-119.1
X76.22Y-144.5
X78.76Y-119.1
X78.76Y-144.5
X81.3Y-119.1
X81.3Y-144.5
X83.84Y-119.1
X83.84Y-144.5
X86.38Y-119.1
X86.38Y-144.5
X88.92Y-119.1
X88.92Y-144.5
X91.46Y-119.1
X91.46Y-144.5
X94.0Y-119.1
X94.0Y-144.5
X96.54Y-119.1
X96.54Y-144.5
X99.08Y-119.1
X99.08Y-144.5
X101.62Y-119.1
X101.62Y-144.5
T2
X114.5Y-120.0
X115.0Y-144.0
X117.0Y-120.0
X117.5Y-144.0
T3
X59.0Y-153.38
X59.0Y-155.92
X59.0Y-158.46
X59.0Y-161.0
X94.5Y-153.38
X94.5Y-155.92
X94.5Y-158.46
X94.5Y-161.0
M30
