M48
; DRILL file KiCad 10.0.6-10.0.6~ubuntu24.04.1 date 2026-09-13T13:11:21
; FORMAT={-:-/ absolute / metric / decimal}
; #@! TF.CreationDate,2026-09-13T13:11:21+02:00
; #@! TF.GenerationSoftware,Kicad,Pcbnew,10.0.6-10.0.6~ubuntu24.04.1
; #@! TF.FileFunction,Plated,1,2,PTH
FMAT,2
METRIC
; #@! TA.AperFunction,Plated,PTH,ComponentDrill
T1C0.800
; #@! TA.AperFunction,Plated,PTH,ComponentDrill
T2C1.000
%
G90
G05
T1
X103.56Y-53.1
X103.56Y-78.5
X106.1Y-53.1
X106.1Y-78.5
X108.64Y-53.1
X108.64Y-78.5
X111.18Y-53.1
X111.18Y-78.5
X113.72Y-53.1
X113.72Y-78.5
X116.26Y-53.1
X116.26Y-78.5
X118.8Y-53.1
X118.8Y-78.5
X121.34Y-53.1
X121.34Y-78.5
X123.88Y-53.1
X123.88Y-78.5
X126.42Y-53.1
X126.42Y-78.5
X128.96Y-53.1
X128.96Y-78.5
X131.5Y-53.1
X131.5Y-78.5
X134.04Y-53.1
X134.04Y-78.5
X136.58Y-53.1
X136.58Y-78.5
X139.12Y-53.1
X139.12Y-78.5
T2
X89.5Y-59.48
X89.5Y-62.02
X89.5Y-64.56
X89.5Y-67.1
X89.5Y-69.64
X89.5Y-72.18
X89.5Y-74.72
X89.5Y-77.26
X89.5Y-79.8
X89.5Y-82.34
X89.5Y-84.88
X89.5Y-87.42
X89.5Y-89.96
X89.5Y-92.5
X99.5Y-87.34
X99.5Y-89.88
X99.5Y-92.42
X99.5Y-94.96
X99.5Y-97.5
X135.5Y-87.0
X135.5Y-89.54
X135.5Y-92.08
X135.5Y-94.62
X135.5Y-97.16
X150.968Y-77.25
X150.968Y-79.75
X151.0Y-57.5
X151.0Y-60.0
M30
