%TF.GenerationSoftware,KiCad,Pcbnew,10.0.6-10.0.6~ubuntu24.04.1*%
%TF.CreationDate,2026-09-13T13:11:31+02:00*%
%TF.ProjectId,maratui,6d617261-7475-4692-9e6b-696361645f70,rev?*%
%TF.SameCoordinates,Original*%
%TF.FileFunction,Copper,L1,Top*%
%TF.FilePolarity,Positive*%
%FSLAX46Y46*%
G04 Gerber Fmt 4.6, Leading zero omitted, Abs format (unit mm)*
G04 Created by KiCad (PCBNEW 10.0.6-10.0.6~ubuntu24.04.1) date 2026-09-13 13:11:31*
%MOMM*%
%LPD*%
G01*
G04 APERTURE LIST*
G04 Aperture macros list*
%AMRoundRect*
0 Rectangle with rounded corners*
0 $1 Rounding radius*
0 $2 $3 $4 $5 $6 $7 $8 $9 X,Y pos of 4 corners*
0 Add a 4 corners polygon primitive as box body*
4,1,4,$2,$3,$4,$5,$6,$7,$8,$9,$2,$3,0*
0 Add four circle primitives for the rounded corners*
1,1,$1+$1,$2,$3*
1,1,$1+$1,$4,$5*
1,1,$1+$1,$6,$7*
1,1,$1+$1,$8,$9*
0 Add four rect primitives between the rounded corners*
20,1,$1+$1,$2,$3,$4,$5,0*
20,1,$1+$1,$4,$5,$6,$7,0*
20,1,$1+$1,$6,$7,$8,$9,0*
20,1,$1+$1,$8,$9,$2,$3,0*%
G04 Aperture macros list end*
%TA.AperFunction,ComponentPad*%
%ADD10RoundRect,0.250000X-0.750000X0.600000X-0.750000X-0.600000X0.750000X-0.600000X0.750000X0.600000X0*%
%TD*%
%TA.AperFunction,ComponentPad*%
%ADD11O,2.000000X1.700000*%
%TD*%
%TA.AperFunction,ComponentPad*%
%ADD12R,1.700000X1.700000*%
%TD*%
%TA.AperFunction,ComponentPad*%
%ADD13C,1.700000*%
%TD*%
%TA.AperFunction,ComponentPad*%
%ADD14O,1.524000X1.900000*%
%TD*%
%TA.AperFunction,Conductor*%
%ADD15C,0.200000*%
%TD*%
G04 APERTURE END LIST*
D10*
%TO.P,J2,1,Pin_1_1*%
%TO.N,/BUTTON*%
X150967500Y-77250000D03*
D11*
%TO.P,J2,2,Pin_2_2*%
%TO.N,GND*%
X150967500Y-79750000D03*
%TD*%
D10*
%TO.P,J4,1,Pin_1_1*%
%TO.N,Net-(J4-Pin_1)*%
X151000000Y-57500000D03*
D11*
%TO.P,J4,2,Pin_2_2*%
%TO.N,Net-(J4-Pin_2)*%
X151000000Y-60000000D03*
%TD*%
D12*
%TO.P,J5,1,Pin_1_1*%
%TO.N,+3.3V*%
X89500000Y-92500000D03*
D13*
%TO.P,J5,2,Pin_2_2*%
%TO.N,GND*%
X89500000Y-89960000D03*
%TO.P,J5,3,Pin_3_3*%
%TO.N,cs_19*%
X89500000Y-87420000D03*
%TO.P,J5,4,Pin_4_4*%
%TO.N,/RESET*%
X89500000Y-84880000D03*
%TO.P,J5,5,Pin_5_5*%
%TO.N,DC_23*%
X89500000Y-82340000D03*
%TO.P,J5,6,Pin_6_6*%
%TO.N,Mosi_21*%
X89500000Y-79800000D03*
%TO.P,J5,7,Pin_7_7*%
%TO.N,sck_18*%
X89500000Y-77260000D03*
%TO.P,J5,8,Pin_8_8*%
%TO.N,/LED*%
X89500000Y-74720000D03*
%TO.P,J5,9*%
%TO.N,N/C*%
X89500000Y-72180000D03*
%TO.P,J5,10*%
X89500000Y-69640000D03*
%TO.P,J5,11*%
X89500000Y-67100000D03*
%TO.P,J5,12*%
X89500000Y-64560000D03*
%TO.P,J5,13*%
X89500000Y-62020000D03*
%TO.P,J5,14*%
X89500000Y-59480000D03*
%TD*%
D12*
%TO.P,J1,1,Pin_1_1*%
%TO.N,+3.3V*%
X135500000Y-87000000D03*
D13*
%TO.P,J1,2,Pin_2_2*%
%TO.N,SCK_26*%
X135500000Y-89540000D03*
%TO.P,J1,3,Pin_3_3*%
%TO.N,Dat_25*%
X135500000Y-92080000D03*
%TO.P,J1,4,Pin_4_4*%
%TO.N,GND*%
X135500000Y-94620000D03*
%TO.P,J1,5*%
%TO.N,N/C*%
X135500000Y-97160000D03*
%TD*%
D14*
%TO.P,U2,1,VIN_1*%
%TO.N,+5V*%
X139120000Y-78500000D03*
%TO.P,U2,2,GND_2*%
%TO.N,unconnected-(U2-GND-Pad2)*%
X136580000Y-78500000D03*
%TO.P,U2,3,GPIO13_3*%
%TO.N,unconnected-(U2-GPIO13-Pad3)*%
X134040000Y-78500000D03*
%TO.P,U2,4,GPIO12_4*%
%TO.N,/BUTTON*%
X131500000Y-78500000D03*
%TO.P,U2,5,GPIO14_5*%
%TO.N,/LED*%
X128960000Y-78500000D03*
%TO.P,U2,6,GPIO27_6*%
%TO.N,SCK_27*%
X126420000Y-78500000D03*
%TO.P,U2,7,GPIO26_7*%
%TO.N,SCK_26*%
X123880000Y-78500000D03*
%TO.P,U2,8,GPIO25_8*%
%TO.N,Dat_25*%
X121340000Y-78500000D03*
%TO.P,U2,9,GPIO33_9*%
%TO.N,unconnected-(U2-GPIO33-Pad9)*%
X118800000Y-78500000D03*
%TO.P,U2,10,GPIO32_10*%
%TO.N,Dat_32*%
X116260000Y-78500000D03*
%TO.P,U2,11,GPIO35_11*%
%TO.N,unconnected-(U2-GPIO35-Pad11)*%
X113720000Y-78500000D03*
%TO.P,U2,12,GPIO34_12*%
%TO.N,unconnected-(U2-GPIO34-Pad12)*%
X111180000Y-78500000D03*
%TO.P,U2,13,GPIO39_13*%
%TO.N,unconnected-(U2-GPIO39-Pad13)*%
X108640000Y-78500000D03*
%TO.P,U2,14,GPIO36_14*%
%TO.N,unconnected-(U2-GPIO36-Pad14)*%
X106100000Y-78500000D03*
%TO.P,U2,15,EN_15*%
%TO.N,unconnected-(U2-EN-Pad15)*%
X103560000Y-78500000D03*
%TO.P,U2,16,3.3v_16*%
%TO.N,+3.3V*%
X139120000Y-53100000D03*
%TO.P,U2,17,GND_17*%
%TO.N,GND*%
X136580000Y-53100000D03*
%TO.P,U2,18,GPIO15_18*%
%TO.N,unconnected-(U2-GPIO15-Pad18)*%
X134040000Y-53100000D03*
%TO.P,U2,19,GPIO2_19*%
%TO.N,unconnected-(U2-GPIO2-Pad19)*%
X131500000Y-53100000D03*
%TO.P,U2,20,GPIO4_20*%
%TO.N,unconnected-(U2-GPIO4-Pad20)*%
X128960000Y-53100000D03*
%TO.P,U2,21,GPIO16_21*%
%TO.N,Net-(J4-Pin_2)*%
X126420000Y-53100000D03*
%TO.P,U2,22,GPIO17_22*%
%TO.N,Net-(J4-Pin_1)*%
X123880000Y-53100000D03*
%TO.P,U2,23,GPIO5_23*%
%TO.N,unconnected-(U2-GPIO5-Pad23)*%
X121340000Y-53100000D03*
%TO.P,U2,24,GPIO18_24*%
%TO.N,sck_18*%
X118800000Y-53100000D03*
%TO.P,U2,25,GPIO19_25*%
%TO.N,cs_19*%
X116260000Y-53100000D03*
%TO.P,U2,26,GPIO21_26*%
%TO.N,Mosi_21*%
X113720000Y-53100000D03*
%TO.P,U2,27,GPIO3_27*%
%TO.N,unconnected-(U2-GPIO3-Pad27)*%
X111180000Y-53100000D03*
%TO.P,U2,28,GPIO1_28*%
%TO.N,unconnected-(U2-GPIO1-Pad28)*%
X108640000Y-53100000D03*
%TO.P,U2,29,GPIO22_29*%
%TO.N,/RESET*%
X106100000Y-53100000D03*
%TO.P,U2,30,GPIO23_30*%
%TO.N,DC_23*%
X103560000Y-53100000D03*
%TD*%
D13*
%TO.P,J3,5*%
%TO.N,N/C*%
X99500000Y-97500000D03*
%TO.P,J3,4,Pin_4_4*%
%TO.N,GND*%
X99500000Y-94960000D03*
%TO.P,J3,3,Pin_3_3*%
%TO.N,Dat_32*%
X99500000Y-92420000D03*
%TO.P,J3,2,Pin_2_2*%
%TO.N,SCK_27*%
X99500000Y-89880000D03*
D12*
%TO.P,J3,1,Pin_1_1*%
%TO.N,+3.3V*%
X99500000Y-87340000D03*
%TD*%
%TO.N,Net-(J4-Pin_2)*%
D15*
X151000000Y-60000000D02*
X133320000Y-60000000D01*
X133320000Y-60000000D02*
X126420000Y-53100000D01*
%TO.N,GND*%
X151984744Y-58650000D02*
X152300000Y-58965256D01*
X152300000Y-58965256D02*
X152300000Y-78417500D01*
X152300000Y-78417500D02*
X150967500Y-79750000D01*
X136580000Y-53100000D02*
X142130000Y-58650000D01*
X142130000Y-58650000D02*
X151984744Y-58650000D01*
%TO.N,Net-(J4-Pin_1)*%
X147450000Y-51450000D02*
X151000000Y-55000000D01*
X151000000Y-55000000D02*
X151000000Y-57500000D01*
X123880000Y-53100000D02*
X123880000Y-52120000D01*
X124550000Y-51450000D02*
X147450000Y-51450000D01*
X123880000Y-52120000D02*
X124550000Y-51450000D01*
%TO.N,+3.3V*%
X125650000Y-51850000D02*
X125000000Y-52500000D01*
X125000000Y-52500000D02*
X125000000Y-60624000D01*
X137870000Y-51850000D02*
X125650000Y-51850000D01*
X139120000Y-53100000D02*
X137870000Y-51850000D01*
X125000000Y-60624000D02*
X130438000Y-66062000D01*
%TO.N,GND*%
X140380000Y-94620000D02*
X150967500Y-84032500D01*
X150967500Y-84032500D02*
X150967500Y-79750000D01*
%TO.N,/BUTTON*%
X138850000Y-85850000D02*
X142367500Y-85850000D01*
X142367500Y-85850000D02*
X150967500Y-77250000D01*
%TO.N,+3.3V*%
X89360000Y-92510000D02*
X94330000Y-92510000D01*
X99840000Y-87000000D02*
X99500000Y-87340000D01*
X135023654Y-93230000D02*
X139270000Y-93230000D01*
X139270000Y-93230000D02*
X139500000Y-93000000D01*
X95000000Y-94000000D02*
X95500000Y-94500000D01*
X139500000Y-93000000D02*
X139500000Y-87000000D01*
X99500000Y-87340000D02*
X95000000Y-91840000D01*
X96190000Y-93810000D02*
X134443654Y-93810000D01*
X135500000Y-87000000D02*
X130438000Y-81938000D01*
X130438000Y-81938000D02*
X130438000Y-66062000D01*
X94330000Y-92510000D02*
X99500000Y-87340000D01*
X95000000Y-91840000D02*
X95000000Y-94000000D01*
X139500000Y-87000000D02*
X135500000Y-87000000D01*
X95500000Y-94500000D02*
X96190000Y-93810000D01*
X134443654Y-93810000D02*
X135023654Y-93230000D01*
%TO.N,SCK_26*%
X124460000Y-78500000D02*
X123880000Y-78500000D01*
X135500000Y-89540000D02*
X124460000Y-78500000D01*
%TO.N,Dat_25*%
X121920000Y-78500000D02*
X121340000Y-78500000D01*
X135500000Y-92080000D02*
X121920000Y-78500000D01*
%TO.N,GND*%
X87560000Y-92944924D02*
X87560000Y-91770000D01*
X135500000Y-94620000D02*
X99840000Y-94620000D01*
X99500000Y-94960000D02*
X89575076Y-94960000D01*
X140380000Y-94620000D02*
X135500000Y-94620000D01*
X87560000Y-91770000D02*
X89360000Y-89970000D01*
X99840000Y-94620000D02*
X99500000Y-94960000D01*
X89575076Y-94960000D02*
X87560000Y-92944924D01*
%TO.N,/BUTTON*%
X138850000Y-85850000D02*
X131500000Y-78500000D01*
%TO.N,/LED*%
X88204314Y-74730000D02*
X86500000Y-76434314D01*
X90450000Y-80950000D02*
X91160000Y-81660000D01*
X90454924Y-86030000D02*
X90742462Y-85742462D01*
X92430000Y-88570000D02*
X99500000Y-81500000D01*
X88265076Y-80950000D02*
X90450000Y-80950000D01*
X103500000Y-81500000D02*
X104622000Y-80378000D01*
X89360000Y-74730000D02*
X88204314Y-74730000D01*
X88970000Y-86030000D02*
X90454924Y-86030000D01*
X88000000Y-88500000D02*
X88070000Y-88570000D01*
X104622000Y-77878000D02*
X107400000Y-75100000D01*
X86500000Y-76434314D02*
X86500000Y-79184924D01*
X86500000Y-79184924D02*
X88265076Y-80950000D01*
X88000000Y-87000000D02*
X88000000Y-88500000D01*
X99500000Y-81500000D02*
X103500000Y-81500000D01*
X125560000Y-75100000D02*
X128960000Y-78500000D01*
X91160000Y-81660000D02*
X91160000Y-85324924D01*
X104622000Y-80378000D02*
X104622000Y-77878000D01*
X107400000Y-75100000D02*
X125560000Y-75100000D01*
X88070000Y-88570000D02*
X92430000Y-88570000D01*
X88000000Y-87000000D02*
X88970000Y-86030000D01*
X91160000Y-85324924D02*
X90454924Y-86030000D01*
%TO.N,SCK_27*%
X122500000Y-75500000D02*
X123420000Y-75500000D01*
X109525895Y-89880000D02*
X120278000Y-79127895D01*
X123420000Y-75500000D02*
X126420000Y-78500000D01*
X120278000Y-79127895D02*
X120278000Y-77722000D01*
X99500000Y-89880000D02*
X109525895Y-89880000D01*
X120278000Y-77722000D02*
X122500000Y-75500000D01*
%TO.N,Dat_32*%
X98350000Y-89403654D02*
X99263654Y-88490000D01*
X98350000Y-91270000D02*
X98350000Y-89403654D01*
X99500000Y-92420000D02*
X98350000Y-91270000D01*
X106270000Y-88490000D02*
X116260000Y-78500000D01*
X99263654Y-88490000D02*
X106270000Y-88490000D01*
%TO.N,sck_18*%
X117550000Y-51850000D02*
X115650000Y-51850000D01*
X118800000Y-53100000D02*
X117550000Y-51850000D01*
X115650000Y-51850000D02*
X114782000Y-52718000D01*
X114782000Y-52718000D02*
X114782000Y-53727895D01*
X91239895Y-77270000D02*
X89360000Y-77270000D01*
X114782000Y-53727895D02*
X91239895Y-77270000D01*
%TO.N,cs_19*%
X116260000Y-62740000D02*
X91570000Y-87430000D01*
X91570000Y-87430000D02*
X89360000Y-87430000D01*
X116260000Y-53100000D02*
X116260000Y-62740000D01*
%TO.N,Mosi_21*%
X89360000Y-79810000D02*
X86900000Y-77350000D01*
X87390000Y-76110000D02*
X90710000Y-76110000D01*
X90710000Y-76110000D02*
X113720000Y-53100000D01*
X86900000Y-76600000D02*
X87390000Y-76110000D01*
X86900000Y-77350000D02*
X86900000Y-76600000D01*
%TO.N,/RESET*%
X85500000Y-81714314D02*
X88675686Y-84890000D01*
X106100000Y-53100000D02*
X104850000Y-51850000D01*
X85500000Y-54500000D02*
X85500000Y-81714314D01*
X88675686Y-84890000D02*
X89360000Y-84890000D01*
X88150000Y-51850000D02*
X85500000Y-54500000D01*
X104850000Y-51850000D02*
X88150000Y-51850000D01*
%TO.N,DC_23*%
X103560000Y-53100000D02*
X102817540Y-52357540D01*
X86100000Y-79840000D02*
X88610000Y-82350000D01*
X86100000Y-54900000D02*
X86100000Y-79840000D01*
X102817540Y-52357540D02*
X88642460Y-52357540D01*
X88610000Y-82350000D02*
X89360000Y-82350000D01*
X88642460Y-52357540D02*
X86100000Y-54900000D01*
%TD*%
M02*
