ISO-10303-21;
HEADER;
FILE_DESCRIPTION((''),'2;1');
FILE_NAME('AUFLAGESD','2026-09-04T11:02:12',('mkmrppm1'),(
'Siemens Mobility GmbH'),'CREO PARAMETRIC BY PTC INC, 2025323',
'CREO PARAMETRIC BY PTC INC, 2025323','');
FILE_SCHEMA(('AUTOMOTIVE_DESIGN { 1 0 10303 214 1 1 1 1 }'));
ENDSEC;
DATA;
#93=CARTESIAN_POINT('',(-6.E0,5.585817439135E1,-8.8E0));
#94=DIRECTION('',(-1.E0,0.E0,0.E0));
#95=DIRECTION('',(0.E0,1.684961224749E-1,9.857023164784E-1));
#96=AXIS2_PLACEMENT_3D('',#93,#94,#95);
#98=DIRECTION('',(0.E0,-9.857023164784E-1,1.684961224749E-1));
#99=VECTOR('',#98,4.520672113009E1);
#100=CARTESIAN_POINT('',(-6.E0,5.606036973832E1,-7.617157220226E0));
#101=LINE('392',#100,#99);
#102=DIRECTION('',(0.E0,-1.E0,0.E0));
#103=VECTOR('',#102,2.3E1);
#104=CARTESIAN_POINT('',(-6.E0,1.15E1,0.E0));
#105=LINE('102',#104,#103);
#106=DIRECTION('',(0.E0,-9.678837029207E-1,-2.513983643950E-1));
#107=VECTOR('',#106,3.038420546163E1);
#108=CARTESIAN_POINT('',(-6.E0,-1.15E1,0.E0));
#109=LINE('390',#108,#107);
#110=CARTESIAN_POINT('',(-6.E0,-4.060669925523E1,-8.8E0));
#111=DIRECTION('',(-1.E0,0.E0,0.E0));
#112=DIRECTION('',(0.E0,0.E0,-1.E0));
#113=AXIS2_PLACEMENT_3D('',#110,#111,#112);
#115=DIRECTION('',(0.E0,1.E0,0.E0));
#116=VECTOR('',#115,9.646487364658E1);
#117=CARTESIAN_POINT('',(-6.E0,-4.060669925523E1,-1.E1));
#118=LINE('391',#117,#116);
#119=CARTESIAN_POINT('',(0.E0,-7.5E0,-1.E1));
#120=DIRECTION('',(0.E0,0.E0,1.E0));
#121=DIRECTION('',(1.E0,0.E0,0.E0));
#122=AXIS2_PLACEMENT_3D('',#119,#120,#121);
#124=CARTESIAN_POINT('',(0.E0,-7.5E0,-1.E1));
#125=DIRECTION('',(0.E0,0.E0,1.E0));
#126=DIRECTION('',(-1.E0,0.E0,0.E0));
#127=AXIS2_PLACEMENT_3D('',#124,#125,#126);
#129=CARTESIAN_POINT('',(0.E0,7.5E0,-1.E1));
#130=DIRECTION('',(0.E0,0.E0,1.E0));
#131=DIRECTION('',(1.E0,0.E0,0.E0));
#132=AXIS2_PLACEMENT_3D('',#129,#130,#131);
#134=CARTESIAN_POINT('',(0.E0,7.5E0,-1.E1));
#135=DIRECTION('',(0.E0,0.E0,1.E0));
#136=DIRECTION('',(-1.E0,0.E0,0.E0));
#137=AXIS2_PLACEMENT_3D('',#134,#135,#136);
#139=DIRECTION('',(-1.E0,0.E0,0.E0));
#140=VECTOR('',#139,1.2E1);
#141=CARTESIAN_POINT('',(6.E0,5.585817439135E1,-1.E1));
#142=LINE('383',#141,#140);
#143=DIRECTION('',(-1.E0,0.E0,0.E0));
#144=VECTOR('',#143,1.2E1);
#145=CARTESIAN_POINT('',(6.E0,-4.060669925523E1,-1.E1));
#146=LINE('389',#145,#144);
#147=DIRECTION('',(0.E0,0.E0,1.E0));
#148=VECTOR('',#147,3.E0);
#149=CARTESIAN_POINT('',(5.5E0,-7.5E0,-1.E1));
#150=LINE('289',#149,#148);
#151=DIRECTION('',(0.E0,0.E0,1.E0));
#152=VECTOR('',#151,3.E0);
#153=CARTESIAN_POINT('',(-5.5E0,-7.5E0,-1.E1));
#154=LINE('290',#153,#152);
#155=CARTESIAN_POINT('',(0.E0,-7.5E0,-7.E0));
#156=DIRECTION('',(0.E0,0.E0,1.E0));
#157=DIRECTION('',(1.E0,0.E0,0.E0));
#158=AXIS2_PLACEMENT_3D('',#155,#156,#157);
#160=CARTESIAN_POINT('',(0.E0,-7.5E0,-7.E0));
#161=DIRECTION('',(0.E0,0.E0,1.E0));
#162=DIRECTION('',(-1.E0,0.E0,0.E0));
#163=AXIS2_PLACEMENT_3D('',#160,#161,#162);
#165=CARTESIAN_POINT('',(0.E0,-7.5E0,-7.E0));
#166=DIRECTION('',(0.E0,0.E0,1.E0));
#167=DIRECTION('',(1.E0,0.E0,0.E0));
#168=AXIS2_PLACEMENT_3D('',#165,#166,#167);
#170=DIRECTION('',(0.E0,0.E0,1.E0));
#171=VECTOR('',#170,7.E0);
#172=CARTESIAN_POINT('',(2.75E0,-7.5E0,-7.E0));
#173=LINE('287',#172,#171);
#174=CARTESIAN_POINT('',(0.E0,-7.5E0,-7.E0));
#175=DIRECTION('',(0.E0,0.E0,1.E0));
#176=DIRECTION('',(-1.E0,0.E0,0.E0));
#177=AXIS2_PLACEMENT_3D('',#174,#175,#176);
#179=DIRECTION('',(0.E0,0.E0,1.E0));
#180=VECTOR('',#179,7.E0);
#181=CARTESIAN_POINT('',(-2.75E0,-7.5E0,-7.E0));
#182=LINE('288',#181,#180);
#183=DIRECTION('',(1.E0,0.E0,0.E0));
#184=VECTOR('',#183,1.2E1);
#185=CARTESIAN_POINT('',(-6.E0,1.15E1,0.E0));
#186=LINE('115',#185,#184);
#187=CARTESIAN_POINT('',(0.E0,-7.5E0,0.E0));
#188=DIRECTION('',(0.E0,0.E0,1.E0));
#189=DIRECTION('',(1.E0,0.E0,0.E0));
#190=AXIS2_PLACEMENT_3D('',#187,#188,#189);
#192=CARTESIAN_POINT('',(0.E0,-7.5E0,0.E0));
#193=DIRECTION('',(0.E0,0.E0,1.E0));
#194=DIRECTION('',(-1.E0,0.E0,0.E0));
#195=AXIS2_PLACEMENT_3D('',#192,#193,#194);
#197=CARTESIAN_POINT('',(0.E0,7.5E0,0.E0));
#198=DIRECTION('',(0.E0,0.E0,1.E0));
#199=DIRECTION('',(1.E0,0.E0,0.E0));
#200=AXIS2_PLACEMENT_3D('',#197,#198,#199);
#202=CARTESIAN_POINT('',(0.E0,7.5E0,0.E0));
#203=DIRECTION('',(0.E0,0.E0,1.E0));
#204=DIRECTION('',(-1.E0,0.E0,0.E0));
#205=AXIS2_PLACEMENT_3D('',#202,#203,#204);
#207=DIRECTION('',(-1.E0,0.E0,0.E0));
#208=VECTOR('',#207,1.2E1);
#209=CARTESIAN_POINT('',(6.E0,5.606036973832E1,-7.617157220226E0));
#210=LINE('385',#209,#208);
#211=CARTESIAN_POINT('',(6.E0,5.585817439135E1,-8.8E0));
#212=DIRECTION('',(1.E0,0.E0,0.E0));
#213=DIRECTION('',(0.E0,0.E0,-1.E0));
#214=AXIS2_PLACEMENT_3D('',#211,#212,#213);
#216=DIRECTION('',(0.E0,1.E0,0.E0));
#217=VECTOR('',#216,9.646487364658E1);
#218=CARTESIAN_POINT('',(6.E0,-4.060669925523E1,-1.E1));
#219=LINE('394',#218,#217);
#220=CARTESIAN_POINT('',(6.E0,-4.060669925523E1,-8.8E0));
#221=DIRECTION('',(1.E0,0.E0,0.E0));
#222=DIRECTION('',(0.E0,-2.513983643950E-1,9.678837029207E-1));
#223=AXIS2_PLACEMENT_3D('',#220,#221,#222);
#225=DIRECTION('',(0.E0,-9.678837029207E-1,-2.513983643950E-1));
#226=VECTOR('',#225,3.038420546163E1);
#227=CARTESIAN_POINT('',(6.E0,-1.15E1,0.E0));
#228=LINE('393',#227,#226);
#229=DIRECTION('',(0.E0,-1.E0,0.E0));
#230=VECTOR('',#229,2.3E1);
#231=CARTESIAN_POINT('',(6.E0,1.15E1,0.E0));
#232=LINE('107',#231,#230);
#233=DIRECTION('',(0.E0,-9.857023164784E-1,1.684961224749E-1));
#234=VECTOR('',#233,4.520672113009E1);
#235=CARTESIAN_POINT('',(6.E0,5.606036973832E1,-7.617157220226E0));
#236=LINE('395',#235,#234);
#237=DIRECTION('',(-1.E0,0.E0,0.E0));
#238=VECTOR('',#237,1.2E1);
#239=CARTESIAN_POINT('',(6.E0,-4.090837729251E1,-7.638539556495E0));
#240=LINE('387',#239,#238);
#241=DIRECTION('',(1.E0,0.E0,0.E0));
#242=VECTOR('',#241,1.2E1);
#243=CARTESIAN_POINT('',(-6.E0,-1.15E1,0.E0));
#244=LINE('109',#243,#242);
#245=CARTESIAN_POINT('',(0.E0,7.5E0,-7.E0));
#246=DIRECTION('',(0.E0,0.E0,1.E0));
#247=DIRECTION('',(1.E0,0.E0,0.E0));
#248=AXIS2_PLACEMENT_3D('',#245,#246,#247);
#250=DIRECTION('',(0.E0,0.E0,1.E0));
#251=VECTOR('',#250,7.E0);
#252=CARTESIAN_POINT('',(2.75E0,7.5E0,-7.E0));
#253=LINE('319',#252,#251);
#254=CARTESIAN_POINT('',(0.E0,7.5E0,-7.E0));
#255=DIRECTION('',(0.E0,0.E0,1.E0));
#256=DIRECTION('',(1.E0,0.E0,0.E0));
#257=AXIS2_PLACEMENT_3D('',#254,#255,#256);
#259=CARTESIAN_POINT('',(0.E0,7.5E0,-7.E0));
#260=DIRECTION('',(0.E0,0.E0,1.E0));
#261=DIRECTION('',(-1.E0,0.E0,0.E0));
#262=AXIS2_PLACEMENT_3D('',#259,#260,#261);
#264=DIRECTION('',(0.E0,0.E0,1.E0));
#265=VECTOR('',#264,3.E0);
#266=CARTESIAN_POINT('',(5.5E0,7.5E0,-1.E1));
#267=LINE('321',#266,#265);
#268=DIRECTION('',(0.E0,0.E0,1.E0));
#269=VECTOR('',#268,3.E0);
#270=CARTESIAN_POINT('',(-5.5E0,7.5E0,-1.E1));
#271=LINE('322',#270,#269);
#272=CARTESIAN_POINT('',(0.E0,7.5E0,-7.E0));
#273=DIRECTION('',(0.E0,0.E0,1.E0));
#274=DIRECTION('',(-1.E0,0.E0,0.E0));
#275=AXIS2_PLACEMENT_3D('',#272,#273,#274);
#277=DIRECTION('',(0.E0,0.E0,1.E0));
#278=VECTOR('',#277,7.E0);
#279=CARTESIAN_POINT('',(-2.75E0,7.5E0,-7.E0));
#280=LINE('320',#279,#278);
#281=CARTESIAN_POINT('',(-6.E0,1.15E1,0.E0));
#282=CARTESIAN_POINT('',(-6.E0,-1.15E1,0.E0));
#283=VERTEX_POINT('',#281);
#284=VERTEX_POINT('',#282);
#285=CARTESIAN_POINT('',(6.E0,1.15E1,0.E0));
#286=CARTESIAN_POINT('',(6.E0,-1.15E1,0.E0));
#287=VERTEX_POINT('',#285);
#288=VERTEX_POINT('',#286);
#289=CARTESIAN_POINT('',(5.5E0,-7.5E0,-7.E0));
#290=CARTESIAN_POINT('',(-5.5E0,-7.5E0,-7.E0));
#291=VERTEX_POINT('',#289);
#292=VERTEX_POINT('',#290);
#293=CARTESIAN_POINT('',(5.5E0,-7.5E0,-1.E1));
#294=CARTESIAN_POINT('',(-5.5E0,-7.5E0,-1.E1));
#295=VERTEX_POINT('',#293);
#296=VERTEX_POINT('',#294);
#297=CARTESIAN_POINT('',(2.75E0,-7.5E0,-7.E0));
#298=CARTESIAN_POINT('',(-2.75E0,-7.5E0,-7.E0));
#299=VERTEX_POINT('',#297);
#300=VERTEX_POINT('',#298);
#301=CARTESIAN_POINT('',(2.75E0,-7.5E0,0.E0));
#302=VERTEX_POINT('',#301);
#303=CARTESIAN_POINT('',(-2.75E0,-7.5E0,0.E0));
#304=VERTEX_POINT('',#303);
#305=CARTESIAN_POINT('',(5.5E0,7.5E0,-7.E0));
#306=CARTESIAN_POINT('',(-5.5E0,7.5E0,-7.E0));
#307=VERTEX_POINT('',#305);
#308=VERTEX_POINT('',#306);
#309=CARTESIAN_POINT('',(5.5E0,7.5E0,-1.E1));
#310=CARTESIAN_POINT('',(-5.5E0,7.5E0,-1.E1));
#311=VERTEX_POINT('',#309);
#312=VERTEX_POINT('',#310);
#313=CARTESIAN_POINT('',(2.75E0,7.5E0,-7.E0));
#314=CARTESIAN_POINT('',(-2.75E0,7.5E0,-7.E0));
#315=VERTEX_POINT('',#313);
#316=VERTEX_POINT('',#314);
#317=CARTESIAN_POINT('',(2.75E0,7.5E0,0.E0));
#318=VERTEX_POINT('',#317);
#319=CARTESIAN_POINT('',(-2.75E0,7.5E0,0.E0));
#320=VERTEX_POINT('',#319);
#321=CARTESIAN_POINT('',(-6.E0,5.606036973832E1,-7.617157220226E0));
#322=CARTESIAN_POINT('',(-6.E0,5.585817439135E1,-1.E1));
#323=VERTEX_POINT('',#321);
#324=VERTEX_POINT('',#322);
#325=CARTESIAN_POINT('',(6.E0,5.585817439135E1,-1.E1));
#326=VERTEX_POINT('',#325);
#327=CARTESIAN_POINT('',(6.E0,5.606036973832E1,-7.617157220226E0));
#328=VERTEX_POINT('',#327);
#329=CARTESIAN_POINT('',(-6.E0,-4.060669925523E1,-1.E1));
#330=CARTESIAN_POINT('',(-6.E0,-4.090837729251E1,-7.638539556495E0));
#331=VERTEX_POINT('',#329);
#332=VERTEX_POINT('',#330);
#333=CARTESIAN_POINT('',(6.E0,-4.090837729251E1,-7.638539556495E0));
#334=VERTEX_POINT('',#333);
#335=CARTESIAN_POINT('',(6.E0,-4.060669925523E1,-1.E1));
#336=VERTEX_POINT('',#335);
#337=CARTESIAN_POINT('',(-6.E0,0.E0,0.E0));
#338=DIRECTION('',(1.E0,0.E0,0.E0));
#339=DIRECTION('',(0.E0,-1.E0,0.E0));
#340=AXIS2_PLACEMENT_3D('',#337,#338,#339);
#341=PLANE('98',#340);
#343=ORIENTED_EDGE('382',*,*,#342,.F.);
#345=ORIENTED_EDGE('392',*,*,#344,.T.);
#347=ORIENTED_EDGE('102',*,*,#346,.T.);
#349=ORIENTED_EDGE('390',*,*,#348,.T.);
#351=ORIENTED_EDGE('386',*,*,#350,.F.);
#353=ORIENTED_EDGE('391',*,*,#352,.T.);
#354=EDGE_LOOP('98',(#343,#345,#347,#349,#351,#353));
#355=FACE_OUTER_BOUND('98',#354,.F.);
#357=CARTESIAN_POINT('',(2.16432E1,5.585817439135E1,-8.8E0));
#358=DIRECTION('',(-1.E0,0.E0,0.E0));
#359=DIRECTION('',(0.E0,1.684961224749E-1,9.857023164784E-1));
#360=AXIS2_PLACEMENT_3D('',#357,#358,#359);
#361=CYLINDRICAL_SURFACE('336',#360,1.2E0);
#362=ORIENTED_EDGE('382',*,*,#342,.T.);
#364=ORIENTED_EDGE('383',*,*,#363,.F.);
#366=ORIENTED_EDGE('384',*,*,#365,.T.);
#368=ORIENTED_EDGE('385',*,*,#367,.T.);
#369=EDGE_LOOP('336',(#362,#364,#366,#368));
#370=FACE_OUTER_BOUND('336',#369,.F.);
#372=CARTESIAN_POINT('',(-6.E0,-5.E1,-1.E1));
#373=DIRECTION('',(0.E0,0.E0,-1.E0));
#374=DIRECTION('',(0.E0,1.E0,0.E0));
#375=AXIS2_PLACEMENT_3D('',#372,#373,#374);
#376=PLANE('110',#375);
#377=ORIENTED_EDGE('383',*,*,#363,.T.);
#378=ORIENTED_EDGE('391',*,*,#352,.F.);
#380=ORIENTED_EDGE('389',*,*,#379,.F.);
#382=ORIENTED_EDGE('394',*,*,#381,.T.);
#383=EDGE_LOOP('110',(#377,#378,#380,#382));
#384=FACE_OUTER_BOUND('110',#383,.F.);
#386=ORIENTED_EDGE('315',*,*,#385,.F.);
#388=ORIENTED_EDGE('316',*,*,#387,.F.);
#389=EDGE_LOOP('110',(#386,#388));
#390=FACE_BOUND('110',#389,.F.);
#392=ORIENTED_EDGE('283',*,*,#391,.F.);
#394=ORIENTED_EDGE('284',*,*,#393,.F.);
#395=EDGE_LOOP('110',(#392,#394));
#396=FACE_BOUND('110',#395,.F.);
#398=CARTESIAN_POINT('',(0.E0,-7.5E0,-1.E1));
#399=DIRECTION('',(0.E0,0.E0,1.E0));
#400=DIRECTION('',(1.E0,0.E0,0.E0));
#401=AXIS2_PLACEMENT_3D('',#398,#399,#400);
#402=CYLINDRICAL_SURFACE('277',#401,5.5E0);
#403=ORIENTED_EDGE('283',*,*,#391,.T.);
#405=ORIENTED_EDGE('290',*,*,#404,.T.);
#407=ORIENTED_EDGE('275',*,*,#406,.F.);
#409=ORIENTED_EDGE('289',*,*,#408,.F.);
#410=EDGE_LOOP('277',(#403,#405,#407,#409));
#411=FACE_OUTER_BOUND('277',#410,.F.);
#413=CARTESIAN_POINT('',(0.E0,-7.5E0,-1.E1));
#414=DIRECTION('',(0.E0,0.E0,1.E0));
#415=DIRECTION('',(1.E0,0.E0,0.E0));
#416=AXIS2_PLACEMENT_3D('',#413,#414,#415);
#417=CYLINDRICAL_SURFACE('279',#416,5.5E0);
#418=ORIENTED_EDGE('284',*,*,#393,.T.);
#419=ORIENTED_EDGE('289',*,*,#408,.T.);
#421=ORIENTED_EDGE('276',*,*,#420,.F.);
#422=ORIENTED_EDGE('290',*,*,#404,.F.);
#423=EDGE_LOOP('279',(#418,#419,#421,#422));
#424=FACE_OUTER_BOUND('279',#423,.F.);
#426=CARTESIAN_POINT('',(0.E0,-7.5E0,-7.E0));
#427=DIRECTION('',(0.E0,0.E0,1.E0));
#428=DIRECTION('',(1.E0,0.E0,0.E0));
#429=AXIS2_PLACEMENT_3D('',#426,#427,#428);
#430=PLANE('274',#429);
#431=ORIENTED_EDGE('275',*,*,#406,.T.);
#432=ORIENTED_EDGE('276',*,*,#420,.T.);
#433=EDGE_LOOP('274',(#431,#432));
#434=FACE_OUTER_BOUND('274',#433,.F.);
#436=ORIENTED_EDGE('285',*,*,#435,.F.);
#438=ORIENTED_EDGE('286',*,*,#437,.F.);
#439=EDGE_LOOP('274',(#436,#438));
#440=FACE_BOUND('274',#439,.F.);
#442=CARTESIAN_POINT('',(0.E0,-7.5E0,-1.E1));
#443=DIRECTION('',(0.E0,0.E0,1.E0));
#444=DIRECTION('',(1.E0,0.E0,0.E0));
#445=AXIS2_PLACEMENT_3D('',#442,#443,#444);
#446=CYLINDRICAL_SURFACE('130',#445,2.75E0);
#447=ORIENTED_EDGE('285',*,*,#435,.T.);
#449=ORIENTED_EDGE('288',*,*,#448,.T.);
#451=ORIENTED_EDGE('331',*,*,#450,.F.);
#453=ORIENTED_EDGE('287',*,*,#452,.F.);
#454=EDGE_LOOP('130',(#447,#449,#451,#453));
#455=FACE_OUTER_BOUND('130',#454,.F.);
#457=CARTESIAN_POINT('',(0.E0,-7.5E0,-1.E1));
#458=DIRECTION('',(0.E0,0.E0,1.E0));
#459=DIRECTION('',(1.E0,0.E0,0.E0));
#460=AXIS2_PLACEMENT_3D('',#457,#458,#459);
#461=CYLINDRICAL_SURFACE('132',#460,2.75E0);
#462=ORIENTED_EDGE('286',*,*,#437,.T.);
#463=ORIENTED_EDGE('287',*,*,#452,.T.);
#465=ORIENTED_EDGE('332',*,*,#464,.F.);
#466=ORIENTED_EDGE('288',*,*,#448,.F.);
#467=EDGE_LOOP('132',(#462,#463,#465,#466));
#468=FACE_OUTER_BOUND('132',#467,.F.);
#470=CARTESIAN_POINT('',(-6.E0,1.15E1,0.E0));
#471=DIRECTION('',(0.E0,0.E0,1.E0));
#472=DIRECTION('',(0.E0,-1.E0,0.E0));
#473=AXIS2_PLACEMENT_3D('',#470,#471,#472);
#474=PLANE('114',#473);
#475=ORIENTED_EDGE('102',*,*,#346,.F.);
#477=ORIENTED_EDGE('115',*,*,#476,.T.);
#479=ORIENTED_EDGE('107',*,*,#478,.T.);
#481=ORIENTED_EDGE('109',*,*,#480,.F.);
#482=EDGE_LOOP('114',(#475,#477,#479,#481));
#483=FACE_OUTER_BOUND('114',#482,.F.);
#484=ORIENTED_EDGE('331',*,*,#450,.T.);
#485=ORIENTED_EDGE('332',*,*,#464,.T.);
#486=EDGE_LOOP('114',(#484,#485));
#487=FACE_BOUND('114',#486,.F.);
#489=ORIENTED_EDGE('333',*,*,#488,.T.);
#491=ORIENTED_EDGE('334',*,*,#490,.T.);
#492=EDGE_LOOP('114',(#489,#491));
#493=FACE_BOUND('114',#492,.F.);
#495=CARTESIAN_POINT('',(-6.E0,7.E1,-1.E1));
#496=DIRECTION('',(0.E0,1.684961224749E-1,9.857023164784E-1));
#497=DIRECTION('',(0.E0,-9.857023164784E-1,1.684961224749E-1));
#498=AXIS2_PLACEMENT_3D('',#495,#496,#497);
#499=PLANE('112',#498);
#500=ORIENTED_EDGE('385',*,*,#367,.F.);
#502=ORIENTED_EDGE('395',*,*,#501,.T.);
#503=ORIENTED_EDGE('115',*,*,#476,.F.);
#504=ORIENTED_EDGE('392',*,*,#344,.F.);
#505=EDGE_LOOP('112',(#500,#502,#503,#504));
#506=FACE_OUTER_BOUND('112',#505,.F.);
#508=CARTESIAN_POINT('',(6.E0,0.E0,0.E0));
#509=DIRECTION('',(1.E0,0.E0,0.E0));
#510=DIRECTION('',(0.E0,-1.E0,0.E0));
#511=AXIS2_PLACEMENT_3D('',#508,#509,#510);
#512=PLANE('103',#511);
#513=ORIENTED_EDGE('384',*,*,#365,.F.);
#514=ORIENTED_EDGE('394',*,*,#381,.F.);
#516=ORIENTED_EDGE('388',*,*,#515,.F.);
#518=ORIENTED_EDGE('393',*,*,#517,.F.);
#519=ORIENTED_EDGE('107',*,*,#478,.F.);
#520=ORIENTED_EDGE('395',*,*,#501,.F.);
#521=EDGE_LOOP('103',(#513,#514,#516,#518,#519,#520));
#522=FACE_OUTER_BOUND('103',#521,.F.);
#524=CARTESIAN_POINT('',(2.16432E1,-4.060669925523E1,-8.8E0));
#525=DIRECTION('',(-1.E0,0.E0,0.E0));
#526=DIRECTION('',(0.E0,0.E0,-1.E0));
#527=AXIS2_PLACEMENT_3D('',#524,#525,#526);
#528=CYLINDRICAL_SURFACE('341',#527,1.2E0);
#529=ORIENTED_EDGE('386',*,*,#350,.T.);
#531=ORIENTED_EDGE('387',*,*,#530,.F.);
#532=ORIENTED_EDGE('388',*,*,#515,.T.);
#533=ORIENTED_EDGE('389',*,*,#379,.T.);
#534=EDGE_LOOP('341',(#529,#531,#532,#533));
#535=FACE_OUTER_BOUND('341',#534,.F.);
#537=CARTESIAN_POINT('',(-6.E0,-1.15E1,0.E0));
#538=DIRECTION('',(0.E0,-2.513983643950E-1,9.678837029207E-1));
#539=DIRECTION('',(0.E0,-9.678837029207E-1,-2.513983643950E-1));
#540=AXIS2_PLACEMENT_3D('',#537,#538,#539);
#541=PLANE('108',#540);
#542=ORIENTED_EDGE('387',*,*,#530,.T.);
#543=ORIENTED_EDGE('390',*,*,#348,.F.);
#544=ORIENTED_EDGE('109',*,*,#480,.T.);
#545=ORIENTED_EDGE('393',*,*,#517,.T.);
#546=EDGE_LOOP('108',(#542,#543,#544,#545));
#547=FACE_OUTER_BOUND('108',#546,.F.);
#549=CARTESIAN_POINT('',(0.E0,7.5E0,-1.E1));
#550=DIRECTION('',(0.E0,0.E0,1.E0));
#551=DIRECTION('',(1.E0,0.E0,0.E0));
#552=AXIS2_PLACEMENT_3D('',#549,#550,#551);
#553=CYLINDRICAL_SURFACE('232',#552,2.75E0);
#555=ORIENTED_EDGE('317',*,*,#554,.T.);
#557=ORIENTED_EDGE('320',*,*,#556,.T.);
#558=ORIENTED_EDGE('333',*,*,#488,.F.);
#560=ORIENTED_EDGE('319',*,*,#559,.F.);
#561=EDGE_LOOP('232',(#555,#557,#558,#560));
#562=FACE_OUTER_BOUND('232',#561,.F.);
#564=CARTESIAN_POINT('',(0.E0,7.5E0,-7.E0));
#565=DIRECTION('',(0.E0,0.E0,1.E0));
#566=DIRECTION('',(1.E0,0.E0,0.E0));
#567=AXIS2_PLACEMENT_3D('',#564,#565,#566);
#568=PLANE('306',#567);
#570=ORIENTED_EDGE('307',*,*,#569,.T.);
#572=ORIENTED_EDGE('308',*,*,#571,.T.);
#573=EDGE_LOOP('306',(#570,#572));
#574=FACE_OUTER_BOUND('306',#573,.F.);
#575=ORIENTED_EDGE('317',*,*,#554,.F.);
#577=ORIENTED_EDGE('318',*,*,#576,.F.);
#578=EDGE_LOOP('306',(#575,#577));
#579=FACE_BOUND('306',#578,.F.);
#581=CARTESIAN_POINT('',(0.E0,7.5E0,-1.E1));
#582=DIRECTION('',(0.E0,0.E0,1.E0));
#583=DIRECTION('',(1.E0,0.E0,0.E0));
#584=AXIS2_PLACEMENT_3D('',#581,#582,#583);
#585=CYLINDRICAL_SURFACE('309',#584,5.5E0);
#586=ORIENTED_EDGE('315',*,*,#385,.T.);
#588=ORIENTED_EDGE('322',*,*,#587,.T.);
#589=ORIENTED_EDGE('307',*,*,#569,.F.);
#591=ORIENTED_EDGE('321',*,*,#590,.F.);
#592=EDGE_LOOP('309',(#586,#588,#589,#591));
#593=FACE_OUTER_BOUND('309',#592,.F.);
#595=CARTESIAN_POINT('',(0.E0,7.5E0,-1.E1));
#596=DIRECTION('',(0.E0,0.E0,1.E0));
#597=DIRECTION('',(1.E0,0.E0,0.E0));
#598=AXIS2_PLACEMENT_3D('',#595,#596,#597);
#599=CYLINDRICAL_SURFACE('311',#598,5.5E0);
#600=ORIENTED_EDGE('316',*,*,#387,.T.);
#601=ORIENTED_EDGE('321',*,*,#590,.T.);
#602=ORIENTED_EDGE('308',*,*,#571,.F.);
#603=ORIENTED_EDGE('322',*,*,#587,.F.);
#604=EDGE_LOOP('311',(#600,#601,#602,#603));
#605=FACE_OUTER_BOUND('311',#604,.F.);
#607=CARTESIAN_POINT('',(0.E0,7.5E0,-1.E1));
#608=DIRECTION('',(0.E0,0.E0,1.E0));
#609=DIRECTION('',(1.E0,0.E0,0.E0));
#610=AXIS2_PLACEMENT_3D('',#607,#608,#609);
#611=CYLINDRICAL_SURFACE('234',#610,2.75E0);
#612=ORIENTED_EDGE('318',*,*,#576,.T.);
#613=ORIENTED_EDGE('319',*,*,#559,.T.);
#614=ORIENTED_EDGE('334',*,*,#490,.F.);
#615=ORIENTED_EDGE('320',*,*,#556,.F.);
#616=EDGE_LOOP('234',(#612,#613,#614,#615));
#617=FACE_OUTER_BOUND('234',#616,.F.);
#623=PLANE_ANGLE_MEASURE_WITH_UNIT(PLANE_ANGLE_MEASURE(1.745329251994E-2),#622);
#624=(CONVERSION_BASED_UNIT('DEGREE',#623)NAMED_UNIT(*)PLANE_ANGLE_UNIT());
#626=UNCERTAINTY_MEASURE_WITH_UNIT(LENGTH_MEASURE(1.E-2),#621,
'distance_accuracy_value',
'Maximum model space distance between geometric entities at asserted connectivities');
#629=APPLICATION_CONTEXT('automotive_design');
#630=APPLICATION_PROTOCOL_DEFINITION('international standard',
'automotive_design',2001,#629);
#631=PRODUCT_DEFINITION_CONTEXT('part definition',#629,'design');
#632=PRODUCT_CONTEXT('',#629,'mechanical');
#633=PRODUCT('AUFLAGESD','AUFLAGESD','NOT SPECIFIED',(#632));
#634=PRODUCT_DEFINITION_FORMATION('1','LAST_VERSION',#633);
#642=DERIVED_UNIT_ELEMENT(#641,2.E0);
#643=DERIVED_UNIT((#642));
#644=MEASURE_REPRESENTATION_ITEM('surface area measure',AREA_MEASURE(
4.161218418525E3),#643);
#649=DERIVED_UNIT_ELEMENT(#648,3.E0);
#650=DERIVED_UNIT((#649));
#651=MEASURE_REPRESENTATION_ITEM('volume measure',VOLUME_MEASURE(
7.388907302327E3),#650);
#655=CARTESIAN_POINT('centre point',(3.601578207877E-6,6.307100484346E0,
-5.943801475582E0));
#660=DERIVED_UNIT_ELEMENT(#659,2.E0);
#661=DERIVED_UNIT((#660));
#662=MEASURE_REPRESENTATION_ITEM('surface area measure',AREA_MEASURE(
4.161218418525E3),#661);
#667=DERIVED_UNIT_ELEMENT(#666,3.E0);
#668=DERIVED_UNIT((#667));
#669=MEASURE_REPRESENTATION_ITEM('volume measure',VOLUME_MEASURE(
7.388907302327E3),#668);
#673=CARTESIAN_POINT('centre point',(3.601578207877E-6,6.307100484346E0,
-5.943801475582E0));
#678=PRODUCT_RELATED_PRODUCT_CATEGORY('part','',(#633));
#680=GENERAL_PROPERTY('','CHANGE_NUMBER','user defined attribute');
#681=GENERAL_PROPERTY_ASSOCIATION('user defined attribute','',#680,#679);
#682=DESCRIPTIVE_REPRESENTATION_ITEM('CHANGE_NUMBER','');
#686=GENERAL_PROPERTY('','CLASS_CODE','user defined attribute');
#687=GENERAL_PROPERTY_ASSOCIATION('user defined attribute','',#686,#685);
#688=DESCRIPTIVE_REPRESENTATION_ITEM('CLASS_CODE','');
#692=GENERAL_PROPERTY('','DESCR1_R1','user defined attribute');
#693=GENERAL_PROPERTY_ASSOCIATION('user defined attribute','',#692,#691);
#694=DESCRIPTIVE_REPRESENTATION_ITEM('DESCR1_R1','');
#698=GENERAL_PROPERTY('','DESCR1_R2','user defined attribute');
#699=GENERAL_PROPERTY_ASSOCIATION('user defined attribute','',#698,#697);
#700=DESCRIPTIVE_REPRESENTATION_ITEM('DESCR1_R2','');
#704=GENERAL_PROPERTY('','DESCR2_R1','user defined attribute');
#705=GENERAL_PROPERTY_ASSOCIATION('user defined attribute','',#704,#703);
#706=DESCRIPTIVE_REPRESENTATION_ITEM('DESCR2_R1','');
#710=GENERAL_PROPERTY('','DESCR2_R2','user defined attribute');
#711=GENERAL_PROPERTY_ASSOCIATION('user defined attribute','',#710,#709);
#712=DESCRIPTIVE_REPRESENTATION_ITEM('DESCR2_R2','');
#716=GENERAL_PROPERTY('','DESCR3_R1','user defined attribute');
#717=GENERAL_PROPERTY_ASSOCIATION('user defined attribute','',#716,#715);
#718=DESCRIPTIVE_REPRESENTATION_ITEM('DESCR3_R1','');
#722=GENERAL_PROPERTY('','DESCR3_R2','user defined attribute');
#723=GENERAL_PROPERTY_ASSOCIATION('user defined attribute','',#722,#721);
#724=DESCRIPTIVE_REPRESENTATION_ITEM('DESCR3_R2','');
#728=GENERAL_PROPERTY('','LANG_DESCR3','user defined attribute');
#729=GENERAL_PROPERTY_ASSOCIATION('user defined attribute','',#728,#727);
#730=DESCRIPTIVE_REPRESENTATION_ITEM('LANG_DESCR3','--');
#734=GENERAL_PROPERTY('','MANUFACTURING_ID','user defined attribute');
#735=GENERAL_PROPERTY_ASSOCIATION('user defined attribute','',#734,#733);
#736=DESCRIPTIVE_REPRESENTATION_ITEM('MANUFACTURING_ID','');
#740=GENERAL_PROPERTY('','MATERIAL','user defined attribute');
#741=GENERAL_PROPERTY_ASSOCIATION('user defined attribute','',#740,#739);
#742=DESCRIPTIVE_REPRESENTATION_ITEM('MATERIAL','');
#746=GENERAL_PROPERTY('','PROJECT','user defined attribute');
#747=GENERAL_PROPERTY_ASSOCIATION('user defined attribute','',#746,#745);
#748=DESCRIPTIVE_REPRESENTATION_ITEM('PROJECT','');
#752=GENERAL_PROPERTY('','WEIGHT','user defined attribute');
#753=GENERAL_PROPERTY_ASSOCIATION('user defined attribute','',#752,#751);
#754=VALUE_REPRESENTATION_ITEM('WEIGHT',NUMERIC_MEASURE(0.E0));
#757=DESCRIPTIVE_REPRESENTATION_ITEM('attribute description','Real Number');
#762=GENERAL_PROPERTY('','WEIGHT_FACTOR','user defined attribute');
#763=GENERAL_PROPERTY_ASSOCIATION('user defined attribute','',#762,#761);
#764=VALUE_REPRESENTATION_ITEM('WEIGHT_FACTOR',NUMERIC_MEASURE(1.E0));
#767=DESCRIPTIVE_REPRESENTATION_ITEM('attribute description','Real Number');
#772=GENERAL_PROPERTY('','WEIGHT_ADD','user defined attribute');
#773=GENERAL_PROPERTY_ASSOCIATION('user defined attribute','',#772,#771);
#774=VALUE_REPRESENTATION_ITEM('WEIGHT_ADD',NUMERIC_MEASURE(0.E0));
#777=DESCRIPTIVE_REPRESENTATION_ITEM('attribute description','Real Number');
#782=GENERAL_PROPERTY('','_MASS_TEMP','user defined attribute');
#783=GENERAL_PROPERTY_ASSOCIATION('user defined attribute','',#782,#781);
#784=VALUE_REPRESENTATION_ITEM('_MASS_TEMP',NUMERIC_MEASURE(0.E0));
#787=DESCRIPTIVE_REPRESENTATION_ITEM('attribute description','Real Number');
#792=GENERAL_PROPERTY('','_DIFF_TEMP','user defined attribute');
#793=GENERAL_PROPERTY_ASSOCIATION('user defined attribute','',#792,#791);
#795=MEASURE_REPRESENTATION_ITEM('_DIFF_TEMP',MASS_MEASURE(0.E0),#794);
#799=GENERAL_PROPERTY('','DCC','user defined attribute');
#800=GENERAL_PROPERTY_ASSOCIATION('user defined attribute','',#799,#798);
#801=DESCRIPTIVE_REPRESENTATION_ITEM('DCC','');
#805=GENERAL_PROPERTY('','RAW_PART','user defined attribute');
#806=GENERAL_PROPERTY_ASSOCIATION('user defined attribute','',#805,#804);
#807=DESCRIPTIVE_REPRESENTATION_ITEM('RAW_PART','');
#811=GENERAL_PROPERTY('','SIEMENS_NUMBER','user defined attribute');
#812=GENERAL_PROPERTY_ASSOCIATION('user defined attribute','',#811,#810);
#813=DESCRIPTIVE_REPRESENTATION_ITEM('SIEMENS_NUMBER','');
#817=GENERAL_PROPERTY('','ASSIGNED_DOCUMENT_NUMBER','user defined attribute');
#818=GENERAL_PROPERTY_ASSOCIATION('user defined attribute','',#817,#816);
#819=DESCRIPTIVE_REPRESENTATION_ITEM('ASSIGNED_DOCUMENT_NUMBER','');
#823=GENERAL_PROPERTY('','ASSIGNED_MATERIAL_NUMBER','user defined attribute');
#824=GENERAL_PROPERTY_ASSOCIATION('user defined attribute','',#823,#822);
#825=DESCRIPTIVE_REPRESENTATION_ITEM('ASSIGNED_MATERIAL_NUMBER','');
#829=GENERAL_PROPERTY('','MANUFACTURER','user defined attribute');
#830=GENERAL_PROPERTY_ASSOCIATION('user defined attribute','',#829,#828);
#831=DESCRIPTIVE_REPRESENTATION_ITEM('MANUFACTURER','--');
#835=GENERAL_PROPERTY('','MC_ERRORS','user defined attribute');
#836=GENERAL_PROPERTY_ASSOCIATION('user defined attribute','',#835,#834);
#837=VALUE_REPRESENTATION_ITEM('MC_ERRORS',COUNT_MEASURE(0));
#840=DESCRIPTIVE_REPRESENTATION_ITEM('attribute description','Integer');
#845=GENERAL_PROPERTY('','MODEL_CHECK','user defined attribute');
#846=GENERAL_PROPERTY_ASSOCIATION('user defined attribute','',#845,#844);
#847=DESCRIPTIVE_REPRESENTATION_ITEM('MODEL_CHECK','');
#851=GENERAL_PROPERTY('','STEP_VERSION','user defined attribute');
#852=GENERAL_PROPERTY_ASSOCIATION('user defined attribute','',#851,#850);
#853=DESCRIPTIVE_REPRESENTATION_ITEM('STEP_VERSION','');
#857=GENERAL_PROPERTY('','SUPPLIER_FILENAME','user defined attribute');
#858=GENERAL_PROPERTY_ASSOCIATION('user defined attribute','',#857,#856);
#859=DESCRIPTIVE_REPRESENTATION_ITEM('SUPPLIER_FILENAME','');
#863=GENERAL_PROPERTY('','PTC_WM_REVISION','user defined attribute');
#864=GENERAL_PROPERTY_ASSOCIATION('user defined attribute','',#863,#862);
#865=DESCRIPTIVE_REPRESENTATION_ITEM('PTC_WM_REVISION','-');
#869=GENERAL_PROPERTY('','PTC_WM_ITERATION','user defined attribute');
#870=GENERAL_PROPERTY_ASSOCIATION('user defined attribute','',#869,#868);
#871=DESCRIPTIVE_REPRESENTATION_ITEM('PTC_WM_ITERATION','0');
#875=GENERAL_PROPERTY('','PTC_WM_VERSION','user defined attribute');
#876=GENERAL_PROPERTY_ASSOCIATION('user defined attribute','',#875,#874);
#877=DESCRIPTIVE_REPRESENTATION_ITEM('PTC_WM_VERSION','-.0');
#881=GENERAL_PROPERTY('','PTC_WM_LIFECYCLE_STATE','user defined attribute');
#882=GENERAL_PROPERTY_ASSOCIATION('user defined attribute','',#881,#880);
#883=DESCRIPTIVE_REPRESENTATION_ITEM('PTC_WM_LIFECYCLE_STATE','In Work');
#887=GENERAL_PROPERTY('','PTC_WM_LIFECYCLE','user defined attribute');
#888=GENERAL_PROPERTY_ASSOCIATION('user defined attribute','',#887,#886);
#889=DESCRIPTIVE_REPRESENTATION_ITEM('PTC_WM_LIFECYCLE','MO_CADDocument');
#893=GENERAL_PROPERTY('','PTC_WM_LOCATION','user defined attribute');
#894=GENERAL_PROPERTY_ASSOCIATION('user defined attribute','',#893,#892);
#895=DESCRIPTIVE_REPRESENTATION_ITEM('PTC_WM_LOCATION','');
#899=GENERAL_PROPERTY('','PTC_WM_CREATED_BY','user defined attribute');
#900=GENERAL_PROPERTY_ASSOCIATION('user defined attribute','',#899,#898);
#901=DESCRIPTIVE_REPRESENTATION_ITEM('PTC_WM_CREATED_BY',
'Maximilian Roepper (Z0017RMS: MO)');
#905=GENERAL_PROPERTY('','PTC_WM_CREATED_ON','user defined attribute');
#906=GENERAL_PROPERTY_ASSOCIATION('user defined attribute','',#905,#904);
#907=DESCRIPTIVE_REPRESENTATION_ITEM('PTC_WM_CREATED_ON',
'28-Aug-26 12:57:42 PM');
#911=GENERAL_PROPERTY('','PTC_WM_MODIFIED_BY','user defined attribute');
#912=GENERAL_PROPERTY_ASSOCIATION('user defined attribute','',#911,#910);
#913=DESCRIPTIVE_REPRESENTATION_ITEM('PTC_WM_MODIFIED_BY',
'Maximilian Roepper (Z0017RMS: MO)');
#917=GENERAL_PROPERTY('','PTC_WM_MODIFIED_ON','user defined attribute');
#918=GENERAL_PROPERTY_ASSOCIATION('user defined attribute','',#917,#916);
#919=DESCRIPTIVE_REPRESENTATION_ITEM('PTC_WM_MODIFIED_ON',
'28-Aug-26 12:57:42 PM');
#923=GENERAL_PROPERTY('','PTC_WM_TEAM','user defined attribute');
#924=GENERAL_PROPERTY_ASSOCIATION('user defined attribute','',#923,#922);
#925=DESCRIPTIVE_REPRESENTATION_ITEM('PTC_WM_TEAM','');
#929=GENERAL_PROPERTY('','SUPPLIER','user defined attribute');
#930=GENERAL_PROPERTY_ASSOCIATION('user defined attribute','',#929,#928);
#931=VALUE_REPRESENTATION_ITEM('SUPPLIER',COUNT_MEASURE(0));
#934=DESCRIPTIVE_REPRESENTATION_ITEM('attribute description','Integer');
#939=GENERAL_PROPERTY('','PTC_ORGANIZATION_ID','user defined attribute');
#940=GENERAL_PROPERTY_ASSOCIATION('user defined attribute','',#939,#938);
#941=DESCRIPTIVE_REPRESENTATION_ITEM('PTC_ORGANIZATION_ID','MO');
#945=GENERAL_PROPERTY('','PTC_MODIFIED','user defined attribute');
#946=GENERAL_PROPERTY_ASSOCIATION('user defined attribute','',#945,#944);
#947=DESCRIPTIVE_REPRESENTATION_ITEM('PTC_MODIFIED','YES');
#950=DESCRIPTIVE_REPRESENTATION_ITEM('attribute description','Yes No');
#955=GENERAL_PROPERTY('','PLM','user defined attribute');
#956=GENERAL_PROPERTY_ASSOCIATION('user defined attribute','',#955,#954);
#957=DESCRIPTIVE_REPRESENTATION_ITEM('PLM','');
#961=GENERAL_PROPERTY('','DOCUMENT_NUMBER','user defined attribute');
#962=GENERAL_PROPERTY_ASSOCIATION('user defined attribute','',#961,#960);
#963=DESCRIPTIVE_REPRESENTATION_ITEM('DOCUMENT_NUMBER','');
#967=GENERAL_PROPERTY('','MATERIAL_TYPE','user defined attribute');
#968=GENERAL_PROPERTY_ASSOCIATION('user defined attribute','',#967,#966);
#969=DESCRIPTIVE_REPRESENTATION_ITEM('MATERIAL_TYPE','');
#973=GENERAL_PROPERTY('','MATERIAL_NUMBER','user defined attribute');
#974=GENERAL_PROPERTY_ASSOCIATION('user defined attribute','',#973,#972);
#975=DESCRIPTIVE_REPRESENTATION_ITEM('MATERIAL_NUMBER','');
#979=GENERAL_PROPERTY('','PDMLINKNUMBER','user defined attribute');
#980=GENERAL_PROPERTY_ASSOCIATION('user defined attribute','',#979,#978);
#981=DESCRIPTIVE_REPRESENTATION_ITEM('PDMLINKNUMBER','PDM000070910970');
#985=GENERAL_PROPERTY('','VISIBLE','user defined attribute');
#986=GENERAL_PROPERTY_ASSOCIATION('user defined attribute','',#985,#984);
#987=DESCRIPTIVE_REPRESENTATION_ITEM('VISIBLE','');
#991=GENERAL_PROPERTY('','PTC_WM_NAME','user defined attribute');
#992=GENERAL_PROPERTY_ASSOCIATION('user defined attribute','',#991,#990);
#993=DESCRIPTIVE_REPRESENTATION_ITEM('PTC_WM_NAME','auflagesd.prt');
#997=GENERAL_PROPERTY('','PTC_WM_NUMBER','user defined attribute');
#998=GENERAL_PROPERTY_ASSOCIATION('user defined attribute','',#997,#996);
#999=DESCRIPTIVE_REPRESENTATION_ITEM('PTC_WM_NUMBER','PDM000070910970');
#1003=GENERAL_PROPERTY('','TC_CREO_MAT_ID','user defined attribute');
#1004=GENERAL_PROPERTY_ASSOCIATION('user defined attribute','',#1003,#1002);
#1005=DESCRIPTIVE_REPRESENTATION_ITEM('TC_CREO_MAT_ID','');
#1009=GENERAL_PROPERTY('','PTC_MASTER_MATERIAL','user defined attribute');
#1010=GENERAL_PROPERTY_ASSOCIATION('user defined attribute','',#1009,#1008);
#1011=DESCRIPTIVE_REPRESENTATION_ITEM('PTC_MASTER_MATERIAL',
'PTC_SYSTEM_MTRL_PROPS');
#1=DRAUGHTING_PRE_DEFINED_COLOUR('black');
#2=COLOUR_RGB('',0.E0,0.E0,8.04E-1);
#3=COLOUR_RGB('',0.E0,0.E0,9.61E-1);
#4=DRAUGHTING_PRE_DEFINED_COLOUR('blue');
#5=COLOUR_RGB('',0.E0,4.51E-1,1.E0);
#6=COLOUR_RGB('',0.E0,5.01961E-1,0.E0);
#7=COLOUR_RGB('',0.E0,5.61E-1,6.59E-1);
#8=COLOUR_RGB('',0.E0,6.E-1,9.02E-1);
#9=COLOUR_RGB('',0.E0,6.59E-1,0.E0);
#10=COLOUR_RGB('',0.E0,6.59E-1,3.18E-1);
#11=COLOUR_RGB('',0.E0,6.59E-1,4.51E-1);
#12=COLOUR_RGB('',0.E0,6.59E-1,5.61E-1);
#13=COLOUR_RGB('',0.E0,6.59E-1,6.59E-1);
#14=COLOUR_RGB('',0.E0,6.59E-1,1.E0);
#15=COLOUR_RGB('',0.E0,6.78E-1,8.04E-1);
#16=COLOUR_RGB('',0.E0,7.61E-1,9.02E-1);
#17=COLOUR_RGB('',0.E0,8.04E-1,0.E0);
#18=COLOUR_RGB('',0.E0,8.04E-1,3.76E-1);
#19=COLOUR_RGB('',0.E0,8.04E-1,5.37E-1);
#20=COLOUR_RGB('',0.E0,8.04E-1,6.78E-1);
#21=COLOUR_RGB('',0.E0,8.04E-1,8.04E-1);
#22=COLOUR_RGB('',0.E0,8.15686E-1,8.15686E-1);
#23=COLOUR_RGB('',0.E0,8.39E-1,1.E0);
#24=COLOUR_RGB('',0.E0,9.02E-1,0.E0);
#25=COLOUR_RGB('',0.E0,9.02E-1,4.12E-1);
#26=COLOUR_RGB('',0.E0,9.02E-1,6.E-1);
#27=COLOUR_RGB('',0.E0,9.02E-1,7.61E-1);
#28=COLOUR_RGB('',0.E0,9.02E-1,9.02E-1);
#29=COLOUR_RGB('',0.E0,9.61E-1,0.E0);
#30=COLOUR_RGB('',0.E0,9.61E-1,9.61E-1);
#31=DRAUGHTING_PRE_DEFINED_COLOUR('green');
#32=COLOUR_RGB('',0.E0,1.E0,4.51E-1);
#33=COLOUR_RGB('',0.E0,1.E0,6.59E-1);
#34=COLOUR_RGB('',0.E0,1.E0,8.39E-1);
#35=DRAUGHTING_PRE_DEFINED_COLOUR('cyan');
#36=COLOUR_RGB('',2.31373E-1,4.86275E-1,1.E0);
#37=COLOUR_RGB('',3.18E-1,6.59E-1,0.E0);
#38=COLOUR_RGB('',3.76E-1,0.E0,8.04E-1);
#39=COLOUR_RGB('',3.76E-1,8.04E-1,0.E0);
#40=COLOUR_RGB('',4.12E-1,9.02E-1,0.E0);
#41=COLOUR_RGB('',4.51E-1,0.E0,1.E0);
#42=COLOUR_RGB('',4.51E-1,6.59E-1,0.E0);
#43=COLOUR_RGB('',4.78431E-1,3.01961E-1,0.E0);
#44=COLOUR_RGB('',5.37E-1,0.E0,8.04E-1);
#45=COLOUR_RGB('',5.37E-1,8.04E-1,0.E0);
#46=COLOUR_RGB('',5.61E-1,6.59E-1,0.E0);
#47=COLOUR_RGB('',6.E-1,0.E0,9.02E-1);
#48=COLOUR_RGB('',6.E-1,6.E-1,6.E-1);
#49=COLOUR_RGB('',6.E-1,9.02E-1,0.E0);
#50=COLOUR_RGB('',6.35294E-1,6.86275E-1,7.4902E-1);
#51=COLOUR_RGB('',6.59E-1,0.E0,0.E0);
#52=COLOUR_RGB('',6.59E-1,0.E0,1.E0);
#53=COLOUR_RGB('',6.59E-1,3.18E-1,0.E0);
#54=COLOUR_RGB('',6.59E-1,4.51E-1,0.E0);
#55=COLOUR_RGB('',6.59E-1,5.61E-1,0.E0);
#56=COLOUR_RGB('',6.59E-1,6.59E-1,0.E0);
#57=COLOUR_RGB('',6.78E-1,0.E0,8.04E-1);
#58=COLOUR_RGB('',6.78E-1,8.04E-1,0.E0);
#59=COLOUR_RGB('',7.61E-1,0.E0,9.02E-1);
#60=COLOUR_RGB('',7.61E-1,9.02E-1,0.E0);
#61=COLOUR_RGB('',8.E-1,8.E-1,8.E-1);
#62=COLOUR_RGB('',8.04E-1,0.E0,0.E0);
#63=COLOUR_RGB('',8.04E-1,0.E0,3.76E-1);
#64=COLOUR_RGB('',8.04E-1,0.E0,5.37E-1);
#65=COLOUR_RGB('',8.04E-1,0.E0,6.78E-1);
#66=COLOUR_RGB('',8.04E-1,0.E0,8.04E-1);
#67=COLOUR_RGB('',8.04E-1,3.76E-1,0.E0);
#68=COLOUR_RGB('',8.04E-1,5.37E-1,0.E0);
#69=COLOUR_RGB('',8.04E-1,6.78E-1,0.E0);
#70=COLOUR_RGB('',8.04E-1,8.04E-1,0.E0);
#71=COLOUR_RGB('',8.39E-1,0.E0,1.E0);
#72=COLOUR_RGB('',9.02E-1,0.E0,0.E0);
#73=COLOUR_RGB('',9.02E-1,0.E0,4.12E-1);
#74=COLOUR_RGB('',9.02E-1,0.E0,6.E-1);
#75=COLOUR_RGB('',9.02E-1,0.E0,7.61E-1);
#76=COLOUR_RGB('',9.02E-1,0.E0,9.02E-1);
#77=COLOUR_RGB('',9.02E-1,4.12E-1,0.E0);
#78=COLOUR_RGB('',9.02E-1,6.E-1,0.E0);
#79=COLOUR_RGB('',9.02E-1,7.61E-1,0.E0);
#80=COLOUR_RGB('',9.02E-1,9.02E-1,0.E0);
#81=COLOUR_RGB('',9.14E-1,9.14E-1,9.14E-1);
#82=COLOUR_RGB('',9.61E-1,0.E0,9.61E-1);
#83=COLOUR_RGB('',9.96078E-1,5.33333E-1,0.E0);
#84=COLOUR_RGB('',9.96078E-1,9.96078E-1,0.E0);
#85=DRAUGHTING_PRE_DEFINED_COLOUR('red');
#86=COLOUR_RGB('',1.E0,0.E0,4.51E-1);
#87=COLOUR_RGB('',1.E0,0.E0,6.59E-1);
#88=COLOUR_RGB('',1.E0,0.E0,8.39E-1);
#89=DRAUGHTING_PRE_DEFINED_COLOUR('magenta');
#90=COLOUR_RGB('',1.E0,6.59E-1,0.E0);
#91=DRAUGHTING_PRE_DEFINED_COLOUR('yellow');
#92=DRAUGHTING_PRE_DEFINED_COLOUR('white');
#97=CIRCLE('382',#96,1.2E0);
#114=CIRCLE('386',#113,1.2E0);
#123=CIRCLE('283',#122,5.5E0);
#128=CIRCLE('284',#127,5.5E0);
#133=CIRCLE('315',#132,5.5E0);
#138=CIRCLE('316',#137,5.5E0);
#159=CIRCLE('275',#158,5.5E0);
#164=CIRCLE('276',#163,5.5E0);
#169=CIRCLE('285',#168,2.75E0);
#178=CIRCLE('286',#177,2.75E0);
#191=CIRCLE('331',#190,2.75E0);
#196=CIRCLE('332',#195,2.75E0);
#201=CIRCLE('333',#200,2.75E0);
#206=CIRCLE('334',#205,2.75E0);
#215=CIRCLE('384',#214,1.2E0);
#224=CIRCLE('388',#223,1.2E0);
#249=CIRCLE('317',#248,2.75E0);
#258=CIRCLE('307',#257,5.5E0);
#263=CIRCLE('308',#262,5.5E0);
#276=CIRCLE('318',#275,2.75E0);
#342=EDGE_CURVE('382',#323,#324,#97,.T.);
#344=EDGE_CURVE('392',#323,#283,#101,.T.);
#346=EDGE_CURVE('102',#283,#284,#105,.T.);
#348=EDGE_CURVE('390',#284,#332,#109,.T.);
#350=EDGE_CURVE('386',#331,#332,#114,.T.);
#352=EDGE_CURVE('391',#331,#324,#118,.T.);
#356=ADVANCED_FACE('98',(#355),#341,.F.);
#363=EDGE_CURVE('383',#326,#324,#142,.T.);
#365=EDGE_CURVE('384',#326,#328,#215,.T.);
#367=EDGE_CURVE('385',#328,#323,#210,.T.);
#371=ADVANCED_FACE('336',(#370),#361,.T.);
#379=EDGE_CURVE('389',#336,#331,#146,.T.);
#381=EDGE_CURVE('394',#336,#326,#219,.T.);
#385=EDGE_CURVE('315',#311,#312,#133,.T.);
#387=EDGE_CURVE('316',#312,#311,#138,.T.);
#391=EDGE_CURVE('283',#295,#296,#123,.T.);
#393=EDGE_CURVE('284',#296,#295,#128,.T.);
#397=ADVANCED_FACE('110',(#384,#390,#396),#376,.T.);
#404=EDGE_CURVE('290',#296,#292,#154,.T.);
#406=EDGE_CURVE('275',#291,#292,#159,.T.);
#408=EDGE_CURVE('289',#295,#291,#150,.T.);
#412=ADVANCED_FACE('277',(#411),#402,.F.);
#420=EDGE_CURVE('276',#292,#291,#164,.T.);
#425=ADVANCED_FACE('279',(#424),#417,.F.);
#435=EDGE_CURVE('285',#299,#300,#169,.T.);
#437=EDGE_CURVE('286',#300,#299,#178,.T.);
#441=ADVANCED_FACE('274',(#434,#440),#430,.F.);
#448=EDGE_CURVE('288',#300,#304,#182,.T.);
#450=EDGE_CURVE('331',#302,#304,#191,.T.);
#452=EDGE_CURVE('287',#299,#302,#173,.T.);
#456=ADVANCED_FACE('130',(#455),#446,.F.);
#464=EDGE_CURVE('332',#304,#302,#196,.T.);
#469=ADVANCED_FACE('132',(#468),#461,.F.);
#476=EDGE_CURVE('115',#283,#287,#186,.T.);
#478=EDGE_CURVE('107',#287,#288,#232,.T.);
#480=EDGE_CURVE('109',#284,#288,#244,.T.);
#488=EDGE_CURVE('333',#318,#320,#201,.T.);
#490=EDGE_CURVE('334',#320,#318,#206,.T.);
#494=ADVANCED_FACE('114',(#483,#487,#493),#474,.T.);
#501=EDGE_CURVE('395',#328,#287,#236,.T.);
#507=ADVANCED_FACE('112',(#506),#499,.T.);
#515=EDGE_CURVE('388',#334,#336,#224,.T.);
#517=EDGE_CURVE('393',#288,#334,#228,.T.);
#523=ADVANCED_FACE('103',(#522),#512,.T.);
#530=EDGE_CURVE('387',#334,#332,#240,.T.);
#536=ADVANCED_FACE('341',(#535),#528,.T.);
#548=ADVANCED_FACE('108',(#547),#541,.T.);
#554=EDGE_CURVE('317',#315,#316,#249,.T.);
#556=EDGE_CURVE('320',#316,#320,#280,.T.);
#559=EDGE_CURVE('319',#315,#318,#253,.T.);
#563=ADVANCED_FACE('232',(#562),#553,.F.);
#569=EDGE_CURVE('307',#307,#308,#258,.T.);
#571=EDGE_CURVE('308',#308,#307,#263,.T.);
#576=EDGE_CURVE('318',#316,#315,#276,.T.);
#580=ADVANCED_FACE('306',(#574,#579),#568,.F.);
#587=EDGE_CURVE('322',#312,#308,#271,.T.);
#590=EDGE_CURVE('321',#311,#307,#267,.T.);
#594=ADVANCED_FACE('309',(#593),#585,.F.);
#606=ADVANCED_FACE('311',(#605),#599,.F.);
#618=ADVANCED_FACE('234',(#617),#611,.F.);
#619=CLOSED_SHELL('',(#356,#371,#397,#412,#425,#441,#456,#469,#494,#507,#523,
#536,#548,#563,#580,#594,#606,#618));
#620=MANIFOLD_SOLID_BREP('',#619);
#621=(LENGTH_UNIT()NAMED_UNIT(*)SI_UNIT(.MILLI.,.METRE.));
#622=(NAMED_UNIT(*)PLANE_ANGLE_UNIT()SI_UNIT($,.RADIAN.));
#625=(NAMED_UNIT(*)SI_UNIT($,.STERADIAN.)SOLID_ANGLE_UNIT());
#627=(GEOMETRIC_REPRESENTATION_CONTEXT(3)GLOBAL_UNCERTAINTY_ASSIGNED_CONTEXT((
#626))GLOBAL_UNIT_ASSIGNED_CONTEXT((#621,#624,#625))REPRESENTATION_CONTEXT
('ID1','3'));
#628=ADVANCED_BREP_SHAPE_REPRESENTATION('',(#620),#627);
#635=PRODUCT_DEFINITION('part definition','',#634,#631);
#636=PRODUCT_DEFINITION_SHAPE('','SHAPE FOR AUFLAGESD.',#635);
#637=SHAPE_ASPECT('','solid data associated with AUFLAGESD',#636,.F.);
#638=PROPERTY_DEFINITION('',
'shape for solid data with which properties are associated',#637);
#639=SHAPE_REPRESENTATION('',(#620),#627);
#640=SHAPE_DEFINITION_REPRESENTATION(#638,#639);
#641=(LENGTH_UNIT()NAMED_UNIT(*)SI_UNIT(.MILLI.,.METRE.));
#645=PROPERTY_DEFINITION('geometric validation property','area of AUFLAGESD',
#637);
#646=REPRESENTATION('surface area',(#644),#627);
#647=PROPERTY_DEFINITION_REPRESENTATION(#645,#646);
#648=(LENGTH_UNIT()NAMED_UNIT(*)SI_UNIT(.MILLI.,.METRE.));
#652=PROPERTY_DEFINITION('geometric validation property','volume of AUFLAGESD',
#637);
#653=REPRESENTATION('volume',(#651),#627);
#654=PROPERTY_DEFINITION_REPRESENTATION(#652,#653);
#656=PROPERTY_DEFINITION('geometric validation property',
'centroid of AUFLAGESD',#637);
#657=REPRESENTATION('centroid',(#655),#627);
#658=PROPERTY_DEFINITION_REPRESENTATION(#656,#657);
#659=(LENGTH_UNIT()NAMED_UNIT(*)SI_UNIT(.MILLI.,.METRE.));
#663=PROPERTY_DEFINITION('geometric validation property','area of AUFLAGESD',
#636);
#664=REPRESENTATION('surface area',(#662),#627);
#665=PROPERTY_DEFINITION_REPRESENTATION(#663,#664);
#666=(LENGTH_UNIT()NAMED_UNIT(*)SI_UNIT(.MILLI.,.METRE.));
#670=PROPERTY_DEFINITION('geometric validation property','volume of AUFLAGESD',
#636);
#671=REPRESENTATION('volume',(#669),#627);
#672=PROPERTY_DEFINITION_REPRESENTATION(#670,#671);
#674=PROPERTY_DEFINITION('geometric validation property',
'centroid of AUFLAGESD',#636);
#675=REPRESENTATION('centroid',(#673),#627);
#676=PROPERTY_DEFINITION_REPRESENTATION(#674,#675);
#677=SHAPE_DEFINITION_REPRESENTATION(#636,#628);
#679=PROPERTY_DEFINITION('CHANGE_NUMBER','user defined attribute',#635);
#683=REPRESENTATION('',(#682),#627);
#684=PROPERTY_DEFINITION_REPRESENTATION(#679,#683);
#685=PROPERTY_DEFINITION('CLASS_CODE','user defined attribute',#635);
#689=REPRESENTATION('',(#688),#627);
#690=PROPERTY_DEFINITION_REPRESENTATION(#685,#689);
#691=PROPERTY_DEFINITION('DESCR1_R1','user defined attribute',#635);
#695=REPRESENTATION('',(#694),#627);
#696=PROPERTY_DEFINITION_REPRESENTATION(#691,#695);
#697=PROPERTY_DEFINITION('DESCR1_R2','user defined attribute',#635);
#701=REPRESENTATION('',(#700),#627);
#702=PROPERTY_DEFINITION_REPRESENTATION(#697,#701);
#703=PROPERTY_DEFINITION('DESCR2_R1','user defined attribute',#635);
#707=REPRESENTATION('',(#706),#627);
#708=PROPERTY_DEFINITION_REPRESENTATION(#703,#707);
#709=PROPERTY_DEFINITION('DESCR2_R2','user defined attribute',#635);
#713=REPRESENTATION('',(#712),#627);
#714=PROPERTY_DEFINITION_REPRESENTATION(#709,#713);
#715=PROPERTY_DEFINITION('DESCR3_R1','user defined attribute',#635);
#719=REPRESENTATION('',(#718),#627);
#720=PROPERTY_DEFINITION_REPRESENTATION(#715,#719);
#721=PROPERTY_DEFINITION('DESCR3_R2','user defined attribute',#635);
#725=REPRESENTATION('',(#724),#627);
#726=PROPERTY_DEFINITION_REPRESENTATION(#721,#725);
#727=PROPERTY_DEFINITION('LANG_DESCR3','user defined attribute',#635);
#731=REPRESENTATION('',(#730),#627);
#732=PROPERTY_DEFINITION_REPRESENTATION(#727,#731);
#733=PROPERTY_DEFINITION('MANUFACTURING_ID','user defined attribute',#635);
#737=REPRESENTATION('',(#736),#627);
#738=PROPERTY_DEFINITION_REPRESENTATION(#733,#737);
#739=PROPERTY_DEFINITION('MATERIAL','user defined attribute',#635);
#743=REPRESENTATION('',(#742),#627);
#744=PROPERTY_DEFINITION_REPRESENTATION(#739,#743);
#745=PROPERTY_DEFINITION('PROJECT','user defined attribute',#635);
#749=REPRESENTATION('',(#748),#627);
#750=PROPERTY_DEFINITION_REPRESENTATION(#745,#749);
#751=PROPERTY_DEFINITION('WEIGHT','user defined attribute',#635);
#755=REPRESENTATION('',(#754),#627);
#756=PROPERTY_DEFINITION_REPRESENTATION(#751,#755);
#758=REPRESENTATION('',(#757),#627);
#759=PROPERTY_DEFINITION('attribute type designation','Real Number',#752);
#760=PROPERTY_DEFINITION_REPRESENTATION(#759,#758);
#761=PROPERTY_DEFINITION('WEIGHT_FACTOR','user defined attribute',#635);
#765=REPRESENTATION('',(#764),#627);
#766=PROPERTY_DEFINITION_REPRESENTATION(#761,#765);
#768=REPRESENTATION('',(#767),#627);
#769=PROPERTY_DEFINITION('attribute type designation','Real Number',#762);
#770=PROPERTY_DEFINITION_REPRESENTATION(#769,#768);
#771=PROPERTY_DEFINITION('WEIGHT_ADD','user defined attribute',#635);
#775=REPRESENTATION('',(#774),#627);
#776=PROPERTY_DEFINITION_REPRESENTATION(#771,#775);
#778=REPRESENTATION('',(#777),#627);
#779=PROPERTY_DEFINITION('attribute type designation','Real Number',#772);
#780=PROPERTY_DEFINITION_REPRESENTATION(#779,#778);
#781=PROPERTY_DEFINITION('_MASS_TEMP','user defined attribute',#635);
#785=REPRESENTATION('',(#784),#627);
#786=PROPERTY_DEFINITION_REPRESENTATION(#781,#785);
#788=REPRESENTATION('',(#787),#627);
#789=PROPERTY_DEFINITION('attribute type designation','Real Number',#782);
#790=PROPERTY_DEFINITION_REPRESENTATION(#789,#788);
#791=PROPERTY_DEFINITION('_DIFF_TEMP','user defined attribute',#635);
#794=(MASS_UNIT()NAMED_UNIT(*)SI_UNIT(.KILO.,.GRAM.));
#796=REPRESENTATION('',(#795),#627);
#797=PROPERTY_DEFINITION_REPRESENTATION(#791,#796);
#798=PROPERTY_DEFINITION('DCC','user defined attribute',#635);
#802=REPRESENTATION('',(#801),#627);
#803=PROPERTY_DEFINITION_REPRESENTATION(#798,#802);
#804=PROPERTY_DEFINITION('RAW_PART','user defined attribute',#635);
#808=REPRESENTATION('',(#807),#627);
#809=PROPERTY_DEFINITION_REPRESENTATION(#804,#808);
#810=PROPERTY_DEFINITION('SIEMENS_NUMBER','user defined attribute',#635);
#814=REPRESENTATION('',(#813),#627);
#815=PROPERTY_DEFINITION_REPRESENTATION(#810,#814);
#816=PROPERTY_DEFINITION('ASSIGNED_DOCUMENT_NUMBER','user defined attribute',
#635);
#820=REPRESENTATION('',(#819),#627);
#821=PROPERTY_DEFINITION_REPRESENTATION(#816,#820);
#822=PROPERTY_DEFINITION('ASSIGNED_MATERIAL_NUMBER','user defined attribute',
#635);
#826=REPRESENTATION('',(#825),#627);
#827=PROPERTY_DEFINITION_REPRESENTATION(#822,#826);
#828=PROPERTY_DEFINITION('MANUFACTURER','user defined attribute',#635);
#832=REPRESENTATION('',(#831),#627);
#833=PROPERTY_DEFINITION_REPRESENTATION(#828,#832);
#834=PROPERTY_DEFINITION('MC_ERRORS','user defined attribute',#635);
#838=REPRESENTATION('',(#837),#627);
#839=PROPERTY_DEFINITION_REPRESENTATION(#834,#838);
#841=REPRESENTATION('',(#840),#627);
#842=PROPERTY_DEFINITION('attribute type designation','Integer',#835);
#843=PROPERTY_DEFINITION_REPRESENTATION(#842,#841);
#844=PROPERTY_DEFINITION('MODEL_CHECK','user defined attribute',#635);
#848=REPRESENTATION('',(#847),#627);
#849=PROPERTY_DEFINITION_REPRESENTATION(#844,#848);
#850=PROPERTY_DEFINITION('STEP_VERSION','user defined attribute',#635);
#854=REPRESENTATION('',(#853),#627);
#855=PROPERTY_DEFINITION_REPRESENTATION(#850,#854);
#856=PROPERTY_DEFINITION('SUPPLIER_FILENAME','user defined attribute',#635);
#860=REPRESENTATION('',(#859),#627);
#861=PROPERTY_DEFINITION_REPRESENTATION(#856,#860);
#862=PROPERTY_DEFINITION('PTC_WM_REVISION','user defined attribute',#635);
#866=REPRESENTATION('',(#865),#627);
#867=PROPERTY_DEFINITION_REPRESENTATION(#862,#866);
#868=PROPERTY_DEFINITION('PTC_WM_ITERATION','user defined attribute',#635);
#872=REPRESENTATION('',(#871),#627);
#873=PROPERTY_DEFINITION_REPRESENTATION(#868,#872);
#874=PROPERTY_DEFINITION('PTC_WM_VERSION','user defined attribute',#635);
#878=REPRESENTATION('',(#877),#627);
#879=PROPERTY_DEFINITION_REPRESENTATION(#874,#878);
#880=PROPERTY_DEFINITION('PTC_WM_LIFECYCLE_STATE','user defined attribute',
#635);
#884=REPRESENTATION('',(#883),#627);
#885=PROPERTY_DEFINITION_REPRESENTATION(#880,#884);
#886=PROPERTY_DEFINITION('PTC_WM_LIFECYCLE','user defined attribute',#635);
#890=REPRESENTATION('',(#889),#627);
#891=PROPERTY_DEFINITION_REPRESENTATION(#886,#890);
#892=PROPERTY_DEFINITION('PTC_WM_LOCATION','user defined attribute',#635);
#896=REPRESENTATION('',(#895),#627);
#897=PROPERTY_DEFINITION_REPRESENTATION(#892,#896);
#898=PROPERTY_DEFINITION('PTC_WM_CREATED_BY','user defined attribute',#635);
#902=REPRESENTATION('',(#901),#627);
#903=PROPERTY_DEFINITION_REPRESENTATION(#898,#902);
#904=PROPERTY_DEFINITION('PTC_WM_CREATED_ON','user defined attribute',#635);
#908=REPRESENTATION('',(#907),#627);
#909=PROPERTY_DEFINITION_REPRESENTATION(#904,#908);
#910=PROPERTY_DEFINITION('PTC_WM_MODIFIED_BY','user defined attribute',#635);
#914=REPRESENTATION('',(#913),#627);
#915=PROPERTY_DEFINITION_REPRESENTATION(#910,#914);
#916=PROPERTY_DEFINITION('PTC_WM_MODIFIED_ON','user defined attribute',#635);
#920=REPRESENTATION('',(#919),#627);
#921=PROPERTY_DEFINITION_REPRESENTATION(#916,#920);
#922=PROPERTY_DEFINITION('PTC_WM_TEAM','user defined attribute',#635);
#926=REPRESENTATION('',(#925),#627);
#927=PROPERTY_DEFINITION_REPRESENTATION(#922,#926);
#928=PROPERTY_DEFINITION('SUPPLIER','user defined attribute',#635);
#932=REPRESENTATION('',(#931),#627);
#933=PROPERTY_DEFINITION_REPRESENTATION(#928,#932);
#935=REPRESENTATION('',(#934),#627);
#936=PROPERTY_DEFINITION('attribute type designation','Integer',#929);
#937=PROPERTY_DEFINITION_REPRESENTATION(#936,#935);
#938=PROPERTY_DEFINITION('PTC_ORGANIZATION_ID','user defined attribute',#635);
#942=REPRESENTATION('',(#941),#627);
#943=PROPERTY_DEFINITION_REPRESENTATION(#938,#942);
#944=PROPERTY_DEFINITION('PTC_MODIFIED','user defined attribute',#635);
#948=REPRESENTATION('',(#947),#627);
#949=PROPERTY_DEFINITION_REPRESENTATION(#944,#948);
#951=REPRESENTATION('',(#950),#627);
#952=PROPERTY_DEFINITION('attribute type designation','Yes No',#945);
#953=PROPERTY_DEFINITION_REPRESENTATION(#952,#951);
#954=PROPERTY_DEFINITION('PLM','user defined attribute',#635);
#958=REPRESENTATION('',(#957),#627);
#959=PROPERTY_DEFINITION_REPRESENTATION(#954,#958);
#960=PROPERTY_DEFINITION('DOCUMENT_NUMBER','user defined attribute',#635);
#964=REPRESENTATION('',(#963),#627);
#965=PROPERTY_DEFINITION_REPRESENTATION(#960,#964);
#966=PROPERTY_DEFINITION('MATERIAL_TYPE','user defined attribute',#635);
#970=REPRESENTATION('',(#969),#627);
#971=PROPERTY_DEFINITION_REPRESENTATION(#966,#970);
#972=PROPERTY_DEFINITION('MATERIAL_NUMBER','user defined attribute',#635);
#976=REPRESENTATION('',(#975),#627);
#977=PROPERTY_DEFINITION_REPRESENTATION(#972,#976);
#978=PROPERTY_DEFINITION('PDMLINKNUMBER','user defined attribute',#635);
#982=REPRESENTATION('',(#981),#627);
#983=PROPERTY_DEFINITION_REPRESENTATION(#978,#982);
#984=PROPERTY_DEFINITION('VISIBLE','user defined attribute',#635);
#988=REPRESENTATION('',(#987),#627);
#989=PROPERTY_DEFINITION_REPRESENTATION(#984,#988);
#990=PROPERTY_DEFINITION('PTC_WM_NAME','user defined attribute',#635);
#994=REPRESENTATION('',(#993),#627);
#995=PROPERTY_DEFINITION_REPRESENTATION(#990,#994);
#996=PROPERTY_DEFINITION('PTC_WM_NUMBER','user defined attribute',#635);
#1000=REPRESENTATION('',(#999),#627);
#1001=PROPERTY_DEFINITION_REPRESENTATION(#996,#1000);
#1002=PROPERTY_DEFINITION('TC_CREO_MAT_ID','user defined attribute',#635);
#1006=REPRESENTATION('',(#1005),#627);
#1007=PROPERTY_DEFINITION_REPRESENTATION(#1002,#1006);
#1008=PROPERTY_DEFINITION('PTC_MASTER_MATERIAL','user defined attribute',#635);
#1012=REPRESENTATION('',(#1011),#627);
#1013=PROPERTY_DEFINITION_REPRESENTATION(#1008,#1012);
ENDSEC;
END-ISO-10303-21;
